G04 #@! TF.GenerationSoftware,KiCad,Pcbnew,(5.0.2)-1*
G04 #@! TF.CreationDate,2019-10-18T18:51:17-07:00*
G04 #@! TF.ProjectId,Arduino Project,41726475-696e-46f2-9050-726f6a656374,rev?*
G04 #@! TF.SameCoordinates,Original*
G04 #@! TF.FileFunction,Legend,Top*
G04 #@! TF.FilePolarity,Positive*
%FSLAX46Y46*%
G04 Gerber Fmt 4.6, Leading zero omitted, Abs format (unit mm)*
G04 Created by KiCad (PCBNEW (5.0.2)-1) date 10/18/2019 6:51:17 PM*
%MOMM*%
%LPD*%
G01*
G04 APERTURE LIST*
%ADD10C,0.300000*%
%ADD11C,0.120000*%
%ADD12C,0.100000*%
%ADD13C,0.150000*%
%ADD14C,0.254000*%
G04 APERTURE END LIST*
D10*
X155200000Y-43903571D02*
X156057142Y-43903571D01*
X155628571Y-45403571D02*
X155628571Y-43903571D01*
X157128571Y-45332142D02*
X156985714Y-45403571D01*
X156700000Y-45403571D01*
X156557142Y-45332142D01*
X156485714Y-45189285D01*
X156485714Y-44617857D01*
X156557142Y-44475000D01*
X156700000Y-44403571D01*
X156985714Y-44403571D01*
X157128571Y-44475000D01*
X157200000Y-44617857D01*
X157200000Y-44760714D01*
X156485714Y-44903571D01*
X158414285Y-45332142D02*
X158271428Y-45403571D01*
X157985714Y-45403571D01*
X157842857Y-45332142D01*
X157771428Y-45189285D01*
X157771428Y-44617857D01*
X157842857Y-44475000D01*
X157985714Y-44403571D01*
X158271428Y-44403571D01*
X158414285Y-44475000D01*
X158485714Y-44617857D01*
X158485714Y-44760714D01*
X157771428Y-44903571D01*
X159128571Y-44403571D02*
X159128571Y-45403571D01*
X159128571Y-44546428D02*
X159200000Y-44475000D01*
X159342857Y-44403571D01*
X159557142Y-44403571D01*
X159700000Y-44475000D01*
X159771428Y-44617857D01*
X159771428Y-45403571D01*
X160414285Y-45332142D02*
X160557142Y-45403571D01*
X160842857Y-45403571D01*
X160985714Y-45332142D01*
X161057142Y-45189285D01*
X161057142Y-45117857D01*
X160985714Y-44975000D01*
X160842857Y-44903571D01*
X160628571Y-44903571D01*
X160485714Y-44832142D01*
X160414285Y-44689285D01*
X160414285Y-44617857D01*
X160485714Y-44475000D01*
X160628571Y-44403571D01*
X160842857Y-44403571D01*
X160985714Y-44475000D01*
X161557142Y-44403571D02*
X161914285Y-45403571D01*
X162271428Y-44403571D02*
X161914285Y-45403571D01*
X161771428Y-45760714D01*
X161700000Y-45832142D01*
X161557142Y-45903571D01*
X163985714Y-45403571D02*
X163985714Y-43903571D01*
X164557142Y-43903571D01*
X164700000Y-43975000D01*
X164771428Y-44046428D01*
X164842857Y-44189285D01*
X164842857Y-44403571D01*
X164771428Y-44546428D01*
X164700000Y-44617857D01*
X164557142Y-44689285D01*
X163985714Y-44689285D01*
X165342857Y-43903571D02*
X165700000Y-45403571D01*
X165985714Y-44332142D01*
X166271428Y-45403571D01*
X166628571Y-43903571D01*
X167200000Y-45403571D02*
X167200000Y-43903571D01*
X167700000Y-44975000D01*
X168200000Y-43903571D01*
X168200000Y-45403571D01*
X171271428Y-45403571D02*
X171200000Y-45403571D01*
X171057142Y-45332142D01*
X170842857Y-45117857D01*
X170485714Y-44689285D01*
X170342857Y-44475000D01*
X170271428Y-44260714D01*
X170271428Y-44117857D01*
X170342857Y-43975000D01*
X170485714Y-43903571D01*
X170557142Y-43903571D01*
X170700000Y-43975000D01*
X170771428Y-44117857D01*
X170771428Y-44189285D01*
X170700000Y-44332142D01*
X170628571Y-44403571D01*
X170200000Y-44689285D01*
X170128571Y-44760714D01*
X170057142Y-44903571D01*
X170057142Y-45117857D01*
X170128571Y-45260714D01*
X170200000Y-45332142D01*
X170342857Y-45403571D01*
X170557142Y-45403571D01*
X170700000Y-45332142D01*
X170771428Y-45260714D01*
X170985714Y-44975000D01*
X171057142Y-44760714D01*
X171057142Y-44617857D01*
X173057142Y-45403571D02*
X173057142Y-43903571D01*
X173700000Y-44046428D02*
X173771428Y-43975000D01*
X173914285Y-43903571D01*
X174271428Y-43903571D01*
X174414285Y-43975000D01*
X174485714Y-44046428D01*
X174557142Y-44189285D01*
X174557142Y-44332142D01*
X174485714Y-44546428D01*
X173628571Y-45403571D01*
X174557142Y-45403571D01*
X176057142Y-45260714D02*
X175985714Y-45332142D01*
X175771428Y-45403571D01*
X175628571Y-45403571D01*
X175414285Y-45332142D01*
X175271428Y-45189285D01*
X175200000Y-45046428D01*
X175128571Y-44760714D01*
X175128571Y-44546428D01*
X175200000Y-44260714D01*
X175271428Y-44117857D01*
X175414285Y-43975000D01*
X175628571Y-43903571D01*
X175771428Y-43903571D01*
X175985714Y-43975000D01*
X176057142Y-44046428D01*
X159664285Y-47525000D02*
X160378571Y-47525000D01*
X159521428Y-47953571D02*
X160021428Y-46453571D01*
X160521428Y-47953571D01*
X160950000Y-47882142D02*
X161164285Y-47953571D01*
X161521428Y-47953571D01*
X161664285Y-47882142D01*
X161735714Y-47810714D01*
X161807142Y-47667857D01*
X161807142Y-47525000D01*
X161735714Y-47382142D01*
X161664285Y-47310714D01*
X161521428Y-47239285D01*
X161235714Y-47167857D01*
X161092857Y-47096428D01*
X161021428Y-47025000D01*
X160950000Y-46882142D01*
X160950000Y-46739285D01*
X161021428Y-46596428D01*
X161092857Y-46525000D01*
X161235714Y-46453571D01*
X161592857Y-46453571D01*
X161807142Y-46525000D01*
X162450000Y-46453571D02*
X162450000Y-47667857D01*
X162521428Y-47810714D01*
X162592857Y-47882142D01*
X162735714Y-47953571D01*
X163021428Y-47953571D01*
X163164285Y-47882142D01*
X163235714Y-47810714D01*
X163307142Y-47667857D01*
X163307142Y-46453571D01*
X164878571Y-47953571D02*
X164378571Y-47239285D01*
X164021428Y-47953571D02*
X164021428Y-46453571D01*
X164592857Y-46453571D01*
X164735714Y-46525000D01*
X164807142Y-46596428D01*
X164878571Y-46739285D01*
X164878571Y-46953571D01*
X164807142Y-47096428D01*
X164735714Y-47167857D01*
X164592857Y-47239285D01*
X164021428Y-47239285D01*
X166592857Y-46596428D02*
X166664285Y-46525000D01*
X166807142Y-46453571D01*
X167164285Y-46453571D01*
X167307142Y-46525000D01*
X167378571Y-46596428D01*
X167450000Y-46739285D01*
X167450000Y-46882142D01*
X167378571Y-47096428D01*
X166521428Y-47953571D01*
X167450000Y-47953571D01*
X168378571Y-46453571D02*
X168521428Y-46453571D01*
X168664285Y-46525000D01*
X168735714Y-46596428D01*
X168807142Y-46739285D01*
X168878571Y-47025000D01*
X168878571Y-47382142D01*
X168807142Y-47667857D01*
X168735714Y-47810714D01*
X168664285Y-47882142D01*
X168521428Y-47953571D01*
X168378571Y-47953571D01*
X168235714Y-47882142D01*
X168164285Y-47810714D01*
X168092857Y-47667857D01*
X168021428Y-47382142D01*
X168021428Y-47025000D01*
X168092857Y-46739285D01*
X168164285Y-46596428D01*
X168235714Y-46525000D01*
X168378571Y-46453571D01*
X169450000Y-46596428D02*
X169521428Y-46525000D01*
X169664285Y-46453571D01*
X170021428Y-46453571D01*
X170164285Y-46525000D01*
X170235714Y-46596428D01*
X170307142Y-46739285D01*
X170307142Y-46882142D01*
X170235714Y-47096428D01*
X169378571Y-47953571D01*
X170307142Y-47953571D01*
X171235714Y-46453571D02*
X171378571Y-46453571D01*
X171521428Y-46525000D01*
X171592857Y-46596428D01*
X171664285Y-46739285D01*
X171735714Y-47025000D01*
X171735714Y-47382142D01*
X171664285Y-47667857D01*
X171592857Y-47810714D01*
X171521428Y-47882142D01*
X171378571Y-47953571D01*
X171235714Y-47953571D01*
X171092857Y-47882142D01*
X171021428Y-47810714D01*
X170950000Y-47667857D01*
X170878571Y-47382142D01*
X170878571Y-47025000D01*
X170950000Y-46739285D01*
X171021428Y-46596428D01*
X171092857Y-46525000D01*
X171235714Y-46453571D01*
D11*
G04 #@! TO.C,U2*
X154500000Y-52750000D02*
X154500000Y-54250000D01*
X158500000Y-52750000D02*
X158500000Y-54250000D01*
X158500000Y-55300000D02*
X158500000Y-55650000D01*
X158500000Y-55650000D02*
X154500000Y-55650000D01*
X154500000Y-55650000D02*
X154500000Y-55300000D01*
X158500000Y-55300000D02*
X160100000Y-55300000D01*
X158500000Y-51700000D02*
X158500000Y-51350000D01*
X158500000Y-51350000D02*
X154500000Y-51350000D01*
X154500000Y-51350000D02*
X154500000Y-51700000D01*
G04 #@! TO.C,3.3V_OP*
X152870000Y-47330000D02*
X152870000Y-44670000D01*
X150270000Y-47330000D02*
X152870000Y-47330000D01*
X150270000Y-44670000D02*
X152870000Y-44670000D01*
X150270000Y-47330000D02*
X150270000Y-44670000D01*
X149000000Y-47330000D02*
X147670000Y-47330000D01*
X147670000Y-47330000D02*
X147670000Y-46000000D01*
G04 #@! TO.C,SW_PWR*
X121130000Y-44670000D02*
X121130000Y-47330000D01*
X123730000Y-44670000D02*
X121130000Y-44670000D01*
X123730000Y-47330000D02*
X121130000Y-47330000D01*
X123730000Y-44670000D02*
X123730000Y-47330000D01*
X125000000Y-44670000D02*
X126330000Y-44670000D01*
X126330000Y-44670000D02*
X126330000Y-46000000D01*
G04 #@! TO.C,I2C1*
X113950000Y-47330000D02*
X113950000Y-44670000D01*
X106270000Y-47330000D02*
X113950000Y-47330000D01*
X106270000Y-44670000D02*
X113950000Y-44670000D01*
X106270000Y-47330000D02*
X106270000Y-44670000D01*
X105000000Y-47330000D02*
X103670000Y-47330000D01*
X103670000Y-47330000D02*
X103670000Y-46000000D01*
G04 #@! TO.C,I2C2*
X87670000Y-47330000D02*
X87670000Y-46000000D01*
X89000000Y-47330000D02*
X87670000Y-47330000D01*
X90270000Y-47330000D02*
X90270000Y-44670000D01*
X90270000Y-44670000D02*
X97950000Y-44670000D01*
X90270000Y-47330000D02*
X97950000Y-47330000D01*
X97950000Y-47330000D02*
X97950000Y-44670000D01*
G04 #@! TO.C,PWM0*
X90330000Y-77590000D02*
X87670000Y-77590000D01*
X90330000Y-82730000D02*
X90330000Y-77590000D01*
X87670000Y-82730000D02*
X87670000Y-77590000D01*
X90330000Y-82730000D02*
X87670000Y-82730000D01*
X90330000Y-84000000D02*
X90330000Y-85330000D01*
X90330000Y-85330000D02*
X89000000Y-85330000D01*
G04 #@! TO.C,PWM1*
X96330000Y-85330000D02*
X95000000Y-85330000D01*
X96330000Y-84000000D02*
X96330000Y-85330000D01*
X96330000Y-82730000D02*
X93670000Y-82730000D01*
X93670000Y-82730000D02*
X93670000Y-77590000D01*
X96330000Y-82730000D02*
X96330000Y-77590000D01*
X96330000Y-77590000D02*
X93670000Y-77590000D01*
G04 #@! TO.C,PWM2*
X102330000Y-77590000D02*
X99670000Y-77590000D01*
X102330000Y-82730000D02*
X102330000Y-77590000D01*
X99670000Y-82730000D02*
X99670000Y-77590000D01*
X102330000Y-82730000D02*
X99670000Y-82730000D01*
X102330000Y-84000000D02*
X102330000Y-85330000D01*
X102330000Y-85330000D02*
X101000000Y-85330000D01*
G04 #@! TO.C,PWM3*
X108330000Y-77590000D02*
X105670000Y-77590000D01*
X108330000Y-82730000D02*
X108330000Y-77590000D01*
X105670000Y-82730000D02*
X105670000Y-77590000D01*
X108330000Y-82730000D02*
X105670000Y-82730000D01*
X108330000Y-84000000D02*
X108330000Y-85330000D01*
X108330000Y-85330000D02*
X107000000Y-85330000D01*
G04 #@! TO.C,PWM4*
X114330000Y-85330000D02*
X113000000Y-85330000D01*
X114330000Y-84000000D02*
X114330000Y-85330000D01*
X114330000Y-82730000D02*
X111670000Y-82730000D01*
X111670000Y-82730000D02*
X111670000Y-77590000D01*
X114330000Y-82730000D02*
X114330000Y-77590000D01*
X114330000Y-77590000D02*
X111670000Y-77590000D01*
G04 #@! TO.C,PWM5*
X120330000Y-77590000D02*
X117670000Y-77590000D01*
X120330000Y-82730000D02*
X120330000Y-77590000D01*
X117670000Y-82730000D02*
X117670000Y-77590000D01*
X120330000Y-82730000D02*
X117670000Y-82730000D01*
X120330000Y-84000000D02*
X120330000Y-85330000D01*
X120330000Y-85330000D02*
X119000000Y-85330000D01*
G04 #@! TO.C,PWM6*
X126330000Y-85330000D02*
X125000000Y-85330000D01*
X126330000Y-84000000D02*
X126330000Y-85330000D01*
X126330000Y-82730000D02*
X123670000Y-82730000D01*
X123670000Y-82730000D02*
X123670000Y-77590000D01*
X126330000Y-82730000D02*
X126330000Y-77590000D01*
X126330000Y-77590000D02*
X123670000Y-77590000D01*
G04 #@! TO.C,PWM7*
X132330000Y-85330000D02*
X131000000Y-85330000D01*
X132330000Y-84000000D02*
X132330000Y-85330000D01*
X132330000Y-82730000D02*
X129670000Y-82730000D01*
X129670000Y-82730000D02*
X129670000Y-77590000D01*
X132330000Y-82730000D02*
X132330000Y-77590000D01*
X132330000Y-77590000D02*
X129670000Y-77590000D01*
G04 #@! TO.C,PWM8*
X138330000Y-77590000D02*
X135670000Y-77590000D01*
X138330000Y-82730000D02*
X138330000Y-77590000D01*
X135670000Y-82730000D02*
X135670000Y-77590000D01*
X138330000Y-82730000D02*
X135670000Y-82730000D01*
X138330000Y-84000000D02*
X138330000Y-85330000D01*
X138330000Y-85330000D02*
X137000000Y-85330000D01*
G04 #@! TO.C,PWM9*
X144330000Y-85330000D02*
X143000000Y-85330000D01*
X144330000Y-84000000D02*
X144330000Y-85330000D01*
X144330000Y-82730000D02*
X141670000Y-82730000D01*
X141670000Y-82730000D02*
X141670000Y-77590000D01*
X144330000Y-82730000D02*
X144330000Y-77590000D01*
X144330000Y-77590000D02*
X141670000Y-77590000D01*
G04 #@! TO.C,PWM10*
X150330000Y-77590000D02*
X147670000Y-77590000D01*
X150330000Y-82730000D02*
X150330000Y-77590000D01*
X147670000Y-82730000D02*
X147670000Y-77590000D01*
X150330000Y-82730000D02*
X147670000Y-82730000D01*
X150330000Y-84000000D02*
X150330000Y-85330000D01*
X150330000Y-85330000D02*
X149000000Y-85330000D01*
G04 #@! TO.C,PWM11*
X156330000Y-77590000D02*
X153670000Y-77590000D01*
X156330000Y-82730000D02*
X156330000Y-77590000D01*
X153670000Y-82730000D02*
X153670000Y-77590000D01*
X156330000Y-82730000D02*
X153670000Y-82730000D01*
X156330000Y-84000000D02*
X156330000Y-85330000D01*
X156330000Y-85330000D02*
X155000000Y-85330000D01*
G04 #@! TO.C,PWM12*
X162330000Y-77590000D02*
X159670000Y-77590000D01*
X162330000Y-82730000D02*
X162330000Y-77590000D01*
X159670000Y-82730000D02*
X159670000Y-77590000D01*
X162330000Y-82730000D02*
X159670000Y-82730000D01*
X162330000Y-84000000D02*
X162330000Y-85330000D01*
X162330000Y-85330000D02*
X161000000Y-85330000D01*
G04 #@! TO.C,PWM13*
X168330000Y-85330000D02*
X167000000Y-85330000D01*
X168330000Y-84000000D02*
X168330000Y-85330000D01*
X168330000Y-82730000D02*
X165670000Y-82730000D01*
X165670000Y-82730000D02*
X165670000Y-77590000D01*
X168330000Y-82730000D02*
X168330000Y-77590000D01*
X168330000Y-77590000D02*
X165670000Y-77590000D01*
G04 #@! TO.C,PWM14*
X174330000Y-85330000D02*
X173000000Y-85330000D01*
X174330000Y-84000000D02*
X174330000Y-85330000D01*
X174330000Y-82730000D02*
X171670000Y-82730000D01*
X171670000Y-82730000D02*
X171670000Y-77590000D01*
X174330000Y-82730000D02*
X174330000Y-77590000D01*
X174330000Y-77590000D02*
X171670000Y-77590000D01*
D12*
G04 #@! TO.C,U1*
G36*
X119095001Y-57155001D02*
X119349001Y-57409001D01*
X118968001Y-57663001D01*
X118714001Y-57409001D01*
X119095001Y-57155001D01*
G37*
X119095001Y-57155001D02*
X119349001Y-57409001D01*
X118968001Y-57663001D01*
X118714001Y-57409001D01*
X119095001Y-57155001D01*
G36*
X119222001Y-56393001D02*
X119476001Y-56647001D01*
X119095001Y-56901001D01*
X118841001Y-56647001D01*
X119222001Y-56393001D01*
G37*
X119222001Y-56393001D02*
X119476001Y-56647001D01*
X119095001Y-56901001D01*
X118841001Y-56647001D01*
X119222001Y-56393001D01*
G36*
X119476001Y-57536001D02*
X119730001Y-57790001D01*
X119349001Y-58044001D01*
X119095001Y-57790001D01*
X119476001Y-57536001D01*
G37*
X119476001Y-57536001D02*
X119730001Y-57790001D01*
X119349001Y-58044001D01*
X119095001Y-57790001D01*
X119476001Y-57536001D01*
G36*
X118968001Y-57917001D02*
X119222001Y-58171001D01*
X118841001Y-58425001D01*
X118587001Y-58171001D01*
X118968001Y-57917001D01*
G37*
X118968001Y-57917001D02*
X119222001Y-58171001D01*
X118841001Y-58425001D01*
X118587001Y-58171001D01*
X118968001Y-57917001D01*
G36*
X119603001Y-56774001D02*
X119857001Y-57028001D01*
X119476001Y-57282001D01*
X119222001Y-57028001D01*
X119603001Y-56774001D01*
G37*
X119603001Y-56774001D02*
X119857001Y-57028001D01*
X119476001Y-57282001D01*
X119222001Y-57028001D01*
X119603001Y-56774001D01*
G36*
X118460001Y-58298001D02*
X118714001Y-58552001D01*
X118333001Y-58806001D01*
X118079001Y-58552001D01*
X118460001Y-58298001D01*
G37*
X118460001Y-58298001D02*
X118714001Y-58552001D01*
X118333001Y-58806001D01*
X118079001Y-58552001D01*
X118460001Y-58298001D01*
G36*
X118587001Y-57536001D02*
X118841001Y-57790001D01*
X118460001Y-58044001D01*
X118206001Y-57790001D01*
X118587001Y-57536001D01*
G37*
X118587001Y-57536001D02*
X118841001Y-57790001D01*
X118460001Y-58044001D01*
X118206001Y-57790001D01*
X118587001Y-57536001D01*
G36*
X118841001Y-56012001D02*
X119095001Y-56266001D01*
X118714001Y-56520001D01*
X118460001Y-56266001D01*
X118841001Y-56012001D01*
G37*
X118841001Y-56012001D02*
X119095001Y-56266001D01*
X118714001Y-56520001D01*
X118460001Y-56266001D01*
X118841001Y-56012001D01*
D13*
X87345001Y-69855001D02*
X87345001Y-52075001D01*
X148305001Y-52075001D02*
X148305001Y-69855001D01*
X129255001Y-58425001D02*
X131795001Y-58425001D01*
X129255001Y-63505001D02*
X129255001Y-58425001D01*
X131795001Y-63505001D02*
X129255001Y-63505001D01*
X131795001Y-58425001D02*
X131795001Y-63505001D01*
X92425001Y-64775001D02*
X87345001Y-64775001D01*
X92425001Y-57155001D02*
X87345001Y-57155001D01*
X92425001Y-64775001D02*
X92425001Y-57155001D01*
X86075001Y-57155001D02*
X87345001Y-57155001D01*
X86075001Y-64775001D02*
X86075001Y-57155001D01*
X87345001Y-64775001D02*
X86075001Y-64775001D01*
X87345001Y-69855001D02*
X148305001Y-69855001D01*
X148305001Y-52075001D02*
X87345001Y-52075001D01*
X135605001Y-67315001D02*
X148305001Y-67315001D01*
X135605001Y-54615001D02*
X135605001Y-67315001D01*
X148305001Y-54615001D02*
X135605001Y-54615001D01*
X147035001Y-55885001D02*
X148305001Y-54615001D01*
X147035001Y-66045001D02*
X147035001Y-55885001D01*
X148305001Y-67315001D02*
X147035001Y-66045001D01*
X147035001Y-55885001D02*
X148305001Y-55885001D01*
X147035001Y-57155001D02*
X148305001Y-57155001D01*
X147035001Y-58425001D02*
X148305001Y-58425001D01*
X147035001Y-59695001D02*
X148305001Y-59695001D01*
X147035001Y-60965001D02*
X148305001Y-60965001D01*
X147035001Y-62235001D02*
X148305001Y-62235001D01*
X147035001Y-63505001D02*
X148305001Y-63505001D01*
X147035001Y-64775001D02*
X148305001Y-64775001D01*
X147035001Y-66045001D02*
X148305001Y-66045001D01*
X112745001Y-54615001D02*
X125445001Y-54615001D01*
X112745001Y-67315001D02*
X125445001Y-67315001D01*
X112745001Y-54615001D02*
X112745001Y-67315001D01*
X125445001Y-67315001D02*
X125445001Y-54615001D01*
X111475001Y-63505001D02*
X111475001Y-66045001D01*
X107665001Y-63505001D02*
X111475001Y-63505001D01*
X107665001Y-66045001D02*
X107665001Y-63505001D01*
X111475001Y-66045001D02*
X107665001Y-66045001D01*
X106395001Y-57155001D02*
X103855001Y-57155001D01*
X106395001Y-59695001D02*
X106395001Y-57155001D01*
X103855001Y-59695001D02*
X106395001Y-59695001D01*
X103855001Y-57155001D02*
X103855001Y-59695001D01*
D12*
G04 #@! TO.C,5V_IN*
X173000000Y-56800000D02*
X173000000Y-52100000D01*
X173000000Y-52100000D02*
X171400000Y-52100000D01*
X165000000Y-56500000D02*
X165000000Y-52300000D01*
X165000000Y-52300000D02*
X165000000Y-52200000D01*
X165000000Y-52200000D02*
X165000000Y-52100000D01*
X165000000Y-52100000D02*
X169000000Y-52100000D01*
X173000000Y-66400000D02*
X170300000Y-68400000D01*
X165000000Y-66400000D02*
X167700000Y-68400000D01*
X169000000Y-68400000D02*
X170250000Y-68400000D01*
X169000000Y-68400000D02*
X167750000Y-68400000D01*
X173000000Y-64000000D02*
X173000000Y-66400000D01*
X173000000Y-61000000D02*
X173000000Y-64000000D01*
X165000000Y-64000000D02*
X165000000Y-66400000D01*
X165000000Y-60900000D02*
X165000000Y-64000000D01*
X168900000Y-68400000D02*
X169200000Y-68400000D01*
X169000000Y-52100000D02*
X171400000Y-52100000D01*
X165000000Y-56500000D02*
X165000000Y-60900000D01*
X173000000Y-56800000D02*
X173000000Y-61000000D01*
D11*
G04 #@! TO.C,R1*
X92261252Y-49290000D02*
X91738748Y-49290000D01*
X92261252Y-50710000D02*
X91738748Y-50710000D01*
G04 #@! TO.C,R2*
X108738748Y-49290000D02*
X109261252Y-49290000D01*
X108738748Y-50710000D02*
X109261252Y-50710000D01*
G04 #@! TO.C,R3*
X158761252Y-59710000D02*
X158238748Y-59710000D01*
X158761252Y-58290000D02*
X158238748Y-58290000D01*
G04 #@! TO.C,SW*
X135130000Y-44670000D02*
X135130000Y-47330000D01*
X137730000Y-44670000D02*
X135130000Y-44670000D01*
X137730000Y-47330000D02*
X135130000Y-47330000D01*
X137730000Y-44670000D02*
X137730000Y-47330000D01*
X139000000Y-44670000D02*
X140330000Y-44670000D01*
X140330000Y-44670000D02*
X140330000Y-46000000D01*
G04 #@! TO.C,U2*
D13*
X155738095Y-56452380D02*
X155738095Y-57261904D01*
X155785714Y-57357142D01*
X155833333Y-57404761D01*
X155928571Y-57452380D01*
X156119047Y-57452380D01*
X156214285Y-57404761D01*
X156261904Y-57357142D01*
X156309523Y-57261904D01*
X156309523Y-56452380D01*
X156738095Y-56547619D02*
X156785714Y-56500000D01*
X156880952Y-56452380D01*
X157119047Y-56452380D01*
X157214285Y-56500000D01*
X157261904Y-56547619D01*
X157309523Y-56642857D01*
X157309523Y-56738095D01*
X157261904Y-56880952D01*
X156690476Y-57452380D01*
X157309523Y-57452380D01*
G04 #@! TO.C,3.3V_OP*
X147419047Y-48052380D02*
X148038095Y-48052380D01*
X147704761Y-48433333D01*
X147847619Y-48433333D01*
X147942857Y-48480952D01*
X147990476Y-48528571D01*
X148038095Y-48623809D01*
X148038095Y-48861904D01*
X147990476Y-48957142D01*
X147942857Y-49004761D01*
X147847619Y-49052380D01*
X147561904Y-49052380D01*
X147466666Y-49004761D01*
X147419047Y-48957142D01*
X148466666Y-48957142D02*
X148514285Y-49004761D01*
X148466666Y-49052380D01*
X148419047Y-49004761D01*
X148466666Y-48957142D01*
X148466666Y-49052380D01*
X148847619Y-48052380D02*
X149466666Y-48052380D01*
X149133333Y-48433333D01*
X149276190Y-48433333D01*
X149371428Y-48480952D01*
X149419047Y-48528571D01*
X149466666Y-48623809D01*
X149466666Y-48861904D01*
X149419047Y-48957142D01*
X149371428Y-49004761D01*
X149276190Y-49052380D01*
X148990476Y-49052380D01*
X148895238Y-49004761D01*
X148847619Y-48957142D01*
X149752380Y-48052380D02*
X150085714Y-49052380D01*
X150419047Y-48052380D01*
X150514285Y-49147619D02*
X151276190Y-49147619D01*
X151704761Y-48052380D02*
X151895238Y-48052380D01*
X151990476Y-48100000D01*
X152085714Y-48195238D01*
X152133333Y-48385714D01*
X152133333Y-48719047D01*
X152085714Y-48909523D01*
X151990476Y-49004761D01*
X151895238Y-49052380D01*
X151704761Y-49052380D01*
X151609523Y-49004761D01*
X151514285Y-48909523D01*
X151466666Y-48719047D01*
X151466666Y-48385714D01*
X151514285Y-48195238D01*
X151609523Y-48100000D01*
X151704761Y-48052380D01*
X152561904Y-49052380D02*
X152561904Y-48052380D01*
X152942857Y-48052380D01*
X153038095Y-48100000D01*
X153085714Y-48147619D01*
X153133333Y-48242857D01*
X153133333Y-48385714D01*
X153085714Y-48480952D01*
X153038095Y-48528571D01*
X152942857Y-48576190D01*
X152561904Y-48576190D01*
G04 #@! TO.C,SW_PWR*
X121190476Y-49204761D02*
X121333333Y-49252380D01*
X121571428Y-49252380D01*
X121666666Y-49204761D01*
X121714285Y-49157142D01*
X121761904Y-49061904D01*
X121761904Y-48966666D01*
X121714285Y-48871428D01*
X121666666Y-48823809D01*
X121571428Y-48776190D01*
X121380952Y-48728571D01*
X121285714Y-48680952D01*
X121238095Y-48633333D01*
X121190476Y-48538095D01*
X121190476Y-48442857D01*
X121238095Y-48347619D01*
X121285714Y-48300000D01*
X121380952Y-48252380D01*
X121619047Y-48252380D01*
X121761904Y-48300000D01*
X122095238Y-48252380D02*
X122333333Y-49252380D01*
X122523809Y-48538095D01*
X122714285Y-49252380D01*
X122952380Y-48252380D01*
X123095238Y-49347619D02*
X123857142Y-49347619D01*
X124095238Y-49252380D02*
X124095238Y-48252380D01*
X124476190Y-48252380D01*
X124571428Y-48300000D01*
X124619047Y-48347619D01*
X124666666Y-48442857D01*
X124666666Y-48585714D01*
X124619047Y-48680952D01*
X124571428Y-48728571D01*
X124476190Y-48776190D01*
X124095238Y-48776190D01*
X125000000Y-48252380D02*
X125238095Y-49252380D01*
X125428571Y-48538095D01*
X125619047Y-49252380D01*
X125857142Y-48252380D01*
X126809523Y-49252380D02*
X126476190Y-48776190D01*
X126238095Y-49252380D02*
X126238095Y-48252380D01*
X126619047Y-48252380D01*
X126714285Y-48300000D01*
X126761904Y-48347619D01*
X126809523Y-48442857D01*
X126809523Y-48585714D01*
X126761904Y-48680952D01*
X126714285Y-48728571D01*
X126619047Y-48776190D01*
X126238095Y-48776190D01*
G04 #@! TO.C,I2C1*
X107547619Y-48852380D02*
X107547619Y-47852380D01*
X107976190Y-47947619D02*
X108023809Y-47900000D01*
X108119047Y-47852380D01*
X108357142Y-47852380D01*
X108452380Y-47900000D01*
X108500000Y-47947619D01*
X108547619Y-48042857D01*
X108547619Y-48138095D01*
X108500000Y-48280952D01*
X107928571Y-48852380D01*
X108547619Y-48852380D01*
X109547619Y-48757142D02*
X109500000Y-48804761D01*
X109357142Y-48852380D01*
X109261904Y-48852380D01*
X109119047Y-48804761D01*
X109023809Y-48709523D01*
X108976190Y-48614285D01*
X108928571Y-48423809D01*
X108928571Y-48280952D01*
X108976190Y-48090476D01*
X109023809Y-47995238D01*
X109119047Y-47900000D01*
X109261904Y-47852380D01*
X109357142Y-47852380D01*
X109500000Y-47900000D01*
X109547619Y-47947619D01*
X110500000Y-48852380D02*
X109928571Y-48852380D01*
X110214285Y-48852380D02*
X110214285Y-47852380D01*
X110119047Y-47995238D01*
X110023809Y-48090476D01*
X109928571Y-48138095D01*
G04 #@! TO.C,I2C2*
X91147619Y-48952380D02*
X91147619Y-47952380D01*
X91576190Y-48047619D02*
X91623809Y-48000000D01*
X91719047Y-47952380D01*
X91957142Y-47952380D01*
X92052380Y-48000000D01*
X92100000Y-48047619D01*
X92147619Y-48142857D01*
X92147619Y-48238095D01*
X92100000Y-48380952D01*
X91528571Y-48952380D01*
X92147619Y-48952380D01*
X93147619Y-48857142D02*
X93100000Y-48904761D01*
X92957142Y-48952380D01*
X92861904Y-48952380D01*
X92719047Y-48904761D01*
X92623809Y-48809523D01*
X92576190Y-48714285D01*
X92528571Y-48523809D01*
X92528571Y-48380952D01*
X92576190Y-48190476D01*
X92623809Y-48095238D01*
X92719047Y-48000000D01*
X92861904Y-47952380D01*
X92957142Y-47952380D01*
X93100000Y-48000000D01*
X93147619Y-48047619D01*
X93528571Y-48047619D02*
X93576190Y-48000000D01*
X93671428Y-47952380D01*
X93909523Y-47952380D01*
X94004761Y-48000000D01*
X94052380Y-48047619D01*
X94100000Y-48142857D01*
X94100000Y-48238095D01*
X94052380Y-48380952D01*
X93480952Y-48952380D01*
X94100000Y-48952380D01*
G04 #@! TO.C,PWM0*
X86452380Y-83880952D02*
X85452380Y-83880952D01*
X85452380Y-83500000D01*
X85500000Y-83404761D01*
X85547619Y-83357142D01*
X85642857Y-83309523D01*
X85785714Y-83309523D01*
X85880952Y-83357142D01*
X85928571Y-83404761D01*
X85976190Y-83500000D01*
X85976190Y-83880952D01*
X85452380Y-82976190D02*
X86452380Y-82738095D01*
X85738095Y-82547619D01*
X86452380Y-82357142D01*
X85452380Y-82119047D01*
X86452380Y-81738095D02*
X85452380Y-81738095D01*
X86166666Y-81404761D01*
X85452380Y-81071428D01*
X86452380Y-81071428D01*
X85452380Y-80404761D02*
X85452380Y-80309523D01*
X85500000Y-80214285D01*
X85547619Y-80166666D01*
X85642857Y-80119047D01*
X85833333Y-80071428D01*
X86071428Y-80071428D01*
X86261904Y-80119047D01*
X86357142Y-80166666D01*
X86404761Y-80214285D01*
X86452380Y-80309523D01*
X86452380Y-80404761D01*
X86404761Y-80500000D01*
X86357142Y-80547619D01*
X86261904Y-80595238D01*
X86071428Y-80642857D01*
X85833333Y-80642857D01*
X85642857Y-80595238D01*
X85547619Y-80547619D01*
X85500000Y-80500000D01*
X85452380Y-80404761D01*
G04 #@! TO.C,PWM1*
X92452380Y-83880952D02*
X91452380Y-83880952D01*
X91452380Y-83500000D01*
X91500000Y-83404761D01*
X91547619Y-83357142D01*
X91642857Y-83309523D01*
X91785714Y-83309523D01*
X91880952Y-83357142D01*
X91928571Y-83404761D01*
X91976190Y-83500000D01*
X91976190Y-83880952D01*
X91452380Y-82976190D02*
X92452380Y-82738095D01*
X91738095Y-82547619D01*
X92452380Y-82357142D01*
X91452380Y-82119047D01*
X92452380Y-81738095D02*
X91452380Y-81738095D01*
X92166666Y-81404761D01*
X91452380Y-81071428D01*
X92452380Y-81071428D01*
X92452380Y-80071428D02*
X92452380Y-80642857D01*
X92452380Y-80357142D02*
X91452380Y-80357142D01*
X91595238Y-80452380D01*
X91690476Y-80547619D01*
X91738095Y-80642857D01*
G04 #@! TO.C,PWM2*
X98452380Y-83880952D02*
X97452380Y-83880952D01*
X97452380Y-83500000D01*
X97500000Y-83404761D01*
X97547619Y-83357142D01*
X97642857Y-83309523D01*
X97785714Y-83309523D01*
X97880952Y-83357142D01*
X97928571Y-83404761D01*
X97976190Y-83500000D01*
X97976190Y-83880952D01*
X97452380Y-82976190D02*
X98452380Y-82738095D01*
X97738095Y-82547619D01*
X98452380Y-82357142D01*
X97452380Y-82119047D01*
X98452380Y-81738095D02*
X97452380Y-81738095D01*
X98166666Y-81404761D01*
X97452380Y-81071428D01*
X98452380Y-81071428D01*
X97547619Y-80642857D02*
X97500000Y-80595238D01*
X97452380Y-80500000D01*
X97452380Y-80261904D01*
X97500000Y-80166666D01*
X97547619Y-80119047D01*
X97642857Y-80071428D01*
X97738095Y-80071428D01*
X97880952Y-80119047D01*
X98452380Y-80690476D01*
X98452380Y-80071428D01*
G04 #@! TO.C,PWM3*
X104452380Y-83880952D02*
X103452380Y-83880952D01*
X103452380Y-83500000D01*
X103500000Y-83404761D01*
X103547619Y-83357142D01*
X103642857Y-83309523D01*
X103785714Y-83309523D01*
X103880952Y-83357142D01*
X103928571Y-83404761D01*
X103976190Y-83500000D01*
X103976190Y-83880952D01*
X103452380Y-82976190D02*
X104452380Y-82738095D01*
X103738095Y-82547619D01*
X104452380Y-82357142D01*
X103452380Y-82119047D01*
X104452380Y-81738095D02*
X103452380Y-81738095D01*
X104166666Y-81404761D01*
X103452380Y-81071428D01*
X104452380Y-81071428D01*
X103452380Y-80690476D02*
X103452380Y-80071428D01*
X103833333Y-80404761D01*
X103833333Y-80261904D01*
X103880952Y-80166666D01*
X103928571Y-80119047D01*
X104023809Y-80071428D01*
X104261904Y-80071428D01*
X104357142Y-80119047D01*
X104404761Y-80166666D01*
X104452380Y-80261904D01*
X104452380Y-80547619D01*
X104404761Y-80642857D01*
X104357142Y-80690476D01*
G04 #@! TO.C,PWM4*
X110452380Y-83880952D02*
X109452380Y-83880952D01*
X109452380Y-83500000D01*
X109500000Y-83404761D01*
X109547619Y-83357142D01*
X109642857Y-83309523D01*
X109785714Y-83309523D01*
X109880952Y-83357142D01*
X109928571Y-83404761D01*
X109976190Y-83500000D01*
X109976190Y-83880952D01*
X109452380Y-82976190D02*
X110452380Y-82738095D01*
X109738095Y-82547619D01*
X110452380Y-82357142D01*
X109452380Y-82119047D01*
X110452380Y-81738095D02*
X109452380Y-81738095D01*
X110166666Y-81404761D01*
X109452380Y-81071428D01*
X110452380Y-81071428D01*
X109785714Y-80166666D02*
X110452380Y-80166666D01*
X109404761Y-80404761D02*
X110119047Y-80642857D01*
X110119047Y-80023809D01*
G04 #@! TO.C,PWM5*
X116452380Y-83880952D02*
X115452380Y-83880952D01*
X115452380Y-83500000D01*
X115500000Y-83404761D01*
X115547619Y-83357142D01*
X115642857Y-83309523D01*
X115785714Y-83309523D01*
X115880952Y-83357142D01*
X115928571Y-83404761D01*
X115976190Y-83500000D01*
X115976190Y-83880952D01*
X115452380Y-82976190D02*
X116452380Y-82738095D01*
X115738095Y-82547619D01*
X116452380Y-82357142D01*
X115452380Y-82119047D01*
X116452380Y-81738095D02*
X115452380Y-81738095D01*
X116166666Y-81404761D01*
X115452380Y-81071428D01*
X116452380Y-81071428D01*
X115452380Y-80119047D02*
X115452380Y-80595238D01*
X115928571Y-80642857D01*
X115880952Y-80595238D01*
X115833333Y-80500000D01*
X115833333Y-80261904D01*
X115880952Y-80166666D01*
X115928571Y-80119047D01*
X116023809Y-80071428D01*
X116261904Y-80071428D01*
X116357142Y-80119047D01*
X116404761Y-80166666D01*
X116452380Y-80261904D01*
X116452380Y-80500000D01*
X116404761Y-80595238D01*
X116357142Y-80642857D01*
G04 #@! TO.C,PWM6*
X122452380Y-83880952D02*
X121452380Y-83880952D01*
X121452380Y-83500000D01*
X121500000Y-83404761D01*
X121547619Y-83357142D01*
X121642857Y-83309523D01*
X121785714Y-83309523D01*
X121880952Y-83357142D01*
X121928571Y-83404761D01*
X121976190Y-83500000D01*
X121976190Y-83880952D01*
X121452380Y-82976190D02*
X122452380Y-82738095D01*
X121738095Y-82547619D01*
X122452380Y-82357142D01*
X121452380Y-82119047D01*
X122452380Y-81738095D02*
X121452380Y-81738095D01*
X122166666Y-81404761D01*
X121452380Y-81071428D01*
X122452380Y-81071428D01*
X121452380Y-80166666D02*
X121452380Y-80357142D01*
X121500000Y-80452380D01*
X121547619Y-80500000D01*
X121690476Y-80595238D01*
X121880952Y-80642857D01*
X122261904Y-80642857D01*
X122357142Y-80595238D01*
X122404761Y-80547619D01*
X122452380Y-80452380D01*
X122452380Y-80261904D01*
X122404761Y-80166666D01*
X122357142Y-80119047D01*
X122261904Y-80071428D01*
X122023809Y-80071428D01*
X121928571Y-80119047D01*
X121880952Y-80166666D01*
X121833333Y-80261904D01*
X121833333Y-80452380D01*
X121880952Y-80547619D01*
X121928571Y-80595238D01*
X122023809Y-80642857D01*
G04 #@! TO.C,PWM7*
X128452380Y-83880952D02*
X127452380Y-83880952D01*
X127452380Y-83500000D01*
X127500000Y-83404761D01*
X127547619Y-83357142D01*
X127642857Y-83309523D01*
X127785714Y-83309523D01*
X127880952Y-83357142D01*
X127928571Y-83404761D01*
X127976190Y-83500000D01*
X127976190Y-83880952D01*
X127452380Y-82976190D02*
X128452380Y-82738095D01*
X127738095Y-82547619D01*
X128452380Y-82357142D01*
X127452380Y-82119047D01*
X128452380Y-81738095D02*
X127452380Y-81738095D01*
X128166666Y-81404761D01*
X127452380Y-81071428D01*
X128452380Y-81071428D01*
X127452380Y-80690476D02*
X127452380Y-80023809D01*
X128452380Y-80452380D01*
G04 #@! TO.C,PWM8*
X134452380Y-83880952D02*
X133452380Y-83880952D01*
X133452380Y-83500000D01*
X133500000Y-83404761D01*
X133547619Y-83357142D01*
X133642857Y-83309523D01*
X133785714Y-83309523D01*
X133880952Y-83357142D01*
X133928571Y-83404761D01*
X133976190Y-83500000D01*
X133976190Y-83880952D01*
X133452380Y-82976190D02*
X134452380Y-82738095D01*
X133738095Y-82547619D01*
X134452380Y-82357142D01*
X133452380Y-82119047D01*
X134452380Y-81738095D02*
X133452380Y-81738095D01*
X134166666Y-81404761D01*
X133452380Y-81071428D01*
X134452380Y-81071428D01*
X133880952Y-80452380D02*
X133833333Y-80547619D01*
X133785714Y-80595238D01*
X133690476Y-80642857D01*
X133642857Y-80642857D01*
X133547619Y-80595238D01*
X133500000Y-80547619D01*
X133452380Y-80452380D01*
X133452380Y-80261904D01*
X133500000Y-80166666D01*
X133547619Y-80119047D01*
X133642857Y-80071428D01*
X133690476Y-80071428D01*
X133785714Y-80119047D01*
X133833333Y-80166666D01*
X133880952Y-80261904D01*
X133880952Y-80452380D01*
X133928571Y-80547619D01*
X133976190Y-80595238D01*
X134071428Y-80642857D01*
X134261904Y-80642857D01*
X134357142Y-80595238D01*
X134404761Y-80547619D01*
X134452380Y-80452380D01*
X134452380Y-80261904D01*
X134404761Y-80166666D01*
X134357142Y-80119047D01*
X134261904Y-80071428D01*
X134071428Y-80071428D01*
X133976190Y-80119047D01*
X133928571Y-80166666D01*
X133880952Y-80261904D01*
G04 #@! TO.C,PWM9*
X140452380Y-83880952D02*
X139452380Y-83880952D01*
X139452380Y-83500000D01*
X139500000Y-83404761D01*
X139547619Y-83357142D01*
X139642857Y-83309523D01*
X139785714Y-83309523D01*
X139880952Y-83357142D01*
X139928571Y-83404761D01*
X139976190Y-83500000D01*
X139976190Y-83880952D01*
X139452380Y-82976190D02*
X140452380Y-82738095D01*
X139738095Y-82547619D01*
X140452380Y-82357142D01*
X139452380Y-82119047D01*
X140452380Y-81738095D02*
X139452380Y-81738095D01*
X140166666Y-81404761D01*
X139452380Y-81071428D01*
X140452380Y-81071428D01*
X140452380Y-80547619D02*
X140452380Y-80357142D01*
X140404761Y-80261904D01*
X140357142Y-80214285D01*
X140214285Y-80119047D01*
X140023809Y-80071428D01*
X139642857Y-80071428D01*
X139547619Y-80119047D01*
X139500000Y-80166666D01*
X139452380Y-80261904D01*
X139452380Y-80452380D01*
X139500000Y-80547619D01*
X139547619Y-80595238D01*
X139642857Y-80642857D01*
X139880952Y-80642857D01*
X139976190Y-80595238D01*
X140023809Y-80547619D01*
X140071428Y-80452380D01*
X140071428Y-80261904D01*
X140023809Y-80166666D01*
X139976190Y-80119047D01*
X139880952Y-80071428D01*
G04 #@! TO.C,PWM10*
X146452380Y-84357142D02*
X145452380Y-84357142D01*
X145452380Y-83976190D01*
X145500000Y-83880952D01*
X145547619Y-83833333D01*
X145642857Y-83785714D01*
X145785714Y-83785714D01*
X145880952Y-83833333D01*
X145928571Y-83880952D01*
X145976190Y-83976190D01*
X145976190Y-84357142D01*
X145452380Y-83452380D02*
X146452380Y-83214285D01*
X145738095Y-83023809D01*
X146452380Y-82833333D01*
X145452380Y-82595238D01*
X146452380Y-82214285D02*
X145452380Y-82214285D01*
X146166666Y-81880952D01*
X145452380Y-81547619D01*
X146452380Y-81547619D01*
X146452380Y-80547619D02*
X146452380Y-81119047D01*
X146452380Y-80833333D02*
X145452380Y-80833333D01*
X145595238Y-80928571D01*
X145690476Y-81023809D01*
X145738095Y-81119047D01*
X145452380Y-79928571D02*
X145452380Y-79833333D01*
X145500000Y-79738095D01*
X145547619Y-79690476D01*
X145642857Y-79642857D01*
X145833333Y-79595238D01*
X146071428Y-79595238D01*
X146261904Y-79642857D01*
X146357142Y-79690476D01*
X146404761Y-79738095D01*
X146452380Y-79833333D01*
X146452380Y-79928571D01*
X146404761Y-80023809D01*
X146357142Y-80071428D01*
X146261904Y-80119047D01*
X146071428Y-80166666D01*
X145833333Y-80166666D01*
X145642857Y-80119047D01*
X145547619Y-80071428D01*
X145500000Y-80023809D01*
X145452380Y-79928571D01*
G04 #@! TO.C,PWM11*
X152452380Y-84357142D02*
X151452380Y-84357142D01*
X151452380Y-83976190D01*
X151500000Y-83880952D01*
X151547619Y-83833333D01*
X151642857Y-83785714D01*
X151785714Y-83785714D01*
X151880952Y-83833333D01*
X151928571Y-83880952D01*
X151976190Y-83976190D01*
X151976190Y-84357142D01*
X151452380Y-83452380D02*
X152452380Y-83214285D01*
X151738095Y-83023809D01*
X152452380Y-82833333D01*
X151452380Y-82595238D01*
X152452380Y-82214285D02*
X151452380Y-82214285D01*
X152166666Y-81880952D01*
X151452380Y-81547619D01*
X152452380Y-81547619D01*
X152452380Y-80547619D02*
X152452380Y-81119047D01*
X152452380Y-80833333D02*
X151452380Y-80833333D01*
X151595238Y-80928571D01*
X151690476Y-81023809D01*
X151738095Y-81119047D01*
X152452380Y-79595238D02*
X152452380Y-80166666D01*
X152452380Y-79880952D02*
X151452380Y-79880952D01*
X151595238Y-79976190D01*
X151690476Y-80071428D01*
X151738095Y-80166666D01*
G04 #@! TO.C,PWM12*
X158452380Y-84357142D02*
X157452380Y-84357142D01*
X157452380Y-83976190D01*
X157500000Y-83880952D01*
X157547619Y-83833333D01*
X157642857Y-83785714D01*
X157785714Y-83785714D01*
X157880952Y-83833333D01*
X157928571Y-83880952D01*
X157976190Y-83976190D01*
X157976190Y-84357142D01*
X157452380Y-83452380D02*
X158452380Y-83214285D01*
X157738095Y-83023809D01*
X158452380Y-82833333D01*
X157452380Y-82595238D01*
X158452380Y-82214285D02*
X157452380Y-82214285D01*
X158166666Y-81880952D01*
X157452380Y-81547619D01*
X158452380Y-81547619D01*
X158452380Y-80547619D02*
X158452380Y-81119047D01*
X158452380Y-80833333D02*
X157452380Y-80833333D01*
X157595238Y-80928571D01*
X157690476Y-81023809D01*
X157738095Y-81119047D01*
X157547619Y-80166666D02*
X157500000Y-80119047D01*
X157452380Y-80023809D01*
X157452380Y-79785714D01*
X157500000Y-79690476D01*
X157547619Y-79642857D01*
X157642857Y-79595238D01*
X157738095Y-79595238D01*
X157880952Y-79642857D01*
X158452380Y-80214285D01*
X158452380Y-79595238D01*
G04 #@! TO.C,PWM13*
X164452380Y-84357142D02*
X163452380Y-84357142D01*
X163452380Y-83976190D01*
X163500000Y-83880952D01*
X163547619Y-83833333D01*
X163642857Y-83785714D01*
X163785714Y-83785714D01*
X163880952Y-83833333D01*
X163928571Y-83880952D01*
X163976190Y-83976190D01*
X163976190Y-84357142D01*
X163452380Y-83452380D02*
X164452380Y-83214285D01*
X163738095Y-83023809D01*
X164452380Y-82833333D01*
X163452380Y-82595238D01*
X164452380Y-82214285D02*
X163452380Y-82214285D01*
X164166666Y-81880952D01*
X163452380Y-81547619D01*
X164452380Y-81547619D01*
X164452380Y-80547619D02*
X164452380Y-81119047D01*
X164452380Y-80833333D02*
X163452380Y-80833333D01*
X163595238Y-80928571D01*
X163690476Y-81023809D01*
X163738095Y-81119047D01*
X163452380Y-80214285D02*
X163452380Y-79595238D01*
X163833333Y-79928571D01*
X163833333Y-79785714D01*
X163880952Y-79690476D01*
X163928571Y-79642857D01*
X164023809Y-79595238D01*
X164261904Y-79595238D01*
X164357142Y-79642857D01*
X164404761Y-79690476D01*
X164452380Y-79785714D01*
X164452380Y-80071428D01*
X164404761Y-80166666D01*
X164357142Y-80214285D01*
G04 #@! TO.C,PWM14*
X170452380Y-84357142D02*
X169452380Y-84357142D01*
X169452380Y-83976190D01*
X169500000Y-83880952D01*
X169547619Y-83833333D01*
X169642857Y-83785714D01*
X169785714Y-83785714D01*
X169880952Y-83833333D01*
X169928571Y-83880952D01*
X169976190Y-83976190D01*
X169976190Y-84357142D01*
X169452380Y-83452380D02*
X170452380Y-83214285D01*
X169738095Y-83023809D01*
X170452380Y-82833333D01*
X169452380Y-82595238D01*
X170452380Y-82214285D02*
X169452380Y-82214285D01*
X170166666Y-81880952D01*
X169452380Y-81547619D01*
X170452380Y-81547619D01*
X170452380Y-80547619D02*
X170452380Y-81119047D01*
X170452380Y-80833333D02*
X169452380Y-80833333D01*
X169595238Y-80928571D01*
X169690476Y-81023809D01*
X169738095Y-81119047D01*
X169785714Y-79690476D02*
X170452380Y-79690476D01*
X169404761Y-79928571D02*
X170119047Y-80166666D01*
X170119047Y-79547619D01*
G04 #@! TO.C,U1*
X117063096Y-50257381D02*
X117063096Y-51066905D01*
X117110715Y-51162143D01*
X117158334Y-51209762D01*
X117253572Y-51257381D01*
X117444048Y-51257381D01*
X117539286Y-51209762D01*
X117586905Y-51162143D01*
X117634524Y-51066905D01*
X117634524Y-50257381D01*
X118634524Y-51257381D02*
X118063096Y-51257381D01*
X118348810Y-51257381D02*
X118348810Y-50257381D01*
X118253572Y-50400239D01*
X118158334Y-50495477D01*
X118063096Y-50543096D01*
X114495001Y-62424667D02*
X114495001Y-61724667D01*
X114728334Y-62224667D01*
X114961667Y-61724667D01*
X114961667Y-62424667D01*
X115295001Y-62424667D02*
X115295001Y-61724667D01*
X115695001Y-62424667D02*
X115395001Y-62024667D01*
X115695001Y-61724667D02*
X115295001Y-62124667D01*
X116295001Y-61724667D02*
X116161667Y-61724667D01*
X116095001Y-61758001D01*
X116061667Y-61791334D01*
X115995001Y-61891334D01*
X115961667Y-62024667D01*
X115961667Y-62291334D01*
X115995001Y-62358001D01*
X116028334Y-62391334D01*
X116095001Y-62424667D01*
X116228334Y-62424667D01*
X116295001Y-62391334D01*
X116328334Y-62358001D01*
X116361667Y-62291334D01*
X116361667Y-62124667D01*
X116328334Y-62058001D01*
X116295001Y-62024667D01*
X116228334Y-61991334D01*
X116095001Y-61991334D01*
X116028334Y-62024667D01*
X115995001Y-62058001D01*
X115961667Y-62124667D01*
X116961667Y-61958001D02*
X116961667Y-62424667D01*
X116795001Y-61691334D02*
X116628334Y-62191334D01*
X117061667Y-62191334D01*
X117561667Y-62058001D02*
X117328334Y-62058001D01*
X117328334Y-62424667D02*
X117328334Y-61724667D01*
X117661667Y-61724667D01*
X117861667Y-61724667D02*
X118328334Y-62424667D01*
X118328334Y-61724667D02*
X117861667Y-62424667D01*
X118928334Y-61724667D02*
X118595001Y-61724667D01*
X118561667Y-62058001D01*
X118595001Y-62024667D01*
X118661667Y-61991334D01*
X118828334Y-61991334D01*
X118895001Y-62024667D01*
X118928334Y-62058001D01*
X118961667Y-62124667D01*
X118961667Y-62291334D01*
X118928334Y-62358001D01*
X118895001Y-62391334D01*
X118828334Y-62424667D01*
X118661667Y-62424667D01*
X118595001Y-62391334D01*
X118561667Y-62358001D01*
X119628334Y-62424667D02*
X119228334Y-62424667D01*
X119428334Y-62424667D02*
X119428334Y-61724667D01*
X119361667Y-61824667D01*
X119295001Y-61891334D01*
X119228334Y-61924667D01*
X119895001Y-61791334D02*
X119928334Y-61758001D01*
X119995001Y-61724667D01*
X120161667Y-61724667D01*
X120228334Y-61758001D01*
X120261667Y-61791334D01*
X120295001Y-61858001D01*
X120295001Y-61924667D01*
X120261667Y-62024667D01*
X119861667Y-62424667D01*
X120295001Y-62424667D01*
X120495001Y-61724667D02*
X120728334Y-62424667D01*
X120961667Y-61724667D01*
X121195001Y-62424667D02*
X121195001Y-61724667D01*
X121428334Y-62224667D01*
X121661667Y-61724667D01*
X121661667Y-62424667D01*
X121995001Y-62424667D02*
X121995001Y-61724667D01*
X122161667Y-61724667D01*
X122261667Y-61758001D01*
X122328334Y-61824667D01*
X122361667Y-61891334D01*
X122395001Y-62024667D01*
X122395001Y-62124667D01*
X122361667Y-62258001D01*
X122328334Y-62324667D01*
X122261667Y-62391334D01*
X122161667Y-62424667D01*
X121995001Y-62424667D01*
X123061667Y-62424667D02*
X122661667Y-62424667D01*
X122861667Y-62424667D02*
X122861667Y-61724667D01*
X122795001Y-61824667D01*
X122728334Y-61891334D01*
X122661667Y-61924667D01*
X123328334Y-61791334D02*
X123361667Y-61758001D01*
X123428334Y-61724667D01*
X123595001Y-61724667D01*
X123661667Y-61758001D01*
X123695001Y-61791334D01*
X123728334Y-61858001D01*
X123728334Y-61924667D01*
X123695001Y-62024667D01*
X123295001Y-62424667D01*
X123728334Y-62424667D01*
X114045001Y-61281667D02*
X114045001Y-60581667D01*
X114278334Y-61081667D01*
X114511667Y-60581667D01*
X114511667Y-61281667D01*
X114845001Y-61281667D02*
X114845001Y-60581667D01*
X115245001Y-61281667D02*
X114945001Y-60881667D01*
X115245001Y-60581667D02*
X114845001Y-60981667D01*
X115845001Y-60581667D02*
X115711667Y-60581667D01*
X115645001Y-60615001D01*
X115611667Y-60648334D01*
X115545001Y-60748334D01*
X115511667Y-60881667D01*
X115511667Y-61148334D01*
X115545001Y-61215001D01*
X115578334Y-61248334D01*
X115645001Y-61281667D01*
X115778334Y-61281667D01*
X115845001Y-61248334D01*
X115878334Y-61215001D01*
X115911667Y-61148334D01*
X115911667Y-60981667D01*
X115878334Y-60915001D01*
X115845001Y-60881667D01*
X115778334Y-60848334D01*
X115645001Y-60848334D01*
X115578334Y-60881667D01*
X115545001Y-60915001D01*
X115511667Y-60981667D01*
X116511667Y-60581667D02*
X116378334Y-60581667D01*
X116311667Y-60615001D01*
X116278334Y-60648334D01*
X116211667Y-60748334D01*
X116178334Y-60881667D01*
X116178334Y-61148334D01*
X116211667Y-61215001D01*
X116245001Y-61248334D01*
X116311667Y-61281667D01*
X116445001Y-61281667D01*
X116511667Y-61248334D01*
X116545001Y-61215001D01*
X116578334Y-61148334D01*
X116578334Y-60981667D01*
X116545001Y-60915001D01*
X116511667Y-60881667D01*
X116445001Y-60848334D01*
X116311667Y-60848334D01*
X116245001Y-60881667D01*
X116211667Y-60915001D01*
X116178334Y-60981667D01*
X117111667Y-60915001D02*
X116878334Y-60915001D01*
X116878334Y-61281667D02*
X116878334Y-60581667D01*
X117211667Y-60581667D01*
X117411667Y-60581667D02*
X117878334Y-61281667D01*
X117878334Y-60581667D02*
X117411667Y-61281667D01*
X118511667Y-61281667D02*
X118111667Y-61281667D01*
X118311667Y-61281667D02*
X118311667Y-60581667D01*
X118245001Y-60681667D01*
X118178334Y-60748334D01*
X118111667Y-60781667D01*
X118811667Y-61281667D02*
X118811667Y-60581667D01*
X119045001Y-61081667D01*
X119278334Y-60581667D01*
X119278334Y-61281667D01*
X119845001Y-60915001D02*
X119945001Y-60948334D01*
X119978334Y-60981667D01*
X120011667Y-61048334D01*
X120011667Y-61148334D01*
X119978334Y-61215001D01*
X119945001Y-61248334D01*
X119878334Y-61281667D01*
X119611667Y-61281667D01*
X119611667Y-60581667D01*
X119845001Y-60581667D01*
X119911667Y-60615001D01*
X119945001Y-60648334D01*
X119978334Y-60715001D01*
X119978334Y-60781667D01*
X119945001Y-60848334D01*
X119911667Y-60881667D01*
X119845001Y-60915001D01*
X119611667Y-60915001D01*
X120211667Y-60581667D02*
X120445001Y-61281667D01*
X120678334Y-60581667D01*
X120911667Y-61281667D02*
X120911667Y-60581667D01*
X121145001Y-61081667D01*
X121378334Y-60581667D01*
X121378334Y-61281667D01*
X121711667Y-61281667D02*
X121711667Y-60581667D01*
X121878334Y-60581667D01*
X121978334Y-60615001D01*
X122045001Y-60681667D01*
X122078334Y-60748334D01*
X122111667Y-60881667D01*
X122111667Y-60981667D01*
X122078334Y-61115001D01*
X122045001Y-61181667D01*
X121978334Y-61248334D01*
X121878334Y-61281667D01*
X121711667Y-61281667D01*
X122778334Y-61281667D02*
X122378334Y-61281667D01*
X122578334Y-61281667D02*
X122578334Y-60581667D01*
X122511667Y-60681667D01*
X122445001Y-60748334D01*
X122378334Y-60781667D01*
X123178334Y-60881667D02*
X123111667Y-60848334D01*
X123078334Y-60815001D01*
X123045001Y-60748334D01*
X123045001Y-60715001D01*
X123078334Y-60648334D01*
X123111667Y-60615001D01*
X123178334Y-60581667D01*
X123311667Y-60581667D01*
X123378334Y-60615001D01*
X123411667Y-60648334D01*
X123445001Y-60715001D01*
X123445001Y-60748334D01*
X123411667Y-60815001D01*
X123378334Y-60848334D01*
X123311667Y-60881667D01*
X123178334Y-60881667D01*
X123111667Y-60915001D01*
X123078334Y-60948334D01*
X123045001Y-61015001D01*
X123045001Y-61148334D01*
X123078334Y-61215001D01*
X123111667Y-61248334D01*
X123178334Y-61281667D01*
X123311667Y-61281667D01*
X123378334Y-61248334D01*
X123411667Y-61215001D01*
X123445001Y-61148334D01*
X123445001Y-61015001D01*
X123411667Y-60948334D01*
X123378334Y-60915001D01*
X123311667Y-60881667D01*
X124245001Y-60548334D02*
X123645001Y-61448334D01*
G04 #@! TO.C,5V_IN*
X174548380Y-61777333D02*
X174548380Y-62253523D01*
X175024571Y-62301142D01*
X174976952Y-62253523D01*
X174929333Y-62158285D01*
X174929333Y-61920190D01*
X174976952Y-61824952D01*
X175024571Y-61777333D01*
X175119809Y-61729714D01*
X175357904Y-61729714D01*
X175453142Y-61777333D01*
X175500761Y-61824952D01*
X175548380Y-61920190D01*
X175548380Y-62158285D01*
X175500761Y-62253523D01*
X175453142Y-62301142D01*
X174548380Y-61444000D02*
X175548380Y-61110666D01*
X174548380Y-60777333D01*
X175643619Y-60682095D02*
X175643619Y-59920190D01*
X175548380Y-59682095D02*
X174548380Y-59682095D01*
X175548380Y-59205904D02*
X174548380Y-59205904D01*
X175548380Y-58634476D01*
X174548380Y-58634476D01*
G04 #@! TO.C,R1*
X94733333Y-50452380D02*
X94400000Y-49976190D01*
X94161904Y-50452380D02*
X94161904Y-49452380D01*
X94542857Y-49452380D01*
X94638095Y-49500000D01*
X94685714Y-49547619D01*
X94733333Y-49642857D01*
X94733333Y-49785714D01*
X94685714Y-49880952D01*
X94638095Y-49928571D01*
X94542857Y-49976190D01*
X94161904Y-49976190D01*
X95685714Y-50452380D02*
X95114285Y-50452380D01*
X95400000Y-50452380D02*
X95400000Y-49452380D01*
X95304761Y-49595238D01*
X95209523Y-49690476D01*
X95114285Y-49738095D01*
G04 #@! TO.C,R2*
X111833333Y-50452380D02*
X111500000Y-49976190D01*
X111261904Y-50452380D02*
X111261904Y-49452380D01*
X111642857Y-49452380D01*
X111738095Y-49500000D01*
X111785714Y-49547619D01*
X111833333Y-49642857D01*
X111833333Y-49785714D01*
X111785714Y-49880952D01*
X111738095Y-49928571D01*
X111642857Y-49976190D01*
X111261904Y-49976190D01*
X112214285Y-49547619D02*
X112261904Y-49500000D01*
X112357142Y-49452380D01*
X112595238Y-49452380D01*
X112690476Y-49500000D01*
X112738095Y-49547619D01*
X112785714Y-49642857D01*
X112785714Y-49738095D01*
X112738095Y-49880952D01*
X112166666Y-50452380D01*
X112785714Y-50452380D01*
G04 #@! TO.C,R3*
X158333333Y-61102380D02*
X158000000Y-60626190D01*
X157761904Y-61102380D02*
X157761904Y-60102380D01*
X158142857Y-60102380D01*
X158238095Y-60150000D01*
X158285714Y-60197619D01*
X158333333Y-60292857D01*
X158333333Y-60435714D01*
X158285714Y-60530952D01*
X158238095Y-60578571D01*
X158142857Y-60626190D01*
X157761904Y-60626190D01*
X158666666Y-60102380D02*
X159285714Y-60102380D01*
X158952380Y-60483333D01*
X159095238Y-60483333D01*
X159190476Y-60530952D01*
X159238095Y-60578571D01*
X159285714Y-60673809D01*
X159285714Y-60911904D01*
X159238095Y-61007142D01*
X159190476Y-61054761D01*
X159095238Y-61102380D01*
X158809523Y-61102380D01*
X158714285Y-61054761D01*
X158666666Y-61007142D01*
G04 #@! TO.C,SW*
X136842857Y-49004761D02*
X136985714Y-49052380D01*
X137223809Y-49052380D01*
X137319047Y-49004761D01*
X137366666Y-48957142D01*
X137414285Y-48861904D01*
X137414285Y-48766666D01*
X137366666Y-48671428D01*
X137319047Y-48623809D01*
X137223809Y-48576190D01*
X137033333Y-48528571D01*
X136938095Y-48480952D01*
X136890476Y-48433333D01*
X136842857Y-48338095D01*
X136842857Y-48242857D01*
X136890476Y-48147619D01*
X136938095Y-48100000D01*
X137033333Y-48052380D01*
X137271428Y-48052380D01*
X137414285Y-48100000D01*
X137747619Y-48052380D02*
X137985714Y-49052380D01*
X138176190Y-48338095D01*
X138366666Y-49052380D01*
X138604761Y-48052380D01*
G04 #@! TD*
D14*
G36*
X174873000Y-50873000D02*
X162127000Y-50873000D01*
X162127000Y-49127000D01*
X174873000Y-49127000D01*
X174873000Y-50873000D01*
X174873000Y-50873000D01*
G37*
X174873000Y-50873000D02*
X162127000Y-50873000D01*
X162127000Y-49127000D01*
X174873000Y-49127000D01*
X174873000Y-50873000D01*
M02*
