G04 #@! TF.GenerationSoftware,KiCad,Pcbnew,(5.0.2)-1*
G04 #@! TF.CreationDate,2019-10-18T18:51:17-07:00*
G04 #@! TF.ProjectId,Arduino Project,41726475-696e-46f2-9050-726f6a656374,rev?*
G04 #@! TF.SameCoordinates,Original*
G04 #@! TF.FileFunction,Copper,L2,Bot*
G04 #@! TF.FilePolarity,Positive*
%FSLAX46Y46*%
G04 Gerber Fmt 4.6, Leading zero omitted, Abs format (unit mm)*
G04 Created by KiCad (PCBNEW (5.0.2)-1) date 10/18/2019 6:51:17 PM*
%MOMM*%
%LPD*%
G01*
G04 APERTURE LIST*
G04 #@! TA.AperFunction,ComponentPad*
%ADD10R,1.700000X1.700000*%
G04 #@! TD*
G04 #@! TA.AperFunction,ComponentPad*
%ADD11O,1.700000X1.700000*%
G04 #@! TD*
G04 #@! TA.AperFunction,ComponentPad*
%ADD12C,1.600000*%
G04 #@! TD*
G04 #@! TA.AperFunction,ComponentPad*
%ADD13R,1.600000X1.600000*%
G04 #@! TD*
G04 #@! TA.AperFunction,ComponentPad*
%ADD14C,6.000000*%
G04 #@! TD*
G04 #@! TA.AperFunction,Conductor*
%ADD15C,0.250000*%
G04 #@! TD*
G04 #@! TA.AperFunction,Conductor*
%ADD16C,0.254000*%
G04 #@! TD*
G04 APERTURE END LIST*
D10*
G04 #@! TO.P,3.3V_OP,1*
G04 #@! TO.N,+3V3*
X149000000Y-46000000D03*
D11*
G04 #@! TO.P,3.3V_OP,2*
G04 #@! TO.N,GND*
X151540000Y-46000000D03*
G04 #@! TD*
D10*
G04 #@! TO.P,SW_PWR,1*
G04 #@! TO.N,CBEnable_5v*
X125000000Y-46000000D03*
D11*
G04 #@! TO.P,SW_PWR,2*
G04 #@! TO.N,GND*
X122460000Y-46000000D03*
G04 #@! TD*
D10*
G04 #@! TO.P,I2C1,1*
G04 #@! TO.N,+3V3*
X105000000Y-46000000D03*
D11*
G04 #@! TO.P,I2C1,2*
G04 #@! TO.N,I2C_SCL*
X107540000Y-46000000D03*
G04 #@! TO.P,I2C1,3*
G04 #@! TO.N,I2C_SDA*
X110080000Y-46000000D03*
G04 #@! TO.P,I2C1,4*
G04 #@! TO.N,GND*
X112620000Y-46000000D03*
G04 #@! TD*
G04 #@! TO.P,I2C2,4*
G04 #@! TO.N,GND*
X96620000Y-46000000D03*
G04 #@! TO.P,I2C2,3*
G04 #@! TO.N,I2C_SDA*
X94080000Y-46000000D03*
G04 #@! TO.P,I2C2,2*
G04 #@! TO.N,I2C_SCL*
X91540000Y-46000000D03*
D10*
G04 #@! TO.P,I2C2,1*
G04 #@! TO.N,+3V3*
X89000000Y-46000000D03*
G04 #@! TD*
G04 #@! TO.P,PWM0,1*
G04 #@! TO.N,PWM_0*
X89000000Y-84000000D03*
D11*
G04 #@! TO.P,PWM0,2*
G04 #@! TO.N,Net-(PWM-0-Pad2)*
X89000000Y-81460000D03*
G04 #@! TO.P,PWM0,3*
G04 #@! TO.N,GND*
X89000000Y-78920000D03*
G04 #@! TD*
G04 #@! TO.P,PWM1,3*
G04 #@! TO.N,GND*
X95000000Y-78920000D03*
G04 #@! TO.P,PWM1,2*
G04 #@! TO.N,Net-(PWM-1-Pad2)*
X95000000Y-81460000D03*
D10*
G04 #@! TO.P,PWM1,1*
G04 #@! TO.N,PWM_1*
X95000000Y-84000000D03*
G04 #@! TD*
G04 #@! TO.P,PWM2,1*
G04 #@! TO.N,PWM_2*
X101000000Y-84000000D03*
D11*
G04 #@! TO.P,PWM2,2*
G04 #@! TO.N,Net-(PWM-2-Pad2)*
X101000000Y-81460000D03*
G04 #@! TO.P,PWM2,3*
G04 #@! TO.N,GND*
X101000000Y-78920000D03*
G04 #@! TD*
D10*
G04 #@! TO.P,PWM3,1*
G04 #@! TO.N,PWM_3*
X107000000Y-84000000D03*
D11*
G04 #@! TO.P,PWM3,2*
G04 #@! TO.N,Net-(PWM-3-Pad2)*
X107000000Y-81460000D03*
G04 #@! TO.P,PWM3,3*
G04 #@! TO.N,GND*
X107000000Y-78920000D03*
G04 #@! TD*
G04 #@! TO.P,PWM4,3*
G04 #@! TO.N,GND*
X113000000Y-78920000D03*
G04 #@! TO.P,PWM4,2*
G04 #@! TO.N,Net-(PWM-4-Pad2)*
X113000000Y-81460000D03*
D10*
G04 #@! TO.P,PWM4,1*
G04 #@! TO.N,PWM_4*
X113000000Y-84000000D03*
G04 #@! TD*
G04 #@! TO.P,PWM5,1*
G04 #@! TO.N,PWM_5*
X119000000Y-84000000D03*
D11*
G04 #@! TO.P,PWM5,2*
G04 #@! TO.N,Net-(PWM-5-Pad2)*
X119000000Y-81460000D03*
G04 #@! TO.P,PWM5,3*
G04 #@! TO.N,GND*
X119000000Y-78920000D03*
G04 #@! TD*
G04 #@! TO.P,PWM6,3*
G04 #@! TO.N,GND*
X125000000Y-78920000D03*
G04 #@! TO.P,PWM6,2*
G04 #@! TO.N,Net-(PWM-6-Pad2)*
X125000000Y-81460000D03*
D10*
G04 #@! TO.P,PWM6,1*
G04 #@! TO.N,PWM_6*
X125000000Y-84000000D03*
G04 #@! TD*
D11*
G04 #@! TO.P,PWM7,3*
G04 #@! TO.N,GND*
X131000000Y-78920000D03*
G04 #@! TO.P,PWM7,2*
G04 #@! TO.N,Net-(PWM-7-Pad2)*
X131000000Y-81460000D03*
D10*
G04 #@! TO.P,PWM7,1*
G04 #@! TO.N,PWM_7*
X131000000Y-84000000D03*
G04 #@! TD*
G04 #@! TO.P,PWM8,1*
G04 #@! TO.N,PWM_8*
X137000000Y-84000000D03*
D11*
G04 #@! TO.P,PWM8,2*
G04 #@! TO.N,Net-(PWM-8-Pad2)*
X137000000Y-81460000D03*
G04 #@! TO.P,PWM8,3*
G04 #@! TO.N,GND*
X137000000Y-78920000D03*
G04 #@! TD*
G04 #@! TO.P,PWM9,3*
G04 #@! TO.N,GND*
X143000000Y-78920000D03*
G04 #@! TO.P,PWM9,2*
G04 #@! TO.N,Net-(PWM-9-Pad2)*
X143000000Y-81460000D03*
D10*
G04 #@! TO.P,PWM9,1*
G04 #@! TO.N,PWM_9*
X143000000Y-84000000D03*
G04 #@! TD*
G04 #@! TO.P,PWM10,1*
G04 #@! TO.N,PWM_10*
X149000000Y-84000000D03*
D11*
G04 #@! TO.P,PWM10,2*
G04 #@! TO.N,Net-(PWM-10-Pad2)*
X149000000Y-81460000D03*
G04 #@! TO.P,PWM10,3*
G04 #@! TO.N,GND*
X149000000Y-78920000D03*
G04 #@! TD*
D10*
G04 #@! TO.P,PWM11,1*
G04 #@! TO.N,PWM_11*
X155000000Y-84000000D03*
D11*
G04 #@! TO.P,PWM11,2*
G04 #@! TO.N,Net-(PWM-11-Pad2)*
X155000000Y-81460000D03*
G04 #@! TO.P,PWM11,3*
G04 #@! TO.N,GND*
X155000000Y-78920000D03*
G04 #@! TD*
D10*
G04 #@! TO.P,PWM12,1*
G04 #@! TO.N,PWM_12*
X161000000Y-84000000D03*
D11*
G04 #@! TO.P,PWM12,2*
G04 #@! TO.N,Net-(PWM-12-Pad2)*
X161000000Y-81460000D03*
G04 #@! TO.P,PWM12,3*
G04 #@! TO.N,GND*
X161000000Y-78920000D03*
G04 #@! TD*
G04 #@! TO.P,PWM13,3*
G04 #@! TO.N,GND*
X167000000Y-78920000D03*
G04 #@! TO.P,PWM13,2*
G04 #@! TO.N,Net-(PWM-13-Pad2)*
X167000000Y-81460000D03*
D10*
G04 #@! TO.P,PWM13,1*
G04 #@! TO.N,PWM_13*
X167000000Y-84000000D03*
G04 #@! TD*
D11*
G04 #@! TO.P,PWM14,3*
G04 #@! TO.N,GND*
X173000000Y-78920000D03*
G04 #@! TO.P,PWM14,2*
G04 #@! TO.N,Net-(PWM-14-Pad2)*
X173000000Y-81460000D03*
D10*
G04 #@! TO.P,PWM14,1*
G04 #@! TO.N,PWM_14*
X173000000Y-84000000D03*
G04 #@! TD*
D12*
G04 #@! TO.P,U1,62*
G04 #@! TO.N,N/C*
X105125001Y-65585001D03*
G04 #@! TO.P,U1,61*
X102585001Y-65585001D03*
G04 #@! TO.P,U1,60*
X100045001Y-65585001D03*
G04 #@! TO.P,U1,59*
X97505001Y-65585001D03*
G04 #@! TO.P,U1,58*
X94965001Y-65585001D03*
G04 #@! TO.P,U1,57*
G04 #@! TO.N,Net-(U1-Pad57)*
X101315001Y-55885001D03*
G04 #@! TO.P,U1,56*
G04 #@! TO.N,Net-(U1-Pad56)*
X98775001Y-55885001D03*
G04 #@! TO.P,U1,55*
G04 #@! TO.N,Net-(U1-Pad55)*
X96235001Y-55885001D03*
G04 #@! TO.P,U1,54*
G04 #@! TO.N,Net-(U1-Pad54)*
X91155001Y-55885001D03*
G04 #@! TO.P,U1,53*
G04 #@! TO.N,+5V*
X88615001Y-53345001D03*
G04 #@! TO.P,U1,52*
G04 #@! TO.N,Net-(U1-Pad52)*
X91155001Y-53345001D03*
G04 #@! TO.P,U1,51*
G04 #@! TO.N,+3V3*
X93695001Y-53345001D03*
G04 #@! TO.P,U1,50*
G04 #@! TO.N,Net-(U1-Pad50)*
X96235001Y-53345001D03*
G04 #@! TO.P,U1,49*
G04 #@! TO.N,Net-(U1-Pad49)*
X98775001Y-53345001D03*
G04 #@! TO.P,U1,48*
G04 #@! TO.N,PWM_6*
X101315001Y-53345001D03*
G04 #@! TO.P,U1,47*
G04 #@! TO.N,PWM_7*
X103855001Y-53345001D03*
G04 #@! TO.P,U1,46*
G04 #@! TO.N,I2C_SCL*
X106395001Y-53345001D03*
G04 #@! TO.P,U1,45*
G04 #@! TO.N,I2C_SDA*
X108935001Y-53345001D03*
G04 #@! TO.P,U1,44*
G04 #@! TO.N,Net-(U1-Pad44)*
X111475001Y-53345001D03*
G04 #@! TO.P,U1,43*
G04 #@! TO.N,Saftey_Switch*
X114015001Y-53345001D03*
G04 #@! TO.P,U1,42*
G04 #@! TO.N,CBEnable*
X116555001Y-53345001D03*
G04 #@! TO.P,U1,41*
G04 #@! TO.N,PWM_11*
X119095001Y-53345001D03*
G04 #@! TO.P,U1,40*
G04 #@! TO.N,Net-(U1-Pad40)*
X121635001Y-53345001D03*
G04 #@! TO.P,U1,39*
G04 #@! TO.N,Net-(U1-Pad39)*
X124175001Y-53345001D03*
G04 #@! TO.P,U1,38*
G04 #@! TO.N,Net-(U1-Pad38)*
X126715001Y-53345001D03*
D13*
G04 #@! TO.P,U1,1*
G04 #@! TO.N,Net-(U1-Pad1)*
X88615001Y-68585001D03*
D12*
G04 #@! TO.P,U1,2*
G04 #@! TO.N,Net-(U1-Pad2)*
X91155001Y-68585001D03*
G04 #@! TO.P,U1,3*
G04 #@! TO.N,Net-(U1-Pad3)*
X93695001Y-68585001D03*
G04 #@! TO.P,U1,4*
G04 #@! TO.N,PWM_0*
X96235001Y-68585001D03*
G04 #@! TO.P,U1,5*
G04 #@! TO.N,PWM_1*
X98775001Y-68585001D03*
G04 #@! TO.P,U1,6*
G04 #@! TO.N,PWM_2*
X101315001Y-68585001D03*
G04 #@! TO.P,U1,7*
G04 #@! TO.N,PWM_3*
X103855001Y-68585001D03*
G04 #@! TO.P,U1,8*
G04 #@! TO.N,Net-(U1-Pad8)*
X106395001Y-68585001D03*
G04 #@! TO.P,U1,9*
G04 #@! TO.N,Net-(U1-Pad9)*
X108935001Y-68585001D03*
G04 #@! TO.P,U1,10*
G04 #@! TO.N,Net-(U1-Pad10)*
X111475001Y-68585001D03*
G04 #@! TO.P,U1,11*
G04 #@! TO.N,PWM_4*
X114015001Y-68585001D03*
G04 #@! TO.P,U1,12*
G04 #@! TO.N,PWM_5*
X116555001Y-68585001D03*
G04 #@! TO.P,U1,13*
G04 #@! TO.N,Net-(U1-Pad13)*
X119095001Y-68585001D03*
G04 #@! TO.P,U1,37*
G04 #@! TO.N,Net-(U1-Pad37)*
X129255001Y-53345001D03*
G04 #@! TO.P,U1,36*
G04 #@! TO.N,Net-(U1-Pad36)*
X131795001Y-53345001D03*
G04 #@! TO.P,U1,35*
G04 #@! TO.N,PWM_8*
X134335001Y-53345001D03*
G04 #@! TO.P,U1,34*
G04 #@! TO.N,PWM_12*
X136875001Y-53345001D03*
G04 #@! TO.P,U1,33*
G04 #@! TO.N,PWM_13*
X139415001Y-53345001D03*
G04 #@! TO.P,U1,32*
G04 #@! TO.N,PWM_14*
X141955001Y-53345001D03*
G04 #@! TO.P,U1,31*
G04 #@! TO.N,Net-(U1-Pad31)*
X144495001Y-53345001D03*
G04 #@! TO.P,U1,30*
G04 #@! TO.N,Net-(U1-Pad30)*
X147035001Y-53345001D03*
G04 #@! TO.P,U1,29*
G04 #@! TO.N,Net-(U1-Pad29)*
X134335001Y-55885001D03*
G04 #@! TO.P,U1,28*
G04 #@! TO.N,Net-(U1-Pad28)*
X134335001Y-58425001D03*
G04 #@! TO.P,U1,27*
G04 #@! TO.N,GND*
X134335001Y-60965001D03*
G04 #@! TO.P,U1,26*
G04 #@! TO.N,+5V*
X134335001Y-63505001D03*
G04 #@! TO.P,U1,25*
G04 #@! TO.N,Net-(U1-Pad25)*
X134335001Y-66045001D03*
G04 #@! TO.P,U1,24*
G04 #@! TO.N,Net-(U1-Pad24)*
X147035001Y-68585001D03*
G04 #@! TO.P,U1,23*
G04 #@! TO.N,Net-(U1-Pad23)*
X144495001Y-68585001D03*
G04 #@! TO.P,U1,22*
G04 #@! TO.N,PWM_10*
X141955001Y-68585001D03*
G04 #@! TO.P,U1,21*
G04 #@! TO.N,PWM_9*
X139415001Y-68585001D03*
G04 #@! TO.P,U1,14*
G04 #@! TO.N,Net-(U1-Pad14)*
X121635001Y-68585001D03*
G04 #@! TO.P,U1,15*
G04 #@! TO.N,Net-(U1-Pad15)*
X124175001Y-68585001D03*
G04 #@! TO.P,U1,16*
G04 #@! TO.N,Net-(U1-Pad16)*
X126715001Y-68585001D03*
G04 #@! TO.P,U1,20*
G04 #@! TO.N,Net-(U1-Pad20)*
X136875001Y-68585001D03*
G04 #@! TO.P,U1,19*
G04 #@! TO.N,Net-(U1-Pad19)*
X134335001Y-68585001D03*
G04 #@! TO.P,U1,18*
G04 #@! TO.N,Net-(U1-Pad18)*
X131795001Y-68585001D03*
G04 #@! TO.P,U1,17*
G04 #@! TO.N,Net-(U1-Pad17)*
X129255001Y-68585001D03*
G04 #@! TD*
D14*
G04 #@! TO.P,5V_IN,1*
G04 #@! TO.N,+5V*
X169000000Y-64000000D03*
G04 #@! TO.P,5V_IN,2*
G04 #@! TO.N,GND*
X169000000Y-56500000D03*
G04 #@! TD*
D10*
G04 #@! TO.P,SW,1*
G04 #@! TO.N,+3V3*
X139000000Y-46000000D03*
D11*
G04 #@! TO.P,SW,2*
G04 #@! TO.N,Saftey_Switch*
X136460000Y-46000000D03*
G04 #@! TD*
D15*
G04 #@! TO.N,+3V3*
X93695001Y-53345001D02*
X93695001Y-52304999D01*
X93695001Y-52304999D02*
X97500000Y-48500000D01*
X97500000Y-48500000D02*
X105000000Y-48500000D01*
X139000000Y-47000000D02*
X139000000Y-46000000D01*
X105000000Y-48500000D02*
X137500000Y-48500000D01*
X137500000Y-48500000D02*
X139000000Y-47000000D01*
X105000000Y-46000000D02*
X105000000Y-48500000D01*
G04 #@! TO.N,+5V*
X134335001Y-63505001D02*
X89505001Y-63505001D01*
X88615001Y-62615001D02*
X88615001Y-53345001D01*
X89505001Y-63505001D02*
X88615001Y-62615001D01*
X134335001Y-63505001D02*
X168505001Y-63505001D01*
X168505001Y-63505001D02*
X169000000Y-64000000D01*
G04 #@! TD*
D16*
G04 #@! TO.N,GND*
G36*
X176290000Y-87290000D02*
X85710000Y-87290000D01*
X85710000Y-81460000D01*
X87485908Y-81460000D01*
X87601161Y-82039418D01*
X87929375Y-82530625D01*
X87947619Y-82542816D01*
X87902235Y-82551843D01*
X87692191Y-82692191D01*
X87551843Y-82902235D01*
X87502560Y-83150000D01*
X87502560Y-84850000D01*
X87551843Y-85097765D01*
X87692191Y-85307809D01*
X87902235Y-85448157D01*
X88150000Y-85497440D01*
X89850000Y-85497440D01*
X90097765Y-85448157D01*
X90307809Y-85307809D01*
X90448157Y-85097765D01*
X90497440Y-84850000D01*
X90497440Y-83150000D01*
X90448157Y-82902235D01*
X90307809Y-82692191D01*
X90097765Y-82551843D01*
X90052381Y-82542816D01*
X90070625Y-82530625D01*
X90398839Y-82039418D01*
X90514092Y-81460000D01*
X93485908Y-81460000D01*
X93601161Y-82039418D01*
X93929375Y-82530625D01*
X93947619Y-82542816D01*
X93902235Y-82551843D01*
X93692191Y-82692191D01*
X93551843Y-82902235D01*
X93502560Y-83150000D01*
X93502560Y-84850000D01*
X93551843Y-85097765D01*
X93692191Y-85307809D01*
X93902235Y-85448157D01*
X94150000Y-85497440D01*
X95850000Y-85497440D01*
X96097765Y-85448157D01*
X96307809Y-85307809D01*
X96448157Y-85097765D01*
X96497440Y-84850000D01*
X96497440Y-83150000D01*
X96448157Y-82902235D01*
X96307809Y-82692191D01*
X96097765Y-82551843D01*
X96052381Y-82542816D01*
X96070625Y-82530625D01*
X96398839Y-82039418D01*
X96514092Y-81460000D01*
X99485908Y-81460000D01*
X99601161Y-82039418D01*
X99929375Y-82530625D01*
X99947619Y-82542816D01*
X99902235Y-82551843D01*
X99692191Y-82692191D01*
X99551843Y-82902235D01*
X99502560Y-83150000D01*
X99502560Y-84850000D01*
X99551843Y-85097765D01*
X99692191Y-85307809D01*
X99902235Y-85448157D01*
X100150000Y-85497440D01*
X101850000Y-85497440D01*
X102097765Y-85448157D01*
X102307809Y-85307809D01*
X102448157Y-85097765D01*
X102497440Y-84850000D01*
X102497440Y-83150000D01*
X102448157Y-82902235D01*
X102307809Y-82692191D01*
X102097765Y-82551843D01*
X102052381Y-82542816D01*
X102070625Y-82530625D01*
X102398839Y-82039418D01*
X102514092Y-81460000D01*
X105485908Y-81460000D01*
X105601161Y-82039418D01*
X105929375Y-82530625D01*
X105947619Y-82542816D01*
X105902235Y-82551843D01*
X105692191Y-82692191D01*
X105551843Y-82902235D01*
X105502560Y-83150000D01*
X105502560Y-84850000D01*
X105551843Y-85097765D01*
X105692191Y-85307809D01*
X105902235Y-85448157D01*
X106150000Y-85497440D01*
X107850000Y-85497440D01*
X108097765Y-85448157D01*
X108307809Y-85307809D01*
X108448157Y-85097765D01*
X108497440Y-84850000D01*
X108497440Y-83150000D01*
X108448157Y-82902235D01*
X108307809Y-82692191D01*
X108097765Y-82551843D01*
X108052381Y-82542816D01*
X108070625Y-82530625D01*
X108398839Y-82039418D01*
X108514092Y-81460000D01*
X111485908Y-81460000D01*
X111601161Y-82039418D01*
X111929375Y-82530625D01*
X111947619Y-82542816D01*
X111902235Y-82551843D01*
X111692191Y-82692191D01*
X111551843Y-82902235D01*
X111502560Y-83150000D01*
X111502560Y-84850000D01*
X111551843Y-85097765D01*
X111692191Y-85307809D01*
X111902235Y-85448157D01*
X112150000Y-85497440D01*
X113850000Y-85497440D01*
X114097765Y-85448157D01*
X114307809Y-85307809D01*
X114448157Y-85097765D01*
X114497440Y-84850000D01*
X114497440Y-83150000D01*
X114448157Y-82902235D01*
X114307809Y-82692191D01*
X114097765Y-82551843D01*
X114052381Y-82542816D01*
X114070625Y-82530625D01*
X114398839Y-82039418D01*
X114514092Y-81460000D01*
X117485908Y-81460000D01*
X117601161Y-82039418D01*
X117929375Y-82530625D01*
X117947619Y-82542816D01*
X117902235Y-82551843D01*
X117692191Y-82692191D01*
X117551843Y-82902235D01*
X117502560Y-83150000D01*
X117502560Y-84850000D01*
X117551843Y-85097765D01*
X117692191Y-85307809D01*
X117902235Y-85448157D01*
X118150000Y-85497440D01*
X119850000Y-85497440D01*
X120097765Y-85448157D01*
X120307809Y-85307809D01*
X120448157Y-85097765D01*
X120497440Y-84850000D01*
X120497440Y-83150000D01*
X120448157Y-82902235D01*
X120307809Y-82692191D01*
X120097765Y-82551843D01*
X120052381Y-82542816D01*
X120070625Y-82530625D01*
X120398839Y-82039418D01*
X120514092Y-81460000D01*
X123485908Y-81460000D01*
X123601161Y-82039418D01*
X123929375Y-82530625D01*
X123947619Y-82542816D01*
X123902235Y-82551843D01*
X123692191Y-82692191D01*
X123551843Y-82902235D01*
X123502560Y-83150000D01*
X123502560Y-84850000D01*
X123551843Y-85097765D01*
X123692191Y-85307809D01*
X123902235Y-85448157D01*
X124150000Y-85497440D01*
X125850000Y-85497440D01*
X126097765Y-85448157D01*
X126307809Y-85307809D01*
X126448157Y-85097765D01*
X126497440Y-84850000D01*
X126497440Y-83150000D01*
X126448157Y-82902235D01*
X126307809Y-82692191D01*
X126097765Y-82551843D01*
X126052381Y-82542816D01*
X126070625Y-82530625D01*
X126398839Y-82039418D01*
X126514092Y-81460000D01*
X129485908Y-81460000D01*
X129601161Y-82039418D01*
X129929375Y-82530625D01*
X129947619Y-82542816D01*
X129902235Y-82551843D01*
X129692191Y-82692191D01*
X129551843Y-82902235D01*
X129502560Y-83150000D01*
X129502560Y-84850000D01*
X129551843Y-85097765D01*
X129692191Y-85307809D01*
X129902235Y-85448157D01*
X130150000Y-85497440D01*
X131850000Y-85497440D01*
X132097765Y-85448157D01*
X132307809Y-85307809D01*
X132448157Y-85097765D01*
X132497440Y-84850000D01*
X132497440Y-83150000D01*
X132448157Y-82902235D01*
X132307809Y-82692191D01*
X132097765Y-82551843D01*
X132052381Y-82542816D01*
X132070625Y-82530625D01*
X132398839Y-82039418D01*
X132514092Y-81460000D01*
X135485908Y-81460000D01*
X135601161Y-82039418D01*
X135929375Y-82530625D01*
X135947619Y-82542816D01*
X135902235Y-82551843D01*
X135692191Y-82692191D01*
X135551843Y-82902235D01*
X135502560Y-83150000D01*
X135502560Y-84850000D01*
X135551843Y-85097765D01*
X135692191Y-85307809D01*
X135902235Y-85448157D01*
X136150000Y-85497440D01*
X137850000Y-85497440D01*
X138097765Y-85448157D01*
X138307809Y-85307809D01*
X138448157Y-85097765D01*
X138497440Y-84850000D01*
X138497440Y-83150000D01*
X138448157Y-82902235D01*
X138307809Y-82692191D01*
X138097765Y-82551843D01*
X138052381Y-82542816D01*
X138070625Y-82530625D01*
X138398839Y-82039418D01*
X138514092Y-81460000D01*
X141485908Y-81460000D01*
X141601161Y-82039418D01*
X141929375Y-82530625D01*
X141947619Y-82542816D01*
X141902235Y-82551843D01*
X141692191Y-82692191D01*
X141551843Y-82902235D01*
X141502560Y-83150000D01*
X141502560Y-84850000D01*
X141551843Y-85097765D01*
X141692191Y-85307809D01*
X141902235Y-85448157D01*
X142150000Y-85497440D01*
X143850000Y-85497440D01*
X144097765Y-85448157D01*
X144307809Y-85307809D01*
X144448157Y-85097765D01*
X144497440Y-84850000D01*
X144497440Y-83150000D01*
X144448157Y-82902235D01*
X144307809Y-82692191D01*
X144097765Y-82551843D01*
X144052381Y-82542816D01*
X144070625Y-82530625D01*
X144398839Y-82039418D01*
X144514092Y-81460000D01*
X147485908Y-81460000D01*
X147601161Y-82039418D01*
X147929375Y-82530625D01*
X147947619Y-82542816D01*
X147902235Y-82551843D01*
X147692191Y-82692191D01*
X147551843Y-82902235D01*
X147502560Y-83150000D01*
X147502560Y-84850000D01*
X147551843Y-85097765D01*
X147692191Y-85307809D01*
X147902235Y-85448157D01*
X148150000Y-85497440D01*
X149850000Y-85497440D01*
X150097765Y-85448157D01*
X150307809Y-85307809D01*
X150448157Y-85097765D01*
X150497440Y-84850000D01*
X150497440Y-83150000D01*
X150448157Y-82902235D01*
X150307809Y-82692191D01*
X150097765Y-82551843D01*
X150052381Y-82542816D01*
X150070625Y-82530625D01*
X150398839Y-82039418D01*
X150514092Y-81460000D01*
X153485908Y-81460000D01*
X153601161Y-82039418D01*
X153929375Y-82530625D01*
X153947619Y-82542816D01*
X153902235Y-82551843D01*
X153692191Y-82692191D01*
X153551843Y-82902235D01*
X153502560Y-83150000D01*
X153502560Y-84850000D01*
X153551843Y-85097765D01*
X153692191Y-85307809D01*
X153902235Y-85448157D01*
X154150000Y-85497440D01*
X155850000Y-85497440D01*
X156097765Y-85448157D01*
X156307809Y-85307809D01*
X156448157Y-85097765D01*
X156497440Y-84850000D01*
X156497440Y-83150000D01*
X156448157Y-82902235D01*
X156307809Y-82692191D01*
X156097765Y-82551843D01*
X156052381Y-82542816D01*
X156070625Y-82530625D01*
X156398839Y-82039418D01*
X156514092Y-81460000D01*
X159485908Y-81460000D01*
X159601161Y-82039418D01*
X159929375Y-82530625D01*
X159947619Y-82542816D01*
X159902235Y-82551843D01*
X159692191Y-82692191D01*
X159551843Y-82902235D01*
X159502560Y-83150000D01*
X159502560Y-84850000D01*
X159551843Y-85097765D01*
X159692191Y-85307809D01*
X159902235Y-85448157D01*
X160150000Y-85497440D01*
X161850000Y-85497440D01*
X162097765Y-85448157D01*
X162307809Y-85307809D01*
X162448157Y-85097765D01*
X162497440Y-84850000D01*
X162497440Y-83150000D01*
X162448157Y-82902235D01*
X162307809Y-82692191D01*
X162097765Y-82551843D01*
X162052381Y-82542816D01*
X162070625Y-82530625D01*
X162398839Y-82039418D01*
X162514092Y-81460000D01*
X165485908Y-81460000D01*
X165601161Y-82039418D01*
X165929375Y-82530625D01*
X165947619Y-82542816D01*
X165902235Y-82551843D01*
X165692191Y-82692191D01*
X165551843Y-82902235D01*
X165502560Y-83150000D01*
X165502560Y-84850000D01*
X165551843Y-85097765D01*
X165692191Y-85307809D01*
X165902235Y-85448157D01*
X166150000Y-85497440D01*
X167850000Y-85497440D01*
X168097765Y-85448157D01*
X168307809Y-85307809D01*
X168448157Y-85097765D01*
X168497440Y-84850000D01*
X168497440Y-83150000D01*
X168448157Y-82902235D01*
X168307809Y-82692191D01*
X168097765Y-82551843D01*
X168052381Y-82542816D01*
X168070625Y-82530625D01*
X168398839Y-82039418D01*
X168514092Y-81460000D01*
X171485908Y-81460000D01*
X171601161Y-82039418D01*
X171929375Y-82530625D01*
X171947619Y-82542816D01*
X171902235Y-82551843D01*
X171692191Y-82692191D01*
X171551843Y-82902235D01*
X171502560Y-83150000D01*
X171502560Y-84850000D01*
X171551843Y-85097765D01*
X171692191Y-85307809D01*
X171902235Y-85448157D01*
X172150000Y-85497440D01*
X173850000Y-85497440D01*
X174097765Y-85448157D01*
X174307809Y-85307809D01*
X174448157Y-85097765D01*
X174497440Y-84850000D01*
X174497440Y-83150000D01*
X174448157Y-82902235D01*
X174307809Y-82692191D01*
X174097765Y-82551843D01*
X174052381Y-82542816D01*
X174070625Y-82530625D01*
X174398839Y-82039418D01*
X174514092Y-81460000D01*
X174398839Y-80880582D01*
X174070625Y-80389375D01*
X173751522Y-80176157D01*
X173881358Y-80115183D01*
X174271645Y-79686924D01*
X174441476Y-79276890D01*
X174320155Y-79047000D01*
X173127000Y-79047000D01*
X173127000Y-79067000D01*
X172873000Y-79067000D01*
X172873000Y-79047000D01*
X171679845Y-79047000D01*
X171558524Y-79276890D01*
X171728355Y-79686924D01*
X172118642Y-80115183D01*
X172248478Y-80176157D01*
X171929375Y-80389375D01*
X171601161Y-80880582D01*
X171485908Y-81460000D01*
X168514092Y-81460000D01*
X168398839Y-80880582D01*
X168070625Y-80389375D01*
X167751522Y-80176157D01*
X167881358Y-80115183D01*
X168271645Y-79686924D01*
X168441476Y-79276890D01*
X168320155Y-79047000D01*
X167127000Y-79047000D01*
X167127000Y-79067000D01*
X166873000Y-79067000D01*
X166873000Y-79047000D01*
X165679845Y-79047000D01*
X165558524Y-79276890D01*
X165728355Y-79686924D01*
X166118642Y-80115183D01*
X166248478Y-80176157D01*
X165929375Y-80389375D01*
X165601161Y-80880582D01*
X165485908Y-81460000D01*
X162514092Y-81460000D01*
X162398839Y-80880582D01*
X162070625Y-80389375D01*
X161751522Y-80176157D01*
X161881358Y-80115183D01*
X162271645Y-79686924D01*
X162441476Y-79276890D01*
X162320155Y-79047000D01*
X161127000Y-79047000D01*
X161127000Y-79067000D01*
X160873000Y-79067000D01*
X160873000Y-79047000D01*
X159679845Y-79047000D01*
X159558524Y-79276890D01*
X159728355Y-79686924D01*
X160118642Y-80115183D01*
X160248478Y-80176157D01*
X159929375Y-80389375D01*
X159601161Y-80880582D01*
X159485908Y-81460000D01*
X156514092Y-81460000D01*
X156398839Y-80880582D01*
X156070625Y-80389375D01*
X155751522Y-80176157D01*
X155881358Y-80115183D01*
X156271645Y-79686924D01*
X156441476Y-79276890D01*
X156320155Y-79047000D01*
X155127000Y-79047000D01*
X155127000Y-79067000D01*
X154873000Y-79067000D01*
X154873000Y-79047000D01*
X153679845Y-79047000D01*
X153558524Y-79276890D01*
X153728355Y-79686924D01*
X154118642Y-80115183D01*
X154248478Y-80176157D01*
X153929375Y-80389375D01*
X153601161Y-80880582D01*
X153485908Y-81460000D01*
X150514092Y-81460000D01*
X150398839Y-80880582D01*
X150070625Y-80389375D01*
X149751522Y-80176157D01*
X149881358Y-80115183D01*
X150271645Y-79686924D01*
X150441476Y-79276890D01*
X150320155Y-79047000D01*
X149127000Y-79047000D01*
X149127000Y-79067000D01*
X148873000Y-79067000D01*
X148873000Y-79047000D01*
X147679845Y-79047000D01*
X147558524Y-79276890D01*
X147728355Y-79686924D01*
X148118642Y-80115183D01*
X148248478Y-80176157D01*
X147929375Y-80389375D01*
X147601161Y-80880582D01*
X147485908Y-81460000D01*
X144514092Y-81460000D01*
X144398839Y-80880582D01*
X144070625Y-80389375D01*
X143751522Y-80176157D01*
X143881358Y-80115183D01*
X144271645Y-79686924D01*
X144441476Y-79276890D01*
X144320155Y-79047000D01*
X143127000Y-79047000D01*
X143127000Y-79067000D01*
X142873000Y-79067000D01*
X142873000Y-79047000D01*
X141679845Y-79047000D01*
X141558524Y-79276890D01*
X141728355Y-79686924D01*
X142118642Y-80115183D01*
X142248478Y-80176157D01*
X141929375Y-80389375D01*
X141601161Y-80880582D01*
X141485908Y-81460000D01*
X138514092Y-81460000D01*
X138398839Y-80880582D01*
X138070625Y-80389375D01*
X137751522Y-80176157D01*
X137881358Y-80115183D01*
X138271645Y-79686924D01*
X138441476Y-79276890D01*
X138320155Y-79047000D01*
X137127000Y-79047000D01*
X137127000Y-79067000D01*
X136873000Y-79067000D01*
X136873000Y-79047000D01*
X135679845Y-79047000D01*
X135558524Y-79276890D01*
X135728355Y-79686924D01*
X136118642Y-80115183D01*
X136248478Y-80176157D01*
X135929375Y-80389375D01*
X135601161Y-80880582D01*
X135485908Y-81460000D01*
X132514092Y-81460000D01*
X132398839Y-80880582D01*
X132070625Y-80389375D01*
X131751522Y-80176157D01*
X131881358Y-80115183D01*
X132271645Y-79686924D01*
X132441476Y-79276890D01*
X132320155Y-79047000D01*
X131127000Y-79047000D01*
X131127000Y-79067000D01*
X130873000Y-79067000D01*
X130873000Y-79047000D01*
X129679845Y-79047000D01*
X129558524Y-79276890D01*
X129728355Y-79686924D01*
X130118642Y-80115183D01*
X130248478Y-80176157D01*
X129929375Y-80389375D01*
X129601161Y-80880582D01*
X129485908Y-81460000D01*
X126514092Y-81460000D01*
X126398839Y-80880582D01*
X126070625Y-80389375D01*
X125751522Y-80176157D01*
X125881358Y-80115183D01*
X126271645Y-79686924D01*
X126441476Y-79276890D01*
X126320155Y-79047000D01*
X125127000Y-79047000D01*
X125127000Y-79067000D01*
X124873000Y-79067000D01*
X124873000Y-79047000D01*
X123679845Y-79047000D01*
X123558524Y-79276890D01*
X123728355Y-79686924D01*
X124118642Y-80115183D01*
X124248478Y-80176157D01*
X123929375Y-80389375D01*
X123601161Y-80880582D01*
X123485908Y-81460000D01*
X120514092Y-81460000D01*
X120398839Y-80880582D01*
X120070625Y-80389375D01*
X119751522Y-80176157D01*
X119881358Y-80115183D01*
X120271645Y-79686924D01*
X120441476Y-79276890D01*
X120320155Y-79047000D01*
X119127000Y-79047000D01*
X119127000Y-79067000D01*
X118873000Y-79067000D01*
X118873000Y-79047000D01*
X117679845Y-79047000D01*
X117558524Y-79276890D01*
X117728355Y-79686924D01*
X118118642Y-80115183D01*
X118248478Y-80176157D01*
X117929375Y-80389375D01*
X117601161Y-80880582D01*
X117485908Y-81460000D01*
X114514092Y-81460000D01*
X114398839Y-80880582D01*
X114070625Y-80389375D01*
X113751522Y-80176157D01*
X113881358Y-80115183D01*
X114271645Y-79686924D01*
X114441476Y-79276890D01*
X114320155Y-79047000D01*
X113127000Y-79047000D01*
X113127000Y-79067000D01*
X112873000Y-79067000D01*
X112873000Y-79047000D01*
X111679845Y-79047000D01*
X111558524Y-79276890D01*
X111728355Y-79686924D01*
X112118642Y-80115183D01*
X112248478Y-80176157D01*
X111929375Y-80389375D01*
X111601161Y-80880582D01*
X111485908Y-81460000D01*
X108514092Y-81460000D01*
X108398839Y-80880582D01*
X108070625Y-80389375D01*
X107751522Y-80176157D01*
X107881358Y-80115183D01*
X108271645Y-79686924D01*
X108441476Y-79276890D01*
X108320155Y-79047000D01*
X107127000Y-79047000D01*
X107127000Y-79067000D01*
X106873000Y-79067000D01*
X106873000Y-79047000D01*
X105679845Y-79047000D01*
X105558524Y-79276890D01*
X105728355Y-79686924D01*
X106118642Y-80115183D01*
X106248478Y-80176157D01*
X105929375Y-80389375D01*
X105601161Y-80880582D01*
X105485908Y-81460000D01*
X102514092Y-81460000D01*
X102398839Y-80880582D01*
X102070625Y-80389375D01*
X101751522Y-80176157D01*
X101881358Y-80115183D01*
X102271645Y-79686924D01*
X102441476Y-79276890D01*
X102320155Y-79047000D01*
X101127000Y-79047000D01*
X101127000Y-79067000D01*
X100873000Y-79067000D01*
X100873000Y-79047000D01*
X99679845Y-79047000D01*
X99558524Y-79276890D01*
X99728355Y-79686924D01*
X100118642Y-80115183D01*
X100248478Y-80176157D01*
X99929375Y-80389375D01*
X99601161Y-80880582D01*
X99485908Y-81460000D01*
X96514092Y-81460000D01*
X96398839Y-80880582D01*
X96070625Y-80389375D01*
X95751522Y-80176157D01*
X95881358Y-80115183D01*
X96271645Y-79686924D01*
X96441476Y-79276890D01*
X96320155Y-79047000D01*
X95127000Y-79047000D01*
X95127000Y-79067000D01*
X94873000Y-79067000D01*
X94873000Y-79047000D01*
X93679845Y-79047000D01*
X93558524Y-79276890D01*
X93728355Y-79686924D01*
X94118642Y-80115183D01*
X94248478Y-80176157D01*
X93929375Y-80389375D01*
X93601161Y-80880582D01*
X93485908Y-81460000D01*
X90514092Y-81460000D01*
X90398839Y-80880582D01*
X90070625Y-80389375D01*
X89751522Y-80176157D01*
X89881358Y-80115183D01*
X90271645Y-79686924D01*
X90441476Y-79276890D01*
X90320155Y-79047000D01*
X89127000Y-79047000D01*
X89127000Y-79067000D01*
X88873000Y-79067000D01*
X88873000Y-79047000D01*
X87679845Y-79047000D01*
X87558524Y-79276890D01*
X87728355Y-79686924D01*
X88118642Y-80115183D01*
X88248478Y-80176157D01*
X87929375Y-80389375D01*
X87601161Y-80880582D01*
X87485908Y-81460000D01*
X85710000Y-81460000D01*
X85710000Y-78563110D01*
X87558524Y-78563110D01*
X87679845Y-78793000D01*
X88873000Y-78793000D01*
X88873000Y-77599181D01*
X89127000Y-77599181D01*
X89127000Y-78793000D01*
X90320155Y-78793000D01*
X90441476Y-78563110D01*
X93558524Y-78563110D01*
X93679845Y-78793000D01*
X94873000Y-78793000D01*
X94873000Y-77599181D01*
X95127000Y-77599181D01*
X95127000Y-78793000D01*
X96320155Y-78793000D01*
X96441476Y-78563110D01*
X99558524Y-78563110D01*
X99679845Y-78793000D01*
X100873000Y-78793000D01*
X100873000Y-77599181D01*
X101127000Y-77599181D01*
X101127000Y-78793000D01*
X102320155Y-78793000D01*
X102441476Y-78563110D01*
X105558524Y-78563110D01*
X105679845Y-78793000D01*
X106873000Y-78793000D01*
X106873000Y-77599181D01*
X107127000Y-77599181D01*
X107127000Y-78793000D01*
X108320155Y-78793000D01*
X108441476Y-78563110D01*
X111558524Y-78563110D01*
X111679845Y-78793000D01*
X112873000Y-78793000D01*
X112873000Y-77599181D01*
X113127000Y-77599181D01*
X113127000Y-78793000D01*
X114320155Y-78793000D01*
X114441476Y-78563110D01*
X117558524Y-78563110D01*
X117679845Y-78793000D01*
X118873000Y-78793000D01*
X118873000Y-77599181D01*
X119127000Y-77599181D01*
X119127000Y-78793000D01*
X120320155Y-78793000D01*
X120441476Y-78563110D01*
X123558524Y-78563110D01*
X123679845Y-78793000D01*
X124873000Y-78793000D01*
X124873000Y-77599181D01*
X125127000Y-77599181D01*
X125127000Y-78793000D01*
X126320155Y-78793000D01*
X126441476Y-78563110D01*
X129558524Y-78563110D01*
X129679845Y-78793000D01*
X130873000Y-78793000D01*
X130873000Y-77599181D01*
X131127000Y-77599181D01*
X131127000Y-78793000D01*
X132320155Y-78793000D01*
X132441476Y-78563110D01*
X135558524Y-78563110D01*
X135679845Y-78793000D01*
X136873000Y-78793000D01*
X136873000Y-77599181D01*
X137127000Y-77599181D01*
X137127000Y-78793000D01*
X138320155Y-78793000D01*
X138441476Y-78563110D01*
X141558524Y-78563110D01*
X141679845Y-78793000D01*
X142873000Y-78793000D01*
X142873000Y-77599181D01*
X143127000Y-77599181D01*
X143127000Y-78793000D01*
X144320155Y-78793000D01*
X144441476Y-78563110D01*
X147558524Y-78563110D01*
X147679845Y-78793000D01*
X148873000Y-78793000D01*
X148873000Y-77599181D01*
X149127000Y-77599181D01*
X149127000Y-78793000D01*
X150320155Y-78793000D01*
X150441476Y-78563110D01*
X153558524Y-78563110D01*
X153679845Y-78793000D01*
X154873000Y-78793000D01*
X154873000Y-77599181D01*
X155127000Y-77599181D01*
X155127000Y-78793000D01*
X156320155Y-78793000D01*
X156441476Y-78563110D01*
X159558524Y-78563110D01*
X159679845Y-78793000D01*
X160873000Y-78793000D01*
X160873000Y-77599181D01*
X161127000Y-77599181D01*
X161127000Y-78793000D01*
X162320155Y-78793000D01*
X162441476Y-78563110D01*
X165558524Y-78563110D01*
X165679845Y-78793000D01*
X166873000Y-78793000D01*
X166873000Y-77599181D01*
X167127000Y-77599181D01*
X167127000Y-78793000D01*
X168320155Y-78793000D01*
X168441476Y-78563110D01*
X171558524Y-78563110D01*
X171679845Y-78793000D01*
X172873000Y-78793000D01*
X172873000Y-77599181D01*
X173127000Y-77599181D01*
X173127000Y-78793000D01*
X174320155Y-78793000D01*
X174441476Y-78563110D01*
X174271645Y-78153076D01*
X173881358Y-77724817D01*
X173356892Y-77478514D01*
X173127000Y-77599181D01*
X172873000Y-77599181D01*
X172643108Y-77478514D01*
X172118642Y-77724817D01*
X171728355Y-78153076D01*
X171558524Y-78563110D01*
X168441476Y-78563110D01*
X168271645Y-78153076D01*
X167881358Y-77724817D01*
X167356892Y-77478514D01*
X167127000Y-77599181D01*
X166873000Y-77599181D01*
X166643108Y-77478514D01*
X166118642Y-77724817D01*
X165728355Y-78153076D01*
X165558524Y-78563110D01*
X162441476Y-78563110D01*
X162271645Y-78153076D01*
X161881358Y-77724817D01*
X161356892Y-77478514D01*
X161127000Y-77599181D01*
X160873000Y-77599181D01*
X160643108Y-77478514D01*
X160118642Y-77724817D01*
X159728355Y-78153076D01*
X159558524Y-78563110D01*
X156441476Y-78563110D01*
X156271645Y-78153076D01*
X155881358Y-77724817D01*
X155356892Y-77478514D01*
X155127000Y-77599181D01*
X154873000Y-77599181D01*
X154643108Y-77478514D01*
X154118642Y-77724817D01*
X153728355Y-78153076D01*
X153558524Y-78563110D01*
X150441476Y-78563110D01*
X150271645Y-78153076D01*
X149881358Y-77724817D01*
X149356892Y-77478514D01*
X149127000Y-77599181D01*
X148873000Y-77599181D01*
X148643108Y-77478514D01*
X148118642Y-77724817D01*
X147728355Y-78153076D01*
X147558524Y-78563110D01*
X144441476Y-78563110D01*
X144271645Y-78153076D01*
X143881358Y-77724817D01*
X143356892Y-77478514D01*
X143127000Y-77599181D01*
X142873000Y-77599181D01*
X142643108Y-77478514D01*
X142118642Y-77724817D01*
X141728355Y-78153076D01*
X141558524Y-78563110D01*
X138441476Y-78563110D01*
X138271645Y-78153076D01*
X137881358Y-77724817D01*
X137356892Y-77478514D01*
X137127000Y-77599181D01*
X136873000Y-77599181D01*
X136643108Y-77478514D01*
X136118642Y-77724817D01*
X135728355Y-78153076D01*
X135558524Y-78563110D01*
X132441476Y-78563110D01*
X132271645Y-78153076D01*
X131881358Y-77724817D01*
X131356892Y-77478514D01*
X131127000Y-77599181D01*
X130873000Y-77599181D01*
X130643108Y-77478514D01*
X130118642Y-77724817D01*
X129728355Y-78153076D01*
X129558524Y-78563110D01*
X126441476Y-78563110D01*
X126271645Y-78153076D01*
X125881358Y-77724817D01*
X125356892Y-77478514D01*
X125127000Y-77599181D01*
X124873000Y-77599181D01*
X124643108Y-77478514D01*
X124118642Y-77724817D01*
X123728355Y-78153076D01*
X123558524Y-78563110D01*
X120441476Y-78563110D01*
X120271645Y-78153076D01*
X119881358Y-77724817D01*
X119356892Y-77478514D01*
X119127000Y-77599181D01*
X118873000Y-77599181D01*
X118643108Y-77478514D01*
X118118642Y-77724817D01*
X117728355Y-78153076D01*
X117558524Y-78563110D01*
X114441476Y-78563110D01*
X114271645Y-78153076D01*
X113881358Y-77724817D01*
X113356892Y-77478514D01*
X113127000Y-77599181D01*
X112873000Y-77599181D01*
X112643108Y-77478514D01*
X112118642Y-77724817D01*
X111728355Y-78153076D01*
X111558524Y-78563110D01*
X108441476Y-78563110D01*
X108271645Y-78153076D01*
X107881358Y-77724817D01*
X107356892Y-77478514D01*
X107127000Y-77599181D01*
X106873000Y-77599181D01*
X106643108Y-77478514D01*
X106118642Y-77724817D01*
X105728355Y-78153076D01*
X105558524Y-78563110D01*
X102441476Y-78563110D01*
X102271645Y-78153076D01*
X101881358Y-77724817D01*
X101356892Y-77478514D01*
X101127000Y-77599181D01*
X100873000Y-77599181D01*
X100643108Y-77478514D01*
X100118642Y-77724817D01*
X99728355Y-78153076D01*
X99558524Y-78563110D01*
X96441476Y-78563110D01*
X96271645Y-78153076D01*
X95881358Y-77724817D01*
X95356892Y-77478514D01*
X95127000Y-77599181D01*
X94873000Y-77599181D01*
X94643108Y-77478514D01*
X94118642Y-77724817D01*
X93728355Y-78153076D01*
X93558524Y-78563110D01*
X90441476Y-78563110D01*
X90271645Y-78153076D01*
X89881358Y-77724817D01*
X89356892Y-77478514D01*
X89127000Y-77599181D01*
X88873000Y-77599181D01*
X88643108Y-77478514D01*
X88118642Y-77724817D01*
X87728355Y-78153076D01*
X87558524Y-78563110D01*
X85710000Y-78563110D01*
X85710000Y-67785001D01*
X87167561Y-67785001D01*
X87167561Y-69385001D01*
X87216844Y-69632766D01*
X87357192Y-69842810D01*
X87567236Y-69983158D01*
X87815001Y-70032441D01*
X89415001Y-70032441D01*
X89662766Y-69983158D01*
X89872810Y-69842810D01*
X90013158Y-69632766D01*
X90039739Y-69499135D01*
X90342139Y-69801535D01*
X90869562Y-70020001D01*
X91440440Y-70020001D01*
X91967863Y-69801535D01*
X92371535Y-69397863D01*
X92425001Y-69268785D01*
X92478467Y-69397863D01*
X92882139Y-69801535D01*
X93409562Y-70020001D01*
X93980440Y-70020001D01*
X94507863Y-69801535D01*
X94911535Y-69397863D01*
X94965001Y-69268785D01*
X95018467Y-69397863D01*
X95422139Y-69801535D01*
X95949562Y-70020001D01*
X96520440Y-70020001D01*
X97047863Y-69801535D01*
X97451535Y-69397863D01*
X97505001Y-69268785D01*
X97558467Y-69397863D01*
X97962139Y-69801535D01*
X98489562Y-70020001D01*
X99060440Y-70020001D01*
X99587863Y-69801535D01*
X99991535Y-69397863D01*
X100045001Y-69268785D01*
X100098467Y-69397863D01*
X100502139Y-69801535D01*
X101029562Y-70020001D01*
X101600440Y-70020001D01*
X102127863Y-69801535D01*
X102531535Y-69397863D01*
X102585001Y-69268785D01*
X102638467Y-69397863D01*
X103042139Y-69801535D01*
X103569562Y-70020001D01*
X104140440Y-70020001D01*
X104667863Y-69801535D01*
X105071535Y-69397863D01*
X105125001Y-69268785D01*
X105178467Y-69397863D01*
X105582139Y-69801535D01*
X106109562Y-70020001D01*
X106680440Y-70020001D01*
X107207863Y-69801535D01*
X107611535Y-69397863D01*
X107665001Y-69268785D01*
X107718467Y-69397863D01*
X108122139Y-69801535D01*
X108649562Y-70020001D01*
X109220440Y-70020001D01*
X109747863Y-69801535D01*
X110151535Y-69397863D01*
X110205001Y-69268785D01*
X110258467Y-69397863D01*
X110662139Y-69801535D01*
X111189562Y-70020001D01*
X111760440Y-70020001D01*
X112287863Y-69801535D01*
X112691535Y-69397863D01*
X112745001Y-69268785D01*
X112798467Y-69397863D01*
X113202139Y-69801535D01*
X113729562Y-70020001D01*
X114300440Y-70020001D01*
X114827863Y-69801535D01*
X115231535Y-69397863D01*
X115285001Y-69268785D01*
X115338467Y-69397863D01*
X115742139Y-69801535D01*
X116269562Y-70020001D01*
X116840440Y-70020001D01*
X117367863Y-69801535D01*
X117771535Y-69397863D01*
X117825001Y-69268785D01*
X117878467Y-69397863D01*
X118282139Y-69801535D01*
X118809562Y-70020001D01*
X119380440Y-70020001D01*
X119907863Y-69801535D01*
X120311535Y-69397863D01*
X120365001Y-69268785D01*
X120418467Y-69397863D01*
X120822139Y-69801535D01*
X121349562Y-70020001D01*
X121920440Y-70020001D01*
X122447863Y-69801535D01*
X122851535Y-69397863D01*
X122905001Y-69268785D01*
X122958467Y-69397863D01*
X123362139Y-69801535D01*
X123889562Y-70020001D01*
X124460440Y-70020001D01*
X124987863Y-69801535D01*
X125391535Y-69397863D01*
X125445001Y-69268785D01*
X125498467Y-69397863D01*
X125902139Y-69801535D01*
X126429562Y-70020001D01*
X127000440Y-70020001D01*
X127527863Y-69801535D01*
X127931535Y-69397863D01*
X127985001Y-69268785D01*
X128038467Y-69397863D01*
X128442139Y-69801535D01*
X128969562Y-70020001D01*
X129540440Y-70020001D01*
X130067863Y-69801535D01*
X130471535Y-69397863D01*
X130525001Y-69268785D01*
X130578467Y-69397863D01*
X130982139Y-69801535D01*
X131509562Y-70020001D01*
X132080440Y-70020001D01*
X132607863Y-69801535D01*
X133011535Y-69397863D01*
X133065001Y-69268785D01*
X133118467Y-69397863D01*
X133522139Y-69801535D01*
X134049562Y-70020001D01*
X134620440Y-70020001D01*
X135147863Y-69801535D01*
X135551535Y-69397863D01*
X135605001Y-69268785D01*
X135658467Y-69397863D01*
X136062139Y-69801535D01*
X136589562Y-70020001D01*
X137160440Y-70020001D01*
X137687863Y-69801535D01*
X138091535Y-69397863D01*
X138145001Y-69268785D01*
X138198467Y-69397863D01*
X138602139Y-69801535D01*
X139129562Y-70020001D01*
X139700440Y-70020001D01*
X140227863Y-69801535D01*
X140631535Y-69397863D01*
X140685001Y-69268785D01*
X140738467Y-69397863D01*
X141142139Y-69801535D01*
X141669562Y-70020001D01*
X142240440Y-70020001D01*
X142767863Y-69801535D01*
X143171535Y-69397863D01*
X143225001Y-69268785D01*
X143278467Y-69397863D01*
X143682139Y-69801535D01*
X144209562Y-70020001D01*
X144780440Y-70020001D01*
X145307863Y-69801535D01*
X145711535Y-69397863D01*
X145765001Y-69268785D01*
X145818467Y-69397863D01*
X146222139Y-69801535D01*
X146749562Y-70020001D01*
X147320440Y-70020001D01*
X147847863Y-69801535D01*
X148251535Y-69397863D01*
X148470001Y-68870440D01*
X148470001Y-68299562D01*
X148251535Y-67772139D01*
X147847863Y-67368467D01*
X147320440Y-67150001D01*
X146749562Y-67150001D01*
X146222139Y-67368467D01*
X145818467Y-67772139D01*
X145765001Y-67901217D01*
X145711535Y-67772139D01*
X145307863Y-67368467D01*
X144780440Y-67150001D01*
X144209562Y-67150001D01*
X143682139Y-67368467D01*
X143278467Y-67772139D01*
X143225001Y-67901217D01*
X143171535Y-67772139D01*
X142767863Y-67368467D01*
X142240440Y-67150001D01*
X141669562Y-67150001D01*
X141142139Y-67368467D01*
X140738467Y-67772139D01*
X140685001Y-67901217D01*
X140631535Y-67772139D01*
X140227863Y-67368467D01*
X139700440Y-67150001D01*
X139129562Y-67150001D01*
X138602139Y-67368467D01*
X138198467Y-67772139D01*
X138145001Y-67901217D01*
X138091535Y-67772139D01*
X137687863Y-67368467D01*
X137160440Y-67150001D01*
X136589562Y-67150001D01*
X136062139Y-67368467D01*
X135658467Y-67772139D01*
X135605001Y-67901217D01*
X135551535Y-67772139D01*
X135147863Y-67368467D01*
X135018785Y-67315001D01*
X135147863Y-67261535D01*
X135551535Y-66857863D01*
X135770001Y-66330440D01*
X135770001Y-65759562D01*
X135551535Y-65232139D01*
X135147863Y-64828467D01*
X135018785Y-64775001D01*
X135147863Y-64721535D01*
X135551535Y-64317863D01*
X135573431Y-64265001D01*
X165365000Y-64265001D01*
X165365000Y-64723046D01*
X165918396Y-66059062D01*
X166940938Y-67081604D01*
X168276954Y-67635000D01*
X169723046Y-67635000D01*
X171059062Y-67081604D01*
X172081604Y-66059062D01*
X172635000Y-64723046D01*
X172635000Y-63276954D01*
X172081604Y-61940938D01*
X171059062Y-60918396D01*
X169723046Y-60365000D01*
X168276954Y-60365000D01*
X166940938Y-60918396D01*
X165918396Y-61940938D01*
X165585342Y-62745001D01*
X135573431Y-62745001D01*
X135551535Y-62692139D01*
X135147863Y-62288467D01*
X135034418Y-62241476D01*
X135089006Y-62218865D01*
X135163140Y-61972746D01*
X134335001Y-61144606D01*
X133506862Y-61972746D01*
X133580996Y-62218865D01*
X133639449Y-62239875D01*
X133522139Y-62288467D01*
X133118467Y-62692139D01*
X133096571Y-62745001D01*
X89819803Y-62745001D01*
X89375001Y-62300200D01*
X89375001Y-60748224D01*
X132888036Y-60748224D01*
X132915223Y-61318455D01*
X133081137Y-61719006D01*
X133327256Y-61793140D01*
X134155396Y-60965001D01*
X134514606Y-60965001D01*
X135342746Y-61793140D01*
X135588865Y-61719006D01*
X135781966Y-61181778D01*
X135754779Y-60611547D01*
X135588865Y-60210996D01*
X135342746Y-60136862D01*
X134514606Y-60965001D01*
X134155396Y-60965001D01*
X133327256Y-60136862D01*
X133081137Y-60210996D01*
X132888036Y-60748224D01*
X89375001Y-60748224D01*
X89375001Y-54583431D01*
X89427863Y-54561535D01*
X89831535Y-54157863D01*
X89885001Y-54028785D01*
X89938467Y-54157863D01*
X90342139Y-54561535D01*
X90471217Y-54615001D01*
X90342139Y-54668467D01*
X89938467Y-55072139D01*
X89720001Y-55599562D01*
X89720001Y-56170440D01*
X89938467Y-56697863D01*
X90342139Y-57101535D01*
X90869562Y-57320001D01*
X91440440Y-57320001D01*
X91967863Y-57101535D01*
X92371535Y-56697863D01*
X92590001Y-56170440D01*
X92590001Y-55599562D01*
X92371535Y-55072139D01*
X91967863Y-54668467D01*
X91838785Y-54615001D01*
X91967863Y-54561535D01*
X92371535Y-54157863D01*
X92425001Y-54028785D01*
X92478467Y-54157863D01*
X92882139Y-54561535D01*
X93409562Y-54780001D01*
X93980440Y-54780001D01*
X94507863Y-54561535D01*
X94911535Y-54157863D01*
X94965001Y-54028785D01*
X95018467Y-54157863D01*
X95422139Y-54561535D01*
X95551217Y-54615001D01*
X95422139Y-54668467D01*
X95018467Y-55072139D01*
X94800001Y-55599562D01*
X94800001Y-56170440D01*
X95018467Y-56697863D01*
X95422139Y-57101535D01*
X95949562Y-57320001D01*
X96520440Y-57320001D01*
X97047863Y-57101535D01*
X97451535Y-56697863D01*
X97505001Y-56568785D01*
X97558467Y-56697863D01*
X97962139Y-57101535D01*
X98489562Y-57320001D01*
X99060440Y-57320001D01*
X99587863Y-57101535D01*
X99991535Y-56697863D01*
X100045001Y-56568785D01*
X100098467Y-56697863D01*
X100502139Y-57101535D01*
X101029562Y-57320001D01*
X101600440Y-57320001D01*
X102127863Y-57101535D01*
X102531535Y-56697863D01*
X102750001Y-56170440D01*
X102750001Y-55599562D01*
X102531535Y-55072139D01*
X102127863Y-54668467D01*
X101998785Y-54615001D01*
X102127863Y-54561535D01*
X102531535Y-54157863D01*
X102585001Y-54028785D01*
X102638467Y-54157863D01*
X103042139Y-54561535D01*
X103569562Y-54780001D01*
X104140440Y-54780001D01*
X104667863Y-54561535D01*
X105071535Y-54157863D01*
X105125001Y-54028785D01*
X105178467Y-54157863D01*
X105582139Y-54561535D01*
X106109562Y-54780001D01*
X106680440Y-54780001D01*
X107207863Y-54561535D01*
X107611535Y-54157863D01*
X107665001Y-54028785D01*
X107718467Y-54157863D01*
X108122139Y-54561535D01*
X108649562Y-54780001D01*
X109220440Y-54780001D01*
X109747863Y-54561535D01*
X110151535Y-54157863D01*
X110205001Y-54028785D01*
X110258467Y-54157863D01*
X110662139Y-54561535D01*
X111189562Y-54780001D01*
X111760440Y-54780001D01*
X112287863Y-54561535D01*
X112691535Y-54157863D01*
X112745001Y-54028785D01*
X112798467Y-54157863D01*
X113202139Y-54561535D01*
X113729562Y-54780001D01*
X114300440Y-54780001D01*
X114827863Y-54561535D01*
X115231535Y-54157863D01*
X115285001Y-54028785D01*
X115338467Y-54157863D01*
X115742139Y-54561535D01*
X116269562Y-54780001D01*
X116840440Y-54780001D01*
X117367863Y-54561535D01*
X117771535Y-54157863D01*
X117825001Y-54028785D01*
X117878467Y-54157863D01*
X118282139Y-54561535D01*
X118809562Y-54780001D01*
X119380440Y-54780001D01*
X119907863Y-54561535D01*
X120311535Y-54157863D01*
X120365001Y-54028785D01*
X120418467Y-54157863D01*
X120822139Y-54561535D01*
X121349562Y-54780001D01*
X121920440Y-54780001D01*
X122447863Y-54561535D01*
X122851535Y-54157863D01*
X122905001Y-54028785D01*
X122958467Y-54157863D01*
X123362139Y-54561535D01*
X123889562Y-54780001D01*
X124460440Y-54780001D01*
X124987863Y-54561535D01*
X125391535Y-54157863D01*
X125445001Y-54028785D01*
X125498467Y-54157863D01*
X125902139Y-54561535D01*
X126429562Y-54780001D01*
X127000440Y-54780001D01*
X127527863Y-54561535D01*
X127931535Y-54157863D01*
X127985001Y-54028785D01*
X128038467Y-54157863D01*
X128442139Y-54561535D01*
X128969562Y-54780001D01*
X129540440Y-54780001D01*
X130067863Y-54561535D01*
X130471535Y-54157863D01*
X130525001Y-54028785D01*
X130578467Y-54157863D01*
X130982139Y-54561535D01*
X131509562Y-54780001D01*
X132080440Y-54780001D01*
X132607863Y-54561535D01*
X133011535Y-54157863D01*
X133065001Y-54028785D01*
X133118467Y-54157863D01*
X133522139Y-54561535D01*
X133651217Y-54615001D01*
X133522139Y-54668467D01*
X133118467Y-55072139D01*
X132900001Y-55599562D01*
X132900001Y-56170440D01*
X133118467Y-56697863D01*
X133522139Y-57101535D01*
X133651217Y-57155001D01*
X133522139Y-57208467D01*
X133118467Y-57612139D01*
X132900001Y-58139562D01*
X132900001Y-58710440D01*
X133118467Y-59237863D01*
X133522139Y-59641535D01*
X133635584Y-59688526D01*
X133580996Y-59711137D01*
X133506862Y-59957256D01*
X134335001Y-60785396D01*
X135163140Y-59957256D01*
X135089006Y-59711137D01*
X135030553Y-59690127D01*
X135147863Y-59641535D01*
X135551535Y-59237863D01*
X135610035Y-59096630D01*
X166582975Y-59096630D01*
X166925566Y-59571277D01*
X168258800Y-60131342D01*
X169704875Y-60138568D01*
X171043639Y-59591854D01*
X171074434Y-59571277D01*
X171417025Y-59096630D01*
X169000000Y-56679605D01*
X166582975Y-59096630D01*
X135610035Y-59096630D01*
X135770001Y-58710440D01*
X135770001Y-58139562D01*
X135551535Y-57612139D01*
X135147863Y-57208467D01*
X135139192Y-57204875D01*
X165361432Y-57204875D01*
X165908146Y-58543639D01*
X165928723Y-58574434D01*
X166403370Y-58917025D01*
X168820395Y-56500000D01*
X169179605Y-56500000D01*
X171596630Y-58917025D01*
X172071277Y-58574434D01*
X172631342Y-57241200D01*
X172638568Y-55795125D01*
X172091854Y-54456361D01*
X172071277Y-54425566D01*
X171596630Y-54082975D01*
X169179605Y-56500000D01*
X168820395Y-56500000D01*
X166403370Y-54082975D01*
X165928723Y-54425566D01*
X165368658Y-55758800D01*
X165361432Y-57204875D01*
X135139192Y-57204875D01*
X135018785Y-57155001D01*
X135147863Y-57101535D01*
X135551535Y-56697863D01*
X135770001Y-56170440D01*
X135770001Y-55599562D01*
X135551535Y-55072139D01*
X135147863Y-54668467D01*
X135018785Y-54615001D01*
X135147863Y-54561535D01*
X135551535Y-54157863D01*
X135605001Y-54028785D01*
X135658467Y-54157863D01*
X136062139Y-54561535D01*
X136589562Y-54780001D01*
X137160440Y-54780001D01*
X137687863Y-54561535D01*
X138091535Y-54157863D01*
X138145001Y-54028785D01*
X138198467Y-54157863D01*
X138602139Y-54561535D01*
X139129562Y-54780001D01*
X139700440Y-54780001D01*
X140227863Y-54561535D01*
X140631535Y-54157863D01*
X140685001Y-54028785D01*
X140738467Y-54157863D01*
X141142139Y-54561535D01*
X141669562Y-54780001D01*
X142240440Y-54780001D01*
X142767863Y-54561535D01*
X143171535Y-54157863D01*
X143225001Y-54028785D01*
X143278467Y-54157863D01*
X143682139Y-54561535D01*
X144209562Y-54780001D01*
X144780440Y-54780001D01*
X145307863Y-54561535D01*
X145711535Y-54157863D01*
X145765001Y-54028785D01*
X145818467Y-54157863D01*
X146222139Y-54561535D01*
X146749562Y-54780001D01*
X147320440Y-54780001D01*
X147847863Y-54561535D01*
X148251535Y-54157863D01*
X148356949Y-53903370D01*
X166582975Y-53903370D01*
X169000000Y-56320395D01*
X171417025Y-53903370D01*
X171074434Y-53428723D01*
X169741200Y-52868658D01*
X168295125Y-52861432D01*
X166956361Y-53408146D01*
X166925566Y-53428723D01*
X166582975Y-53903370D01*
X148356949Y-53903370D01*
X148470001Y-53630440D01*
X148470001Y-53059562D01*
X148251535Y-52532139D01*
X147847863Y-52128467D01*
X147320440Y-51910001D01*
X146749562Y-51910001D01*
X146222139Y-52128467D01*
X145818467Y-52532139D01*
X145765001Y-52661217D01*
X145711535Y-52532139D01*
X145307863Y-52128467D01*
X144780440Y-51910001D01*
X144209562Y-51910001D01*
X143682139Y-52128467D01*
X143278467Y-52532139D01*
X143225001Y-52661217D01*
X143171535Y-52532139D01*
X142767863Y-52128467D01*
X142240440Y-51910001D01*
X141669562Y-51910001D01*
X141142139Y-52128467D01*
X140738467Y-52532139D01*
X140685001Y-52661217D01*
X140631535Y-52532139D01*
X140227863Y-52128467D01*
X139700440Y-51910001D01*
X139129562Y-51910001D01*
X138602139Y-52128467D01*
X138198467Y-52532139D01*
X138145001Y-52661217D01*
X138091535Y-52532139D01*
X137687863Y-52128467D01*
X137160440Y-51910001D01*
X136589562Y-51910001D01*
X136062139Y-52128467D01*
X135658467Y-52532139D01*
X135605001Y-52661217D01*
X135551535Y-52532139D01*
X135147863Y-52128467D01*
X134620440Y-51910001D01*
X134049562Y-51910001D01*
X133522139Y-52128467D01*
X133118467Y-52532139D01*
X133065001Y-52661217D01*
X133011535Y-52532139D01*
X132607863Y-52128467D01*
X132080440Y-51910001D01*
X131509562Y-51910001D01*
X130982139Y-52128467D01*
X130578467Y-52532139D01*
X130525001Y-52661217D01*
X130471535Y-52532139D01*
X130067863Y-52128467D01*
X129540440Y-51910001D01*
X128969562Y-51910001D01*
X128442139Y-52128467D01*
X128038467Y-52532139D01*
X127985001Y-52661217D01*
X127931535Y-52532139D01*
X127527863Y-52128467D01*
X127000440Y-51910001D01*
X126429562Y-51910001D01*
X125902139Y-52128467D01*
X125498467Y-52532139D01*
X125445001Y-52661217D01*
X125391535Y-52532139D01*
X124987863Y-52128467D01*
X124460440Y-51910001D01*
X123889562Y-51910001D01*
X123362139Y-52128467D01*
X122958467Y-52532139D01*
X122905001Y-52661217D01*
X122851535Y-52532139D01*
X122447863Y-52128467D01*
X121920440Y-51910001D01*
X121349562Y-51910001D01*
X120822139Y-52128467D01*
X120418467Y-52532139D01*
X120365001Y-52661217D01*
X120311535Y-52532139D01*
X119907863Y-52128467D01*
X119380440Y-51910001D01*
X118809562Y-51910001D01*
X118282139Y-52128467D01*
X117878467Y-52532139D01*
X117825001Y-52661217D01*
X117771535Y-52532139D01*
X117367863Y-52128467D01*
X116840440Y-51910001D01*
X116269562Y-51910001D01*
X115742139Y-52128467D01*
X115338467Y-52532139D01*
X115285001Y-52661217D01*
X115231535Y-52532139D01*
X114827863Y-52128467D01*
X114300440Y-51910001D01*
X113729562Y-51910001D01*
X113202139Y-52128467D01*
X112798467Y-52532139D01*
X112745001Y-52661217D01*
X112691535Y-52532139D01*
X112287863Y-52128467D01*
X111760440Y-51910001D01*
X111189562Y-51910001D01*
X110662139Y-52128467D01*
X110258467Y-52532139D01*
X110205001Y-52661217D01*
X110151535Y-52532139D01*
X109747863Y-52128467D01*
X109220440Y-51910001D01*
X108649562Y-51910001D01*
X108122139Y-52128467D01*
X107718467Y-52532139D01*
X107665001Y-52661217D01*
X107611535Y-52532139D01*
X107207863Y-52128467D01*
X106680440Y-51910001D01*
X106109562Y-51910001D01*
X105582139Y-52128467D01*
X105178467Y-52532139D01*
X105125001Y-52661217D01*
X105071535Y-52532139D01*
X104667863Y-52128467D01*
X104140440Y-51910001D01*
X103569562Y-51910001D01*
X103042139Y-52128467D01*
X102638467Y-52532139D01*
X102585001Y-52661217D01*
X102531535Y-52532139D01*
X102127863Y-52128467D01*
X101600440Y-51910001D01*
X101029562Y-51910001D01*
X100502139Y-52128467D01*
X100098467Y-52532139D01*
X100045001Y-52661217D01*
X99991535Y-52532139D01*
X99587863Y-52128467D01*
X99060440Y-51910001D01*
X98489562Y-51910001D01*
X97962139Y-52128467D01*
X97558467Y-52532139D01*
X97505001Y-52661217D01*
X97451535Y-52532139D01*
X97047863Y-52128467D01*
X96520440Y-51910001D01*
X95949562Y-51910001D01*
X95422139Y-52128467D01*
X95018467Y-52532139D01*
X94965001Y-52661217D01*
X94911535Y-52532139D01*
X94727099Y-52347703D01*
X97814802Y-49260000D01*
X104925148Y-49260000D01*
X105000000Y-49274889D01*
X105074852Y-49260000D01*
X137425153Y-49260000D01*
X137500000Y-49274888D01*
X137574847Y-49260000D01*
X137574852Y-49260000D01*
X137796537Y-49215904D01*
X138047929Y-49047929D01*
X138090331Y-48984470D01*
X139484476Y-47590327D01*
X139547929Y-47547929D01*
X139581665Y-47497440D01*
X139850000Y-47497440D01*
X140097765Y-47448157D01*
X140307809Y-47307809D01*
X140448157Y-47097765D01*
X140497440Y-46850000D01*
X140497440Y-45150000D01*
X147502560Y-45150000D01*
X147502560Y-46850000D01*
X147551843Y-47097765D01*
X147692191Y-47307809D01*
X147902235Y-47448157D01*
X148150000Y-47497440D01*
X149850000Y-47497440D01*
X150097765Y-47448157D01*
X150307809Y-47307809D01*
X150448157Y-47097765D01*
X150468739Y-46994292D01*
X150773076Y-47271645D01*
X151183110Y-47441476D01*
X151413000Y-47320155D01*
X151413000Y-46127000D01*
X151667000Y-46127000D01*
X151667000Y-47320155D01*
X151896890Y-47441476D01*
X152306924Y-47271645D01*
X152735183Y-46881358D01*
X152981486Y-46356892D01*
X152860819Y-46127000D01*
X151667000Y-46127000D01*
X151413000Y-46127000D01*
X151393000Y-46127000D01*
X151393000Y-45873000D01*
X151413000Y-45873000D01*
X151413000Y-44679845D01*
X151667000Y-44679845D01*
X151667000Y-45873000D01*
X152860819Y-45873000D01*
X152981486Y-45643108D01*
X152735183Y-45118642D01*
X152306924Y-44728355D01*
X151896890Y-44558524D01*
X151667000Y-44679845D01*
X151413000Y-44679845D01*
X151183110Y-44558524D01*
X150773076Y-44728355D01*
X150468739Y-45005708D01*
X150448157Y-44902235D01*
X150307809Y-44692191D01*
X150097765Y-44551843D01*
X149850000Y-44502560D01*
X148150000Y-44502560D01*
X147902235Y-44551843D01*
X147692191Y-44692191D01*
X147551843Y-44902235D01*
X147502560Y-45150000D01*
X140497440Y-45150000D01*
X140448157Y-44902235D01*
X140307809Y-44692191D01*
X140097765Y-44551843D01*
X139850000Y-44502560D01*
X138150000Y-44502560D01*
X137902235Y-44551843D01*
X137692191Y-44692191D01*
X137551843Y-44902235D01*
X137542816Y-44947619D01*
X137530625Y-44929375D01*
X137039418Y-44601161D01*
X136606256Y-44515000D01*
X136313744Y-44515000D01*
X135880582Y-44601161D01*
X135389375Y-44929375D01*
X135061161Y-45420582D01*
X134945908Y-46000000D01*
X135061161Y-46579418D01*
X135389375Y-47070625D01*
X135880582Y-47398839D01*
X136313744Y-47485000D01*
X136606256Y-47485000D01*
X137039418Y-47398839D01*
X137530625Y-47070625D01*
X137542816Y-47052381D01*
X137551843Y-47097765D01*
X137662229Y-47262969D01*
X137185199Y-47740000D01*
X105760000Y-47740000D01*
X105760000Y-47497440D01*
X105850000Y-47497440D01*
X106097765Y-47448157D01*
X106307809Y-47307809D01*
X106448157Y-47097765D01*
X106457184Y-47052381D01*
X106469375Y-47070625D01*
X106960582Y-47398839D01*
X107393744Y-47485000D01*
X107686256Y-47485000D01*
X108119418Y-47398839D01*
X108610625Y-47070625D01*
X108810000Y-46772239D01*
X109009375Y-47070625D01*
X109500582Y-47398839D01*
X109933744Y-47485000D01*
X110226256Y-47485000D01*
X110659418Y-47398839D01*
X111150625Y-47070625D01*
X111363843Y-46751522D01*
X111424817Y-46881358D01*
X111853076Y-47271645D01*
X112263110Y-47441476D01*
X112493000Y-47320155D01*
X112493000Y-46127000D01*
X112747000Y-46127000D01*
X112747000Y-47320155D01*
X112976890Y-47441476D01*
X113386924Y-47271645D01*
X113815183Y-46881358D01*
X114061486Y-46356892D01*
X121018514Y-46356892D01*
X121264817Y-46881358D01*
X121693076Y-47271645D01*
X122103110Y-47441476D01*
X122333000Y-47320155D01*
X122333000Y-46127000D01*
X121139181Y-46127000D01*
X121018514Y-46356892D01*
X114061486Y-46356892D01*
X113940819Y-46127000D01*
X112747000Y-46127000D01*
X112493000Y-46127000D01*
X112473000Y-46127000D01*
X112473000Y-45873000D01*
X112493000Y-45873000D01*
X112493000Y-44679845D01*
X112747000Y-44679845D01*
X112747000Y-45873000D01*
X113940819Y-45873000D01*
X114061486Y-45643108D01*
X121018514Y-45643108D01*
X121139181Y-45873000D01*
X122333000Y-45873000D01*
X122333000Y-44679845D01*
X122587000Y-44679845D01*
X122587000Y-45873000D01*
X122607000Y-45873000D01*
X122607000Y-46127000D01*
X122587000Y-46127000D01*
X122587000Y-47320155D01*
X122816890Y-47441476D01*
X123226924Y-47271645D01*
X123531261Y-46994292D01*
X123551843Y-47097765D01*
X123692191Y-47307809D01*
X123902235Y-47448157D01*
X124150000Y-47497440D01*
X125850000Y-47497440D01*
X126097765Y-47448157D01*
X126307809Y-47307809D01*
X126448157Y-47097765D01*
X126497440Y-46850000D01*
X126497440Y-45150000D01*
X126448157Y-44902235D01*
X126307809Y-44692191D01*
X126097765Y-44551843D01*
X125850000Y-44502560D01*
X124150000Y-44502560D01*
X123902235Y-44551843D01*
X123692191Y-44692191D01*
X123551843Y-44902235D01*
X123531261Y-45005708D01*
X123226924Y-44728355D01*
X122816890Y-44558524D01*
X122587000Y-44679845D01*
X122333000Y-44679845D01*
X122103110Y-44558524D01*
X121693076Y-44728355D01*
X121264817Y-45118642D01*
X121018514Y-45643108D01*
X114061486Y-45643108D01*
X113815183Y-45118642D01*
X113386924Y-44728355D01*
X112976890Y-44558524D01*
X112747000Y-44679845D01*
X112493000Y-44679845D01*
X112263110Y-44558524D01*
X111853076Y-44728355D01*
X111424817Y-45118642D01*
X111363843Y-45248478D01*
X111150625Y-44929375D01*
X110659418Y-44601161D01*
X110226256Y-44515000D01*
X109933744Y-44515000D01*
X109500582Y-44601161D01*
X109009375Y-44929375D01*
X108810000Y-45227761D01*
X108610625Y-44929375D01*
X108119418Y-44601161D01*
X107686256Y-44515000D01*
X107393744Y-44515000D01*
X106960582Y-44601161D01*
X106469375Y-44929375D01*
X106457184Y-44947619D01*
X106448157Y-44902235D01*
X106307809Y-44692191D01*
X106097765Y-44551843D01*
X105850000Y-44502560D01*
X104150000Y-44502560D01*
X103902235Y-44551843D01*
X103692191Y-44692191D01*
X103551843Y-44902235D01*
X103502560Y-45150000D01*
X103502560Y-46850000D01*
X103551843Y-47097765D01*
X103692191Y-47307809D01*
X103902235Y-47448157D01*
X104150000Y-47497440D01*
X104240001Y-47497440D01*
X104240001Y-47740000D01*
X97574846Y-47740000D01*
X97499999Y-47725112D01*
X97425152Y-47740000D01*
X97425148Y-47740000D01*
X97203463Y-47784096D01*
X96952071Y-47952071D01*
X96909671Y-48015527D01*
X93210529Y-51714670D01*
X93147073Y-51757070D01*
X93104673Y-51820526D01*
X93104672Y-51820527D01*
X92979098Y-52008462D01*
X92961790Y-52095474D01*
X92882139Y-52128467D01*
X92478467Y-52532139D01*
X92425001Y-52661217D01*
X92371535Y-52532139D01*
X91967863Y-52128467D01*
X91440440Y-51910001D01*
X90869562Y-51910001D01*
X90342139Y-52128467D01*
X89938467Y-52532139D01*
X89885001Y-52661217D01*
X89831535Y-52532139D01*
X89427863Y-52128467D01*
X88900440Y-51910001D01*
X88329562Y-51910001D01*
X87802139Y-52128467D01*
X87398467Y-52532139D01*
X87180001Y-53059562D01*
X87180001Y-53630440D01*
X87398467Y-54157863D01*
X87802139Y-54561535D01*
X87855002Y-54583432D01*
X87855001Y-62540154D01*
X87840113Y-62615001D01*
X87855001Y-62689848D01*
X87855001Y-62689852D01*
X87899097Y-62911537D01*
X88067072Y-63162930D01*
X88130531Y-63205332D01*
X88914671Y-63989473D01*
X88957072Y-64052930D01*
X89208464Y-64220905D01*
X89430149Y-64265001D01*
X89430153Y-64265001D01*
X89505000Y-64279889D01*
X89579847Y-64265001D01*
X94401928Y-64265001D01*
X94152139Y-64368467D01*
X93748467Y-64772139D01*
X93530001Y-65299562D01*
X93530001Y-65870440D01*
X93748467Y-66397863D01*
X94152139Y-66801535D01*
X94679562Y-67020001D01*
X95250440Y-67020001D01*
X95777863Y-66801535D01*
X96181535Y-66397863D01*
X96235001Y-66268785D01*
X96288467Y-66397863D01*
X96692139Y-66801535D01*
X97219562Y-67020001D01*
X97790440Y-67020001D01*
X98317863Y-66801535D01*
X98721535Y-66397863D01*
X98775001Y-66268785D01*
X98828467Y-66397863D01*
X99232139Y-66801535D01*
X99759562Y-67020001D01*
X100330440Y-67020001D01*
X100857863Y-66801535D01*
X101261535Y-66397863D01*
X101315001Y-66268785D01*
X101368467Y-66397863D01*
X101772139Y-66801535D01*
X102299562Y-67020001D01*
X102870440Y-67020001D01*
X103397863Y-66801535D01*
X103801535Y-66397863D01*
X103855001Y-66268785D01*
X103908467Y-66397863D01*
X104312139Y-66801535D01*
X104839562Y-67020001D01*
X105410440Y-67020001D01*
X105937863Y-66801535D01*
X106341535Y-66397863D01*
X106560001Y-65870440D01*
X106560001Y-65299562D01*
X106341535Y-64772139D01*
X105937863Y-64368467D01*
X105688074Y-64265001D01*
X133096571Y-64265001D01*
X133118467Y-64317863D01*
X133522139Y-64721535D01*
X133651217Y-64775001D01*
X133522139Y-64828467D01*
X133118467Y-65232139D01*
X132900001Y-65759562D01*
X132900001Y-66330440D01*
X133118467Y-66857863D01*
X133522139Y-67261535D01*
X133651217Y-67315001D01*
X133522139Y-67368467D01*
X133118467Y-67772139D01*
X133065001Y-67901217D01*
X133011535Y-67772139D01*
X132607863Y-67368467D01*
X132080440Y-67150001D01*
X131509562Y-67150001D01*
X130982139Y-67368467D01*
X130578467Y-67772139D01*
X130525001Y-67901217D01*
X130471535Y-67772139D01*
X130067863Y-67368467D01*
X129540440Y-67150001D01*
X128969562Y-67150001D01*
X128442139Y-67368467D01*
X128038467Y-67772139D01*
X127985001Y-67901217D01*
X127931535Y-67772139D01*
X127527863Y-67368467D01*
X127000440Y-67150001D01*
X126429562Y-67150001D01*
X125902139Y-67368467D01*
X125498467Y-67772139D01*
X125445001Y-67901217D01*
X125391535Y-67772139D01*
X124987863Y-67368467D01*
X124460440Y-67150001D01*
X123889562Y-67150001D01*
X123362139Y-67368467D01*
X122958467Y-67772139D01*
X122905001Y-67901217D01*
X122851535Y-67772139D01*
X122447863Y-67368467D01*
X121920440Y-67150001D01*
X121349562Y-67150001D01*
X120822139Y-67368467D01*
X120418467Y-67772139D01*
X120365001Y-67901217D01*
X120311535Y-67772139D01*
X119907863Y-67368467D01*
X119380440Y-67150001D01*
X118809562Y-67150001D01*
X118282139Y-67368467D01*
X117878467Y-67772139D01*
X117825001Y-67901217D01*
X117771535Y-67772139D01*
X117367863Y-67368467D01*
X116840440Y-67150001D01*
X116269562Y-67150001D01*
X115742139Y-67368467D01*
X115338467Y-67772139D01*
X115285001Y-67901217D01*
X115231535Y-67772139D01*
X114827863Y-67368467D01*
X114300440Y-67150001D01*
X113729562Y-67150001D01*
X113202139Y-67368467D01*
X112798467Y-67772139D01*
X112745001Y-67901217D01*
X112691535Y-67772139D01*
X112287863Y-67368467D01*
X111760440Y-67150001D01*
X111189562Y-67150001D01*
X110662139Y-67368467D01*
X110258467Y-67772139D01*
X110205001Y-67901217D01*
X110151535Y-67772139D01*
X109747863Y-67368467D01*
X109220440Y-67150001D01*
X108649562Y-67150001D01*
X108122139Y-67368467D01*
X107718467Y-67772139D01*
X107665001Y-67901217D01*
X107611535Y-67772139D01*
X107207863Y-67368467D01*
X106680440Y-67150001D01*
X106109562Y-67150001D01*
X105582139Y-67368467D01*
X105178467Y-67772139D01*
X105125001Y-67901217D01*
X105071535Y-67772139D01*
X104667863Y-67368467D01*
X104140440Y-67150001D01*
X103569562Y-67150001D01*
X103042139Y-67368467D01*
X102638467Y-67772139D01*
X102585001Y-67901217D01*
X102531535Y-67772139D01*
X102127863Y-67368467D01*
X101600440Y-67150001D01*
X101029562Y-67150001D01*
X100502139Y-67368467D01*
X100098467Y-67772139D01*
X100045001Y-67901217D01*
X99991535Y-67772139D01*
X99587863Y-67368467D01*
X99060440Y-67150001D01*
X98489562Y-67150001D01*
X97962139Y-67368467D01*
X97558467Y-67772139D01*
X97505001Y-67901217D01*
X97451535Y-67772139D01*
X97047863Y-67368467D01*
X96520440Y-67150001D01*
X95949562Y-67150001D01*
X95422139Y-67368467D01*
X95018467Y-67772139D01*
X94965001Y-67901217D01*
X94911535Y-67772139D01*
X94507863Y-67368467D01*
X93980440Y-67150001D01*
X93409562Y-67150001D01*
X92882139Y-67368467D01*
X92478467Y-67772139D01*
X92425001Y-67901217D01*
X92371535Y-67772139D01*
X91967863Y-67368467D01*
X91440440Y-67150001D01*
X90869562Y-67150001D01*
X90342139Y-67368467D01*
X90039739Y-67670867D01*
X90013158Y-67537236D01*
X89872810Y-67327192D01*
X89662766Y-67186844D01*
X89415001Y-67137561D01*
X87815001Y-67137561D01*
X87567236Y-67186844D01*
X87357192Y-67327192D01*
X87216844Y-67537236D01*
X87167561Y-67785001D01*
X85710000Y-67785001D01*
X85710000Y-45150000D01*
X87502560Y-45150000D01*
X87502560Y-46850000D01*
X87551843Y-47097765D01*
X87692191Y-47307809D01*
X87902235Y-47448157D01*
X88150000Y-47497440D01*
X89850000Y-47497440D01*
X90097765Y-47448157D01*
X90307809Y-47307809D01*
X90448157Y-47097765D01*
X90457184Y-47052381D01*
X90469375Y-47070625D01*
X90960582Y-47398839D01*
X91393744Y-47485000D01*
X91686256Y-47485000D01*
X92119418Y-47398839D01*
X92610625Y-47070625D01*
X92810000Y-46772239D01*
X93009375Y-47070625D01*
X93500582Y-47398839D01*
X93933744Y-47485000D01*
X94226256Y-47485000D01*
X94659418Y-47398839D01*
X95150625Y-47070625D01*
X95363843Y-46751522D01*
X95424817Y-46881358D01*
X95853076Y-47271645D01*
X96263110Y-47441476D01*
X96493000Y-47320155D01*
X96493000Y-46127000D01*
X96747000Y-46127000D01*
X96747000Y-47320155D01*
X96976890Y-47441476D01*
X97386924Y-47271645D01*
X97815183Y-46881358D01*
X98061486Y-46356892D01*
X97940819Y-46127000D01*
X96747000Y-46127000D01*
X96493000Y-46127000D01*
X96473000Y-46127000D01*
X96473000Y-45873000D01*
X96493000Y-45873000D01*
X96493000Y-44679845D01*
X96747000Y-44679845D01*
X96747000Y-45873000D01*
X97940819Y-45873000D01*
X98061486Y-45643108D01*
X97815183Y-45118642D01*
X97386924Y-44728355D01*
X96976890Y-44558524D01*
X96747000Y-44679845D01*
X96493000Y-44679845D01*
X96263110Y-44558524D01*
X95853076Y-44728355D01*
X95424817Y-45118642D01*
X95363843Y-45248478D01*
X95150625Y-44929375D01*
X94659418Y-44601161D01*
X94226256Y-44515000D01*
X93933744Y-44515000D01*
X93500582Y-44601161D01*
X93009375Y-44929375D01*
X92810000Y-45227761D01*
X92610625Y-44929375D01*
X92119418Y-44601161D01*
X91686256Y-44515000D01*
X91393744Y-44515000D01*
X90960582Y-44601161D01*
X90469375Y-44929375D01*
X90457184Y-44947619D01*
X90448157Y-44902235D01*
X90307809Y-44692191D01*
X90097765Y-44551843D01*
X89850000Y-44502560D01*
X88150000Y-44502560D01*
X87902235Y-44551843D01*
X87692191Y-44692191D01*
X87551843Y-44902235D01*
X87502560Y-45150000D01*
X85710000Y-45150000D01*
X85710000Y-43710000D01*
X176290001Y-43710000D01*
X176290000Y-87290000D01*
X176290000Y-87290000D01*
G37*
X176290000Y-87290000D02*
X85710000Y-87290000D01*
X85710000Y-81460000D01*
X87485908Y-81460000D01*
X87601161Y-82039418D01*
X87929375Y-82530625D01*
X87947619Y-82542816D01*
X87902235Y-82551843D01*
X87692191Y-82692191D01*
X87551843Y-82902235D01*
X87502560Y-83150000D01*
X87502560Y-84850000D01*
X87551843Y-85097765D01*
X87692191Y-85307809D01*
X87902235Y-85448157D01*
X88150000Y-85497440D01*
X89850000Y-85497440D01*
X90097765Y-85448157D01*
X90307809Y-85307809D01*
X90448157Y-85097765D01*
X90497440Y-84850000D01*
X90497440Y-83150000D01*
X90448157Y-82902235D01*
X90307809Y-82692191D01*
X90097765Y-82551843D01*
X90052381Y-82542816D01*
X90070625Y-82530625D01*
X90398839Y-82039418D01*
X90514092Y-81460000D01*
X93485908Y-81460000D01*
X93601161Y-82039418D01*
X93929375Y-82530625D01*
X93947619Y-82542816D01*
X93902235Y-82551843D01*
X93692191Y-82692191D01*
X93551843Y-82902235D01*
X93502560Y-83150000D01*
X93502560Y-84850000D01*
X93551843Y-85097765D01*
X93692191Y-85307809D01*
X93902235Y-85448157D01*
X94150000Y-85497440D01*
X95850000Y-85497440D01*
X96097765Y-85448157D01*
X96307809Y-85307809D01*
X96448157Y-85097765D01*
X96497440Y-84850000D01*
X96497440Y-83150000D01*
X96448157Y-82902235D01*
X96307809Y-82692191D01*
X96097765Y-82551843D01*
X96052381Y-82542816D01*
X96070625Y-82530625D01*
X96398839Y-82039418D01*
X96514092Y-81460000D01*
X99485908Y-81460000D01*
X99601161Y-82039418D01*
X99929375Y-82530625D01*
X99947619Y-82542816D01*
X99902235Y-82551843D01*
X99692191Y-82692191D01*
X99551843Y-82902235D01*
X99502560Y-83150000D01*
X99502560Y-84850000D01*
X99551843Y-85097765D01*
X99692191Y-85307809D01*
X99902235Y-85448157D01*
X100150000Y-85497440D01*
X101850000Y-85497440D01*
X102097765Y-85448157D01*
X102307809Y-85307809D01*
X102448157Y-85097765D01*
X102497440Y-84850000D01*
X102497440Y-83150000D01*
X102448157Y-82902235D01*
X102307809Y-82692191D01*
X102097765Y-82551843D01*
X102052381Y-82542816D01*
X102070625Y-82530625D01*
X102398839Y-82039418D01*
X102514092Y-81460000D01*
X105485908Y-81460000D01*
X105601161Y-82039418D01*
X105929375Y-82530625D01*
X105947619Y-82542816D01*
X105902235Y-82551843D01*
X105692191Y-82692191D01*
X105551843Y-82902235D01*
X105502560Y-83150000D01*
X105502560Y-84850000D01*
X105551843Y-85097765D01*
X105692191Y-85307809D01*
X105902235Y-85448157D01*
X106150000Y-85497440D01*
X107850000Y-85497440D01*
X108097765Y-85448157D01*
X108307809Y-85307809D01*
X108448157Y-85097765D01*
X108497440Y-84850000D01*
X108497440Y-83150000D01*
X108448157Y-82902235D01*
X108307809Y-82692191D01*
X108097765Y-82551843D01*
X108052381Y-82542816D01*
X108070625Y-82530625D01*
X108398839Y-82039418D01*
X108514092Y-81460000D01*
X111485908Y-81460000D01*
X111601161Y-82039418D01*
X111929375Y-82530625D01*
X111947619Y-82542816D01*
X111902235Y-82551843D01*
X111692191Y-82692191D01*
X111551843Y-82902235D01*
X111502560Y-83150000D01*
X111502560Y-84850000D01*
X111551843Y-85097765D01*
X111692191Y-85307809D01*
X111902235Y-85448157D01*
X112150000Y-85497440D01*
X113850000Y-85497440D01*
X114097765Y-85448157D01*
X114307809Y-85307809D01*
X114448157Y-85097765D01*
X114497440Y-84850000D01*
X114497440Y-83150000D01*
X114448157Y-82902235D01*
X114307809Y-82692191D01*
X114097765Y-82551843D01*
X114052381Y-82542816D01*
X114070625Y-82530625D01*
X114398839Y-82039418D01*
X114514092Y-81460000D01*
X117485908Y-81460000D01*
X117601161Y-82039418D01*
X117929375Y-82530625D01*
X117947619Y-82542816D01*
X117902235Y-82551843D01*
X117692191Y-82692191D01*
X117551843Y-82902235D01*
X117502560Y-83150000D01*
X117502560Y-84850000D01*
X117551843Y-85097765D01*
X117692191Y-85307809D01*
X117902235Y-85448157D01*
X118150000Y-85497440D01*
X119850000Y-85497440D01*
X120097765Y-85448157D01*
X120307809Y-85307809D01*
X120448157Y-85097765D01*
X120497440Y-84850000D01*
X120497440Y-83150000D01*
X120448157Y-82902235D01*
X120307809Y-82692191D01*
X120097765Y-82551843D01*
X120052381Y-82542816D01*
X120070625Y-82530625D01*
X120398839Y-82039418D01*
X120514092Y-81460000D01*
X123485908Y-81460000D01*
X123601161Y-82039418D01*
X123929375Y-82530625D01*
X123947619Y-82542816D01*
X123902235Y-82551843D01*
X123692191Y-82692191D01*
X123551843Y-82902235D01*
X123502560Y-83150000D01*
X123502560Y-84850000D01*
X123551843Y-85097765D01*
X123692191Y-85307809D01*
X123902235Y-85448157D01*
X124150000Y-85497440D01*
X125850000Y-85497440D01*
X126097765Y-85448157D01*
X126307809Y-85307809D01*
X126448157Y-85097765D01*
X126497440Y-84850000D01*
X126497440Y-83150000D01*
X126448157Y-82902235D01*
X126307809Y-82692191D01*
X126097765Y-82551843D01*
X126052381Y-82542816D01*
X126070625Y-82530625D01*
X126398839Y-82039418D01*
X126514092Y-81460000D01*
X129485908Y-81460000D01*
X129601161Y-82039418D01*
X129929375Y-82530625D01*
X129947619Y-82542816D01*
X129902235Y-82551843D01*
X129692191Y-82692191D01*
X129551843Y-82902235D01*
X129502560Y-83150000D01*
X129502560Y-84850000D01*
X129551843Y-85097765D01*
X129692191Y-85307809D01*
X129902235Y-85448157D01*
X130150000Y-85497440D01*
X131850000Y-85497440D01*
X132097765Y-85448157D01*
X132307809Y-85307809D01*
X132448157Y-85097765D01*
X132497440Y-84850000D01*
X132497440Y-83150000D01*
X132448157Y-82902235D01*
X132307809Y-82692191D01*
X132097765Y-82551843D01*
X132052381Y-82542816D01*
X132070625Y-82530625D01*
X132398839Y-82039418D01*
X132514092Y-81460000D01*
X135485908Y-81460000D01*
X135601161Y-82039418D01*
X135929375Y-82530625D01*
X135947619Y-82542816D01*
X135902235Y-82551843D01*
X135692191Y-82692191D01*
X135551843Y-82902235D01*
X135502560Y-83150000D01*
X135502560Y-84850000D01*
X135551843Y-85097765D01*
X135692191Y-85307809D01*
X135902235Y-85448157D01*
X136150000Y-85497440D01*
X137850000Y-85497440D01*
X138097765Y-85448157D01*
X138307809Y-85307809D01*
X138448157Y-85097765D01*
X138497440Y-84850000D01*
X138497440Y-83150000D01*
X138448157Y-82902235D01*
X138307809Y-82692191D01*
X138097765Y-82551843D01*
X138052381Y-82542816D01*
X138070625Y-82530625D01*
X138398839Y-82039418D01*
X138514092Y-81460000D01*
X141485908Y-81460000D01*
X141601161Y-82039418D01*
X141929375Y-82530625D01*
X141947619Y-82542816D01*
X141902235Y-82551843D01*
X141692191Y-82692191D01*
X141551843Y-82902235D01*
X141502560Y-83150000D01*
X141502560Y-84850000D01*
X141551843Y-85097765D01*
X141692191Y-85307809D01*
X141902235Y-85448157D01*
X142150000Y-85497440D01*
X143850000Y-85497440D01*
X144097765Y-85448157D01*
X144307809Y-85307809D01*
X144448157Y-85097765D01*
X144497440Y-84850000D01*
X144497440Y-83150000D01*
X144448157Y-82902235D01*
X144307809Y-82692191D01*
X144097765Y-82551843D01*
X144052381Y-82542816D01*
X144070625Y-82530625D01*
X144398839Y-82039418D01*
X144514092Y-81460000D01*
X147485908Y-81460000D01*
X147601161Y-82039418D01*
X147929375Y-82530625D01*
X147947619Y-82542816D01*
X147902235Y-82551843D01*
X147692191Y-82692191D01*
X147551843Y-82902235D01*
X147502560Y-83150000D01*
X147502560Y-84850000D01*
X147551843Y-85097765D01*
X147692191Y-85307809D01*
X147902235Y-85448157D01*
X148150000Y-85497440D01*
X149850000Y-85497440D01*
X150097765Y-85448157D01*
X150307809Y-85307809D01*
X150448157Y-85097765D01*
X150497440Y-84850000D01*
X150497440Y-83150000D01*
X150448157Y-82902235D01*
X150307809Y-82692191D01*
X150097765Y-82551843D01*
X150052381Y-82542816D01*
X150070625Y-82530625D01*
X150398839Y-82039418D01*
X150514092Y-81460000D01*
X153485908Y-81460000D01*
X153601161Y-82039418D01*
X153929375Y-82530625D01*
X153947619Y-82542816D01*
X153902235Y-82551843D01*
X153692191Y-82692191D01*
X153551843Y-82902235D01*
X153502560Y-83150000D01*
X153502560Y-84850000D01*
X153551843Y-85097765D01*
X153692191Y-85307809D01*
X153902235Y-85448157D01*
X154150000Y-85497440D01*
X155850000Y-85497440D01*
X156097765Y-85448157D01*
X156307809Y-85307809D01*
X156448157Y-85097765D01*
X156497440Y-84850000D01*
X156497440Y-83150000D01*
X156448157Y-82902235D01*
X156307809Y-82692191D01*
X156097765Y-82551843D01*
X156052381Y-82542816D01*
X156070625Y-82530625D01*
X156398839Y-82039418D01*
X156514092Y-81460000D01*
X159485908Y-81460000D01*
X159601161Y-82039418D01*
X159929375Y-82530625D01*
X159947619Y-82542816D01*
X159902235Y-82551843D01*
X159692191Y-82692191D01*
X159551843Y-82902235D01*
X159502560Y-83150000D01*
X159502560Y-84850000D01*
X159551843Y-85097765D01*
X159692191Y-85307809D01*
X159902235Y-85448157D01*
X160150000Y-85497440D01*
X161850000Y-85497440D01*
X162097765Y-85448157D01*
X162307809Y-85307809D01*
X162448157Y-85097765D01*
X162497440Y-84850000D01*
X162497440Y-83150000D01*
X162448157Y-82902235D01*
X162307809Y-82692191D01*
X162097765Y-82551843D01*
X162052381Y-82542816D01*
X162070625Y-82530625D01*
X162398839Y-82039418D01*
X162514092Y-81460000D01*
X165485908Y-81460000D01*
X165601161Y-82039418D01*
X165929375Y-82530625D01*
X165947619Y-82542816D01*
X165902235Y-82551843D01*
X165692191Y-82692191D01*
X165551843Y-82902235D01*
X165502560Y-83150000D01*
X165502560Y-84850000D01*
X165551843Y-85097765D01*
X165692191Y-85307809D01*
X165902235Y-85448157D01*
X166150000Y-85497440D01*
X167850000Y-85497440D01*
X168097765Y-85448157D01*
X168307809Y-85307809D01*
X168448157Y-85097765D01*
X168497440Y-84850000D01*
X168497440Y-83150000D01*
X168448157Y-82902235D01*
X168307809Y-82692191D01*
X168097765Y-82551843D01*
X168052381Y-82542816D01*
X168070625Y-82530625D01*
X168398839Y-82039418D01*
X168514092Y-81460000D01*
X171485908Y-81460000D01*
X171601161Y-82039418D01*
X171929375Y-82530625D01*
X171947619Y-82542816D01*
X171902235Y-82551843D01*
X171692191Y-82692191D01*
X171551843Y-82902235D01*
X171502560Y-83150000D01*
X171502560Y-84850000D01*
X171551843Y-85097765D01*
X171692191Y-85307809D01*
X171902235Y-85448157D01*
X172150000Y-85497440D01*
X173850000Y-85497440D01*
X174097765Y-85448157D01*
X174307809Y-85307809D01*
X174448157Y-85097765D01*
X174497440Y-84850000D01*
X174497440Y-83150000D01*
X174448157Y-82902235D01*
X174307809Y-82692191D01*
X174097765Y-82551843D01*
X174052381Y-82542816D01*
X174070625Y-82530625D01*
X174398839Y-82039418D01*
X174514092Y-81460000D01*
X174398839Y-80880582D01*
X174070625Y-80389375D01*
X173751522Y-80176157D01*
X173881358Y-80115183D01*
X174271645Y-79686924D01*
X174441476Y-79276890D01*
X174320155Y-79047000D01*
X173127000Y-79047000D01*
X173127000Y-79067000D01*
X172873000Y-79067000D01*
X172873000Y-79047000D01*
X171679845Y-79047000D01*
X171558524Y-79276890D01*
X171728355Y-79686924D01*
X172118642Y-80115183D01*
X172248478Y-80176157D01*
X171929375Y-80389375D01*
X171601161Y-80880582D01*
X171485908Y-81460000D01*
X168514092Y-81460000D01*
X168398839Y-80880582D01*
X168070625Y-80389375D01*
X167751522Y-80176157D01*
X167881358Y-80115183D01*
X168271645Y-79686924D01*
X168441476Y-79276890D01*
X168320155Y-79047000D01*
X167127000Y-79047000D01*
X167127000Y-79067000D01*
X166873000Y-79067000D01*
X166873000Y-79047000D01*
X165679845Y-79047000D01*
X165558524Y-79276890D01*
X165728355Y-79686924D01*
X166118642Y-80115183D01*
X166248478Y-80176157D01*
X165929375Y-80389375D01*
X165601161Y-80880582D01*
X165485908Y-81460000D01*
X162514092Y-81460000D01*
X162398839Y-80880582D01*
X162070625Y-80389375D01*
X161751522Y-80176157D01*
X161881358Y-80115183D01*
X162271645Y-79686924D01*
X162441476Y-79276890D01*
X162320155Y-79047000D01*
X161127000Y-79047000D01*
X161127000Y-79067000D01*
X160873000Y-79067000D01*
X160873000Y-79047000D01*
X159679845Y-79047000D01*
X159558524Y-79276890D01*
X159728355Y-79686924D01*
X160118642Y-80115183D01*
X160248478Y-80176157D01*
X159929375Y-80389375D01*
X159601161Y-80880582D01*
X159485908Y-81460000D01*
X156514092Y-81460000D01*
X156398839Y-80880582D01*
X156070625Y-80389375D01*
X155751522Y-80176157D01*
X155881358Y-80115183D01*
X156271645Y-79686924D01*
X156441476Y-79276890D01*
X156320155Y-79047000D01*
X155127000Y-79047000D01*
X155127000Y-79067000D01*
X154873000Y-79067000D01*
X154873000Y-79047000D01*
X153679845Y-79047000D01*
X153558524Y-79276890D01*
X153728355Y-79686924D01*
X154118642Y-80115183D01*
X154248478Y-80176157D01*
X153929375Y-80389375D01*
X153601161Y-80880582D01*
X153485908Y-81460000D01*
X150514092Y-81460000D01*
X150398839Y-80880582D01*
X150070625Y-80389375D01*
X149751522Y-80176157D01*
X149881358Y-80115183D01*
X150271645Y-79686924D01*
X150441476Y-79276890D01*
X150320155Y-79047000D01*
X149127000Y-79047000D01*
X149127000Y-79067000D01*
X148873000Y-79067000D01*
X148873000Y-79047000D01*
X147679845Y-79047000D01*
X147558524Y-79276890D01*
X147728355Y-79686924D01*
X148118642Y-80115183D01*
X148248478Y-80176157D01*
X147929375Y-80389375D01*
X147601161Y-80880582D01*
X147485908Y-81460000D01*
X144514092Y-81460000D01*
X144398839Y-80880582D01*
X144070625Y-80389375D01*
X143751522Y-80176157D01*
X143881358Y-80115183D01*
X144271645Y-79686924D01*
X144441476Y-79276890D01*
X144320155Y-79047000D01*
X143127000Y-79047000D01*
X143127000Y-79067000D01*
X142873000Y-79067000D01*
X142873000Y-79047000D01*
X141679845Y-79047000D01*
X141558524Y-79276890D01*
X141728355Y-79686924D01*
X142118642Y-80115183D01*
X142248478Y-80176157D01*
X141929375Y-80389375D01*
X141601161Y-80880582D01*
X141485908Y-81460000D01*
X138514092Y-81460000D01*
X138398839Y-80880582D01*
X138070625Y-80389375D01*
X137751522Y-80176157D01*
X137881358Y-80115183D01*
X138271645Y-79686924D01*
X138441476Y-79276890D01*
X138320155Y-79047000D01*
X137127000Y-79047000D01*
X137127000Y-79067000D01*
X136873000Y-79067000D01*
X136873000Y-79047000D01*
X135679845Y-79047000D01*
X135558524Y-79276890D01*
X135728355Y-79686924D01*
X136118642Y-80115183D01*
X136248478Y-80176157D01*
X135929375Y-80389375D01*
X135601161Y-80880582D01*
X135485908Y-81460000D01*
X132514092Y-81460000D01*
X132398839Y-80880582D01*
X132070625Y-80389375D01*
X131751522Y-80176157D01*
X131881358Y-80115183D01*
X132271645Y-79686924D01*
X132441476Y-79276890D01*
X132320155Y-79047000D01*
X131127000Y-79047000D01*
X131127000Y-79067000D01*
X130873000Y-79067000D01*
X130873000Y-79047000D01*
X129679845Y-79047000D01*
X129558524Y-79276890D01*
X129728355Y-79686924D01*
X130118642Y-80115183D01*
X130248478Y-80176157D01*
X129929375Y-80389375D01*
X129601161Y-80880582D01*
X129485908Y-81460000D01*
X126514092Y-81460000D01*
X126398839Y-80880582D01*
X126070625Y-80389375D01*
X125751522Y-80176157D01*
X125881358Y-80115183D01*
X126271645Y-79686924D01*
X126441476Y-79276890D01*
X126320155Y-79047000D01*
X125127000Y-79047000D01*
X125127000Y-79067000D01*
X124873000Y-79067000D01*
X124873000Y-79047000D01*
X123679845Y-79047000D01*
X123558524Y-79276890D01*
X123728355Y-79686924D01*
X124118642Y-80115183D01*
X124248478Y-80176157D01*
X123929375Y-80389375D01*
X123601161Y-80880582D01*
X123485908Y-81460000D01*
X120514092Y-81460000D01*
X120398839Y-80880582D01*
X120070625Y-80389375D01*
X119751522Y-80176157D01*
X119881358Y-80115183D01*
X120271645Y-79686924D01*
X120441476Y-79276890D01*
X120320155Y-79047000D01*
X119127000Y-79047000D01*
X119127000Y-79067000D01*
X118873000Y-79067000D01*
X118873000Y-79047000D01*
X117679845Y-79047000D01*
X117558524Y-79276890D01*
X117728355Y-79686924D01*
X118118642Y-80115183D01*
X118248478Y-80176157D01*
X117929375Y-80389375D01*
X117601161Y-80880582D01*
X117485908Y-81460000D01*
X114514092Y-81460000D01*
X114398839Y-80880582D01*
X114070625Y-80389375D01*
X113751522Y-80176157D01*
X113881358Y-80115183D01*
X114271645Y-79686924D01*
X114441476Y-79276890D01*
X114320155Y-79047000D01*
X113127000Y-79047000D01*
X113127000Y-79067000D01*
X112873000Y-79067000D01*
X112873000Y-79047000D01*
X111679845Y-79047000D01*
X111558524Y-79276890D01*
X111728355Y-79686924D01*
X112118642Y-80115183D01*
X112248478Y-80176157D01*
X111929375Y-80389375D01*
X111601161Y-80880582D01*
X111485908Y-81460000D01*
X108514092Y-81460000D01*
X108398839Y-80880582D01*
X108070625Y-80389375D01*
X107751522Y-80176157D01*
X107881358Y-80115183D01*
X108271645Y-79686924D01*
X108441476Y-79276890D01*
X108320155Y-79047000D01*
X107127000Y-79047000D01*
X107127000Y-79067000D01*
X106873000Y-79067000D01*
X106873000Y-79047000D01*
X105679845Y-79047000D01*
X105558524Y-79276890D01*
X105728355Y-79686924D01*
X106118642Y-80115183D01*
X106248478Y-80176157D01*
X105929375Y-80389375D01*
X105601161Y-80880582D01*
X105485908Y-81460000D01*
X102514092Y-81460000D01*
X102398839Y-80880582D01*
X102070625Y-80389375D01*
X101751522Y-80176157D01*
X101881358Y-80115183D01*
X102271645Y-79686924D01*
X102441476Y-79276890D01*
X102320155Y-79047000D01*
X101127000Y-79047000D01*
X101127000Y-79067000D01*
X100873000Y-79067000D01*
X100873000Y-79047000D01*
X99679845Y-79047000D01*
X99558524Y-79276890D01*
X99728355Y-79686924D01*
X100118642Y-80115183D01*
X100248478Y-80176157D01*
X99929375Y-80389375D01*
X99601161Y-80880582D01*
X99485908Y-81460000D01*
X96514092Y-81460000D01*
X96398839Y-80880582D01*
X96070625Y-80389375D01*
X95751522Y-80176157D01*
X95881358Y-80115183D01*
X96271645Y-79686924D01*
X96441476Y-79276890D01*
X96320155Y-79047000D01*
X95127000Y-79047000D01*
X95127000Y-79067000D01*
X94873000Y-79067000D01*
X94873000Y-79047000D01*
X93679845Y-79047000D01*
X93558524Y-79276890D01*
X93728355Y-79686924D01*
X94118642Y-80115183D01*
X94248478Y-80176157D01*
X93929375Y-80389375D01*
X93601161Y-80880582D01*
X93485908Y-81460000D01*
X90514092Y-81460000D01*
X90398839Y-80880582D01*
X90070625Y-80389375D01*
X89751522Y-80176157D01*
X89881358Y-80115183D01*
X90271645Y-79686924D01*
X90441476Y-79276890D01*
X90320155Y-79047000D01*
X89127000Y-79047000D01*
X89127000Y-79067000D01*
X88873000Y-79067000D01*
X88873000Y-79047000D01*
X87679845Y-79047000D01*
X87558524Y-79276890D01*
X87728355Y-79686924D01*
X88118642Y-80115183D01*
X88248478Y-80176157D01*
X87929375Y-80389375D01*
X87601161Y-80880582D01*
X87485908Y-81460000D01*
X85710000Y-81460000D01*
X85710000Y-78563110D01*
X87558524Y-78563110D01*
X87679845Y-78793000D01*
X88873000Y-78793000D01*
X88873000Y-77599181D01*
X89127000Y-77599181D01*
X89127000Y-78793000D01*
X90320155Y-78793000D01*
X90441476Y-78563110D01*
X93558524Y-78563110D01*
X93679845Y-78793000D01*
X94873000Y-78793000D01*
X94873000Y-77599181D01*
X95127000Y-77599181D01*
X95127000Y-78793000D01*
X96320155Y-78793000D01*
X96441476Y-78563110D01*
X99558524Y-78563110D01*
X99679845Y-78793000D01*
X100873000Y-78793000D01*
X100873000Y-77599181D01*
X101127000Y-77599181D01*
X101127000Y-78793000D01*
X102320155Y-78793000D01*
X102441476Y-78563110D01*
X105558524Y-78563110D01*
X105679845Y-78793000D01*
X106873000Y-78793000D01*
X106873000Y-77599181D01*
X107127000Y-77599181D01*
X107127000Y-78793000D01*
X108320155Y-78793000D01*
X108441476Y-78563110D01*
X111558524Y-78563110D01*
X111679845Y-78793000D01*
X112873000Y-78793000D01*
X112873000Y-77599181D01*
X113127000Y-77599181D01*
X113127000Y-78793000D01*
X114320155Y-78793000D01*
X114441476Y-78563110D01*
X117558524Y-78563110D01*
X117679845Y-78793000D01*
X118873000Y-78793000D01*
X118873000Y-77599181D01*
X119127000Y-77599181D01*
X119127000Y-78793000D01*
X120320155Y-78793000D01*
X120441476Y-78563110D01*
X123558524Y-78563110D01*
X123679845Y-78793000D01*
X124873000Y-78793000D01*
X124873000Y-77599181D01*
X125127000Y-77599181D01*
X125127000Y-78793000D01*
X126320155Y-78793000D01*
X126441476Y-78563110D01*
X129558524Y-78563110D01*
X129679845Y-78793000D01*
X130873000Y-78793000D01*
X130873000Y-77599181D01*
X131127000Y-77599181D01*
X131127000Y-78793000D01*
X132320155Y-78793000D01*
X132441476Y-78563110D01*
X135558524Y-78563110D01*
X135679845Y-78793000D01*
X136873000Y-78793000D01*
X136873000Y-77599181D01*
X137127000Y-77599181D01*
X137127000Y-78793000D01*
X138320155Y-78793000D01*
X138441476Y-78563110D01*
X141558524Y-78563110D01*
X141679845Y-78793000D01*
X142873000Y-78793000D01*
X142873000Y-77599181D01*
X143127000Y-77599181D01*
X143127000Y-78793000D01*
X144320155Y-78793000D01*
X144441476Y-78563110D01*
X147558524Y-78563110D01*
X147679845Y-78793000D01*
X148873000Y-78793000D01*
X148873000Y-77599181D01*
X149127000Y-77599181D01*
X149127000Y-78793000D01*
X150320155Y-78793000D01*
X150441476Y-78563110D01*
X153558524Y-78563110D01*
X153679845Y-78793000D01*
X154873000Y-78793000D01*
X154873000Y-77599181D01*
X155127000Y-77599181D01*
X155127000Y-78793000D01*
X156320155Y-78793000D01*
X156441476Y-78563110D01*
X159558524Y-78563110D01*
X159679845Y-78793000D01*
X160873000Y-78793000D01*
X160873000Y-77599181D01*
X161127000Y-77599181D01*
X161127000Y-78793000D01*
X162320155Y-78793000D01*
X162441476Y-78563110D01*
X165558524Y-78563110D01*
X165679845Y-78793000D01*
X166873000Y-78793000D01*
X166873000Y-77599181D01*
X167127000Y-77599181D01*
X167127000Y-78793000D01*
X168320155Y-78793000D01*
X168441476Y-78563110D01*
X171558524Y-78563110D01*
X171679845Y-78793000D01*
X172873000Y-78793000D01*
X172873000Y-77599181D01*
X173127000Y-77599181D01*
X173127000Y-78793000D01*
X174320155Y-78793000D01*
X174441476Y-78563110D01*
X174271645Y-78153076D01*
X173881358Y-77724817D01*
X173356892Y-77478514D01*
X173127000Y-77599181D01*
X172873000Y-77599181D01*
X172643108Y-77478514D01*
X172118642Y-77724817D01*
X171728355Y-78153076D01*
X171558524Y-78563110D01*
X168441476Y-78563110D01*
X168271645Y-78153076D01*
X167881358Y-77724817D01*
X167356892Y-77478514D01*
X167127000Y-77599181D01*
X166873000Y-77599181D01*
X166643108Y-77478514D01*
X166118642Y-77724817D01*
X165728355Y-78153076D01*
X165558524Y-78563110D01*
X162441476Y-78563110D01*
X162271645Y-78153076D01*
X161881358Y-77724817D01*
X161356892Y-77478514D01*
X161127000Y-77599181D01*
X160873000Y-77599181D01*
X160643108Y-77478514D01*
X160118642Y-77724817D01*
X159728355Y-78153076D01*
X159558524Y-78563110D01*
X156441476Y-78563110D01*
X156271645Y-78153076D01*
X155881358Y-77724817D01*
X155356892Y-77478514D01*
X155127000Y-77599181D01*
X154873000Y-77599181D01*
X154643108Y-77478514D01*
X154118642Y-77724817D01*
X153728355Y-78153076D01*
X153558524Y-78563110D01*
X150441476Y-78563110D01*
X150271645Y-78153076D01*
X149881358Y-77724817D01*
X149356892Y-77478514D01*
X149127000Y-77599181D01*
X148873000Y-77599181D01*
X148643108Y-77478514D01*
X148118642Y-77724817D01*
X147728355Y-78153076D01*
X147558524Y-78563110D01*
X144441476Y-78563110D01*
X144271645Y-78153076D01*
X143881358Y-77724817D01*
X143356892Y-77478514D01*
X143127000Y-77599181D01*
X142873000Y-77599181D01*
X142643108Y-77478514D01*
X142118642Y-77724817D01*
X141728355Y-78153076D01*
X141558524Y-78563110D01*
X138441476Y-78563110D01*
X138271645Y-78153076D01*
X137881358Y-77724817D01*
X137356892Y-77478514D01*
X137127000Y-77599181D01*
X136873000Y-77599181D01*
X136643108Y-77478514D01*
X136118642Y-77724817D01*
X135728355Y-78153076D01*
X135558524Y-78563110D01*
X132441476Y-78563110D01*
X132271645Y-78153076D01*
X131881358Y-77724817D01*
X131356892Y-77478514D01*
X131127000Y-77599181D01*
X130873000Y-77599181D01*
X130643108Y-77478514D01*
X130118642Y-77724817D01*
X129728355Y-78153076D01*
X129558524Y-78563110D01*
X126441476Y-78563110D01*
X126271645Y-78153076D01*
X125881358Y-77724817D01*
X125356892Y-77478514D01*
X125127000Y-77599181D01*
X124873000Y-77599181D01*
X124643108Y-77478514D01*
X124118642Y-77724817D01*
X123728355Y-78153076D01*
X123558524Y-78563110D01*
X120441476Y-78563110D01*
X120271645Y-78153076D01*
X119881358Y-77724817D01*
X119356892Y-77478514D01*
X119127000Y-77599181D01*
X118873000Y-77599181D01*
X118643108Y-77478514D01*
X118118642Y-77724817D01*
X117728355Y-78153076D01*
X117558524Y-78563110D01*
X114441476Y-78563110D01*
X114271645Y-78153076D01*
X113881358Y-77724817D01*
X113356892Y-77478514D01*
X113127000Y-77599181D01*
X112873000Y-77599181D01*
X112643108Y-77478514D01*
X112118642Y-77724817D01*
X111728355Y-78153076D01*
X111558524Y-78563110D01*
X108441476Y-78563110D01*
X108271645Y-78153076D01*
X107881358Y-77724817D01*
X107356892Y-77478514D01*
X107127000Y-77599181D01*
X106873000Y-77599181D01*
X106643108Y-77478514D01*
X106118642Y-77724817D01*
X105728355Y-78153076D01*
X105558524Y-78563110D01*
X102441476Y-78563110D01*
X102271645Y-78153076D01*
X101881358Y-77724817D01*
X101356892Y-77478514D01*
X101127000Y-77599181D01*
X100873000Y-77599181D01*
X100643108Y-77478514D01*
X100118642Y-77724817D01*
X99728355Y-78153076D01*
X99558524Y-78563110D01*
X96441476Y-78563110D01*
X96271645Y-78153076D01*
X95881358Y-77724817D01*
X95356892Y-77478514D01*
X95127000Y-77599181D01*
X94873000Y-77599181D01*
X94643108Y-77478514D01*
X94118642Y-77724817D01*
X93728355Y-78153076D01*
X93558524Y-78563110D01*
X90441476Y-78563110D01*
X90271645Y-78153076D01*
X89881358Y-77724817D01*
X89356892Y-77478514D01*
X89127000Y-77599181D01*
X88873000Y-77599181D01*
X88643108Y-77478514D01*
X88118642Y-77724817D01*
X87728355Y-78153076D01*
X87558524Y-78563110D01*
X85710000Y-78563110D01*
X85710000Y-67785001D01*
X87167561Y-67785001D01*
X87167561Y-69385001D01*
X87216844Y-69632766D01*
X87357192Y-69842810D01*
X87567236Y-69983158D01*
X87815001Y-70032441D01*
X89415001Y-70032441D01*
X89662766Y-69983158D01*
X89872810Y-69842810D01*
X90013158Y-69632766D01*
X90039739Y-69499135D01*
X90342139Y-69801535D01*
X90869562Y-70020001D01*
X91440440Y-70020001D01*
X91967863Y-69801535D01*
X92371535Y-69397863D01*
X92425001Y-69268785D01*
X92478467Y-69397863D01*
X92882139Y-69801535D01*
X93409562Y-70020001D01*
X93980440Y-70020001D01*
X94507863Y-69801535D01*
X94911535Y-69397863D01*
X94965001Y-69268785D01*
X95018467Y-69397863D01*
X95422139Y-69801535D01*
X95949562Y-70020001D01*
X96520440Y-70020001D01*
X97047863Y-69801535D01*
X97451535Y-69397863D01*
X97505001Y-69268785D01*
X97558467Y-69397863D01*
X97962139Y-69801535D01*
X98489562Y-70020001D01*
X99060440Y-70020001D01*
X99587863Y-69801535D01*
X99991535Y-69397863D01*
X100045001Y-69268785D01*
X100098467Y-69397863D01*
X100502139Y-69801535D01*
X101029562Y-70020001D01*
X101600440Y-70020001D01*
X102127863Y-69801535D01*
X102531535Y-69397863D01*
X102585001Y-69268785D01*
X102638467Y-69397863D01*
X103042139Y-69801535D01*
X103569562Y-70020001D01*
X104140440Y-70020001D01*
X104667863Y-69801535D01*
X105071535Y-69397863D01*
X105125001Y-69268785D01*
X105178467Y-69397863D01*
X105582139Y-69801535D01*
X106109562Y-70020001D01*
X106680440Y-70020001D01*
X107207863Y-69801535D01*
X107611535Y-69397863D01*
X107665001Y-69268785D01*
X107718467Y-69397863D01*
X108122139Y-69801535D01*
X108649562Y-70020001D01*
X109220440Y-70020001D01*
X109747863Y-69801535D01*
X110151535Y-69397863D01*
X110205001Y-69268785D01*
X110258467Y-69397863D01*
X110662139Y-69801535D01*
X111189562Y-70020001D01*
X111760440Y-70020001D01*
X112287863Y-69801535D01*
X112691535Y-69397863D01*
X112745001Y-69268785D01*
X112798467Y-69397863D01*
X113202139Y-69801535D01*
X113729562Y-70020001D01*
X114300440Y-70020001D01*
X114827863Y-69801535D01*
X115231535Y-69397863D01*
X115285001Y-69268785D01*
X115338467Y-69397863D01*
X115742139Y-69801535D01*
X116269562Y-70020001D01*
X116840440Y-70020001D01*
X117367863Y-69801535D01*
X117771535Y-69397863D01*
X117825001Y-69268785D01*
X117878467Y-69397863D01*
X118282139Y-69801535D01*
X118809562Y-70020001D01*
X119380440Y-70020001D01*
X119907863Y-69801535D01*
X120311535Y-69397863D01*
X120365001Y-69268785D01*
X120418467Y-69397863D01*
X120822139Y-69801535D01*
X121349562Y-70020001D01*
X121920440Y-70020001D01*
X122447863Y-69801535D01*
X122851535Y-69397863D01*
X122905001Y-69268785D01*
X122958467Y-69397863D01*
X123362139Y-69801535D01*
X123889562Y-70020001D01*
X124460440Y-70020001D01*
X124987863Y-69801535D01*
X125391535Y-69397863D01*
X125445001Y-69268785D01*
X125498467Y-69397863D01*
X125902139Y-69801535D01*
X126429562Y-70020001D01*
X127000440Y-70020001D01*
X127527863Y-69801535D01*
X127931535Y-69397863D01*
X127985001Y-69268785D01*
X128038467Y-69397863D01*
X128442139Y-69801535D01*
X128969562Y-70020001D01*
X129540440Y-70020001D01*
X130067863Y-69801535D01*
X130471535Y-69397863D01*
X130525001Y-69268785D01*
X130578467Y-69397863D01*
X130982139Y-69801535D01*
X131509562Y-70020001D01*
X132080440Y-70020001D01*
X132607863Y-69801535D01*
X133011535Y-69397863D01*
X133065001Y-69268785D01*
X133118467Y-69397863D01*
X133522139Y-69801535D01*
X134049562Y-70020001D01*
X134620440Y-70020001D01*
X135147863Y-69801535D01*
X135551535Y-69397863D01*
X135605001Y-69268785D01*
X135658467Y-69397863D01*
X136062139Y-69801535D01*
X136589562Y-70020001D01*
X137160440Y-70020001D01*
X137687863Y-69801535D01*
X138091535Y-69397863D01*
X138145001Y-69268785D01*
X138198467Y-69397863D01*
X138602139Y-69801535D01*
X139129562Y-70020001D01*
X139700440Y-70020001D01*
X140227863Y-69801535D01*
X140631535Y-69397863D01*
X140685001Y-69268785D01*
X140738467Y-69397863D01*
X141142139Y-69801535D01*
X141669562Y-70020001D01*
X142240440Y-70020001D01*
X142767863Y-69801535D01*
X143171535Y-69397863D01*
X143225001Y-69268785D01*
X143278467Y-69397863D01*
X143682139Y-69801535D01*
X144209562Y-70020001D01*
X144780440Y-70020001D01*
X145307863Y-69801535D01*
X145711535Y-69397863D01*
X145765001Y-69268785D01*
X145818467Y-69397863D01*
X146222139Y-69801535D01*
X146749562Y-70020001D01*
X147320440Y-70020001D01*
X147847863Y-69801535D01*
X148251535Y-69397863D01*
X148470001Y-68870440D01*
X148470001Y-68299562D01*
X148251535Y-67772139D01*
X147847863Y-67368467D01*
X147320440Y-67150001D01*
X146749562Y-67150001D01*
X146222139Y-67368467D01*
X145818467Y-67772139D01*
X145765001Y-67901217D01*
X145711535Y-67772139D01*
X145307863Y-67368467D01*
X144780440Y-67150001D01*
X144209562Y-67150001D01*
X143682139Y-67368467D01*
X143278467Y-67772139D01*
X143225001Y-67901217D01*
X143171535Y-67772139D01*
X142767863Y-67368467D01*
X142240440Y-67150001D01*
X141669562Y-67150001D01*
X141142139Y-67368467D01*
X140738467Y-67772139D01*
X140685001Y-67901217D01*
X140631535Y-67772139D01*
X140227863Y-67368467D01*
X139700440Y-67150001D01*
X139129562Y-67150001D01*
X138602139Y-67368467D01*
X138198467Y-67772139D01*
X138145001Y-67901217D01*
X138091535Y-67772139D01*
X137687863Y-67368467D01*
X137160440Y-67150001D01*
X136589562Y-67150001D01*
X136062139Y-67368467D01*
X135658467Y-67772139D01*
X135605001Y-67901217D01*
X135551535Y-67772139D01*
X135147863Y-67368467D01*
X135018785Y-67315001D01*
X135147863Y-67261535D01*
X135551535Y-66857863D01*
X135770001Y-66330440D01*
X135770001Y-65759562D01*
X135551535Y-65232139D01*
X135147863Y-64828467D01*
X135018785Y-64775001D01*
X135147863Y-64721535D01*
X135551535Y-64317863D01*
X135573431Y-64265001D01*
X165365000Y-64265001D01*
X165365000Y-64723046D01*
X165918396Y-66059062D01*
X166940938Y-67081604D01*
X168276954Y-67635000D01*
X169723046Y-67635000D01*
X171059062Y-67081604D01*
X172081604Y-66059062D01*
X172635000Y-64723046D01*
X172635000Y-63276954D01*
X172081604Y-61940938D01*
X171059062Y-60918396D01*
X169723046Y-60365000D01*
X168276954Y-60365000D01*
X166940938Y-60918396D01*
X165918396Y-61940938D01*
X165585342Y-62745001D01*
X135573431Y-62745001D01*
X135551535Y-62692139D01*
X135147863Y-62288467D01*
X135034418Y-62241476D01*
X135089006Y-62218865D01*
X135163140Y-61972746D01*
X134335001Y-61144606D01*
X133506862Y-61972746D01*
X133580996Y-62218865D01*
X133639449Y-62239875D01*
X133522139Y-62288467D01*
X133118467Y-62692139D01*
X133096571Y-62745001D01*
X89819803Y-62745001D01*
X89375001Y-62300200D01*
X89375001Y-60748224D01*
X132888036Y-60748224D01*
X132915223Y-61318455D01*
X133081137Y-61719006D01*
X133327256Y-61793140D01*
X134155396Y-60965001D01*
X134514606Y-60965001D01*
X135342746Y-61793140D01*
X135588865Y-61719006D01*
X135781966Y-61181778D01*
X135754779Y-60611547D01*
X135588865Y-60210996D01*
X135342746Y-60136862D01*
X134514606Y-60965001D01*
X134155396Y-60965001D01*
X133327256Y-60136862D01*
X133081137Y-60210996D01*
X132888036Y-60748224D01*
X89375001Y-60748224D01*
X89375001Y-54583431D01*
X89427863Y-54561535D01*
X89831535Y-54157863D01*
X89885001Y-54028785D01*
X89938467Y-54157863D01*
X90342139Y-54561535D01*
X90471217Y-54615001D01*
X90342139Y-54668467D01*
X89938467Y-55072139D01*
X89720001Y-55599562D01*
X89720001Y-56170440D01*
X89938467Y-56697863D01*
X90342139Y-57101535D01*
X90869562Y-57320001D01*
X91440440Y-57320001D01*
X91967863Y-57101535D01*
X92371535Y-56697863D01*
X92590001Y-56170440D01*
X92590001Y-55599562D01*
X92371535Y-55072139D01*
X91967863Y-54668467D01*
X91838785Y-54615001D01*
X91967863Y-54561535D01*
X92371535Y-54157863D01*
X92425001Y-54028785D01*
X92478467Y-54157863D01*
X92882139Y-54561535D01*
X93409562Y-54780001D01*
X93980440Y-54780001D01*
X94507863Y-54561535D01*
X94911535Y-54157863D01*
X94965001Y-54028785D01*
X95018467Y-54157863D01*
X95422139Y-54561535D01*
X95551217Y-54615001D01*
X95422139Y-54668467D01*
X95018467Y-55072139D01*
X94800001Y-55599562D01*
X94800001Y-56170440D01*
X95018467Y-56697863D01*
X95422139Y-57101535D01*
X95949562Y-57320001D01*
X96520440Y-57320001D01*
X97047863Y-57101535D01*
X97451535Y-56697863D01*
X97505001Y-56568785D01*
X97558467Y-56697863D01*
X97962139Y-57101535D01*
X98489562Y-57320001D01*
X99060440Y-57320001D01*
X99587863Y-57101535D01*
X99991535Y-56697863D01*
X100045001Y-56568785D01*
X100098467Y-56697863D01*
X100502139Y-57101535D01*
X101029562Y-57320001D01*
X101600440Y-57320001D01*
X102127863Y-57101535D01*
X102531535Y-56697863D01*
X102750001Y-56170440D01*
X102750001Y-55599562D01*
X102531535Y-55072139D01*
X102127863Y-54668467D01*
X101998785Y-54615001D01*
X102127863Y-54561535D01*
X102531535Y-54157863D01*
X102585001Y-54028785D01*
X102638467Y-54157863D01*
X103042139Y-54561535D01*
X103569562Y-54780001D01*
X104140440Y-54780001D01*
X104667863Y-54561535D01*
X105071535Y-54157863D01*
X105125001Y-54028785D01*
X105178467Y-54157863D01*
X105582139Y-54561535D01*
X106109562Y-54780001D01*
X106680440Y-54780001D01*
X107207863Y-54561535D01*
X107611535Y-54157863D01*
X107665001Y-54028785D01*
X107718467Y-54157863D01*
X108122139Y-54561535D01*
X108649562Y-54780001D01*
X109220440Y-54780001D01*
X109747863Y-54561535D01*
X110151535Y-54157863D01*
X110205001Y-54028785D01*
X110258467Y-54157863D01*
X110662139Y-54561535D01*
X111189562Y-54780001D01*
X111760440Y-54780001D01*
X112287863Y-54561535D01*
X112691535Y-54157863D01*
X112745001Y-54028785D01*
X112798467Y-54157863D01*
X113202139Y-54561535D01*
X113729562Y-54780001D01*
X114300440Y-54780001D01*
X114827863Y-54561535D01*
X115231535Y-54157863D01*
X115285001Y-54028785D01*
X115338467Y-54157863D01*
X115742139Y-54561535D01*
X116269562Y-54780001D01*
X116840440Y-54780001D01*
X117367863Y-54561535D01*
X117771535Y-54157863D01*
X117825001Y-54028785D01*
X117878467Y-54157863D01*
X118282139Y-54561535D01*
X118809562Y-54780001D01*
X119380440Y-54780001D01*
X119907863Y-54561535D01*
X120311535Y-54157863D01*
X120365001Y-54028785D01*
X120418467Y-54157863D01*
X120822139Y-54561535D01*
X121349562Y-54780001D01*
X121920440Y-54780001D01*
X122447863Y-54561535D01*
X122851535Y-54157863D01*
X122905001Y-54028785D01*
X122958467Y-54157863D01*
X123362139Y-54561535D01*
X123889562Y-54780001D01*
X124460440Y-54780001D01*
X124987863Y-54561535D01*
X125391535Y-54157863D01*
X125445001Y-54028785D01*
X125498467Y-54157863D01*
X125902139Y-54561535D01*
X126429562Y-54780001D01*
X127000440Y-54780001D01*
X127527863Y-54561535D01*
X127931535Y-54157863D01*
X127985001Y-54028785D01*
X128038467Y-54157863D01*
X128442139Y-54561535D01*
X128969562Y-54780001D01*
X129540440Y-54780001D01*
X130067863Y-54561535D01*
X130471535Y-54157863D01*
X130525001Y-54028785D01*
X130578467Y-54157863D01*
X130982139Y-54561535D01*
X131509562Y-54780001D01*
X132080440Y-54780001D01*
X132607863Y-54561535D01*
X133011535Y-54157863D01*
X133065001Y-54028785D01*
X133118467Y-54157863D01*
X133522139Y-54561535D01*
X133651217Y-54615001D01*
X133522139Y-54668467D01*
X133118467Y-55072139D01*
X132900001Y-55599562D01*
X132900001Y-56170440D01*
X133118467Y-56697863D01*
X133522139Y-57101535D01*
X133651217Y-57155001D01*
X133522139Y-57208467D01*
X133118467Y-57612139D01*
X132900001Y-58139562D01*
X132900001Y-58710440D01*
X133118467Y-59237863D01*
X133522139Y-59641535D01*
X133635584Y-59688526D01*
X133580996Y-59711137D01*
X133506862Y-59957256D01*
X134335001Y-60785396D01*
X135163140Y-59957256D01*
X135089006Y-59711137D01*
X135030553Y-59690127D01*
X135147863Y-59641535D01*
X135551535Y-59237863D01*
X135610035Y-59096630D01*
X166582975Y-59096630D01*
X166925566Y-59571277D01*
X168258800Y-60131342D01*
X169704875Y-60138568D01*
X171043639Y-59591854D01*
X171074434Y-59571277D01*
X171417025Y-59096630D01*
X169000000Y-56679605D01*
X166582975Y-59096630D01*
X135610035Y-59096630D01*
X135770001Y-58710440D01*
X135770001Y-58139562D01*
X135551535Y-57612139D01*
X135147863Y-57208467D01*
X135139192Y-57204875D01*
X165361432Y-57204875D01*
X165908146Y-58543639D01*
X165928723Y-58574434D01*
X166403370Y-58917025D01*
X168820395Y-56500000D01*
X169179605Y-56500000D01*
X171596630Y-58917025D01*
X172071277Y-58574434D01*
X172631342Y-57241200D01*
X172638568Y-55795125D01*
X172091854Y-54456361D01*
X172071277Y-54425566D01*
X171596630Y-54082975D01*
X169179605Y-56500000D01*
X168820395Y-56500000D01*
X166403370Y-54082975D01*
X165928723Y-54425566D01*
X165368658Y-55758800D01*
X165361432Y-57204875D01*
X135139192Y-57204875D01*
X135018785Y-57155001D01*
X135147863Y-57101535D01*
X135551535Y-56697863D01*
X135770001Y-56170440D01*
X135770001Y-55599562D01*
X135551535Y-55072139D01*
X135147863Y-54668467D01*
X135018785Y-54615001D01*
X135147863Y-54561535D01*
X135551535Y-54157863D01*
X135605001Y-54028785D01*
X135658467Y-54157863D01*
X136062139Y-54561535D01*
X136589562Y-54780001D01*
X137160440Y-54780001D01*
X137687863Y-54561535D01*
X138091535Y-54157863D01*
X138145001Y-54028785D01*
X138198467Y-54157863D01*
X138602139Y-54561535D01*
X139129562Y-54780001D01*
X139700440Y-54780001D01*
X140227863Y-54561535D01*
X140631535Y-54157863D01*
X140685001Y-54028785D01*
X140738467Y-54157863D01*
X141142139Y-54561535D01*
X141669562Y-54780001D01*
X142240440Y-54780001D01*
X142767863Y-54561535D01*
X143171535Y-54157863D01*
X143225001Y-54028785D01*
X143278467Y-54157863D01*
X143682139Y-54561535D01*
X144209562Y-54780001D01*
X144780440Y-54780001D01*
X145307863Y-54561535D01*
X145711535Y-54157863D01*
X145765001Y-54028785D01*
X145818467Y-54157863D01*
X146222139Y-54561535D01*
X146749562Y-54780001D01*
X147320440Y-54780001D01*
X147847863Y-54561535D01*
X148251535Y-54157863D01*
X148356949Y-53903370D01*
X166582975Y-53903370D01*
X169000000Y-56320395D01*
X171417025Y-53903370D01*
X171074434Y-53428723D01*
X169741200Y-52868658D01*
X168295125Y-52861432D01*
X166956361Y-53408146D01*
X166925566Y-53428723D01*
X166582975Y-53903370D01*
X148356949Y-53903370D01*
X148470001Y-53630440D01*
X148470001Y-53059562D01*
X148251535Y-52532139D01*
X147847863Y-52128467D01*
X147320440Y-51910001D01*
X146749562Y-51910001D01*
X146222139Y-52128467D01*
X145818467Y-52532139D01*
X145765001Y-52661217D01*
X145711535Y-52532139D01*
X145307863Y-52128467D01*
X144780440Y-51910001D01*
X144209562Y-51910001D01*
X143682139Y-52128467D01*
X143278467Y-52532139D01*
X143225001Y-52661217D01*
X143171535Y-52532139D01*
X142767863Y-52128467D01*
X142240440Y-51910001D01*
X141669562Y-51910001D01*
X141142139Y-52128467D01*
X140738467Y-52532139D01*
X140685001Y-52661217D01*
X140631535Y-52532139D01*
X140227863Y-52128467D01*
X139700440Y-51910001D01*
X139129562Y-51910001D01*
X138602139Y-52128467D01*
X138198467Y-52532139D01*
X138145001Y-52661217D01*
X138091535Y-52532139D01*
X137687863Y-52128467D01*
X137160440Y-51910001D01*
X136589562Y-51910001D01*
X136062139Y-52128467D01*
X135658467Y-52532139D01*
X135605001Y-52661217D01*
X135551535Y-52532139D01*
X135147863Y-52128467D01*
X134620440Y-51910001D01*
X134049562Y-51910001D01*
X133522139Y-52128467D01*
X133118467Y-52532139D01*
X133065001Y-52661217D01*
X133011535Y-52532139D01*
X132607863Y-52128467D01*
X132080440Y-51910001D01*
X131509562Y-51910001D01*
X130982139Y-52128467D01*
X130578467Y-52532139D01*
X130525001Y-52661217D01*
X130471535Y-52532139D01*
X130067863Y-52128467D01*
X129540440Y-51910001D01*
X128969562Y-51910001D01*
X128442139Y-52128467D01*
X128038467Y-52532139D01*
X127985001Y-52661217D01*
X127931535Y-52532139D01*
X127527863Y-52128467D01*
X127000440Y-51910001D01*
X126429562Y-51910001D01*
X125902139Y-52128467D01*
X125498467Y-52532139D01*
X125445001Y-52661217D01*
X125391535Y-52532139D01*
X124987863Y-52128467D01*
X124460440Y-51910001D01*
X123889562Y-51910001D01*
X123362139Y-52128467D01*
X122958467Y-52532139D01*
X122905001Y-52661217D01*
X122851535Y-52532139D01*
X122447863Y-52128467D01*
X121920440Y-51910001D01*
X121349562Y-51910001D01*
X120822139Y-52128467D01*
X120418467Y-52532139D01*
X120365001Y-52661217D01*
X120311535Y-52532139D01*
X119907863Y-52128467D01*
X119380440Y-51910001D01*
X118809562Y-51910001D01*
X118282139Y-52128467D01*
X117878467Y-52532139D01*
X117825001Y-52661217D01*
X117771535Y-52532139D01*
X117367863Y-52128467D01*
X116840440Y-51910001D01*
X116269562Y-51910001D01*
X115742139Y-52128467D01*
X115338467Y-52532139D01*
X115285001Y-52661217D01*
X115231535Y-52532139D01*
X114827863Y-52128467D01*
X114300440Y-51910001D01*
X113729562Y-51910001D01*
X113202139Y-52128467D01*
X112798467Y-52532139D01*
X112745001Y-52661217D01*
X112691535Y-52532139D01*
X112287863Y-52128467D01*
X111760440Y-51910001D01*
X111189562Y-51910001D01*
X110662139Y-52128467D01*
X110258467Y-52532139D01*
X110205001Y-52661217D01*
X110151535Y-52532139D01*
X109747863Y-52128467D01*
X109220440Y-51910001D01*
X108649562Y-51910001D01*
X108122139Y-52128467D01*
X107718467Y-52532139D01*
X107665001Y-52661217D01*
X107611535Y-52532139D01*
X107207863Y-52128467D01*
X106680440Y-51910001D01*
X106109562Y-51910001D01*
X105582139Y-52128467D01*
X105178467Y-52532139D01*
X105125001Y-52661217D01*
X105071535Y-52532139D01*
X104667863Y-52128467D01*
X104140440Y-51910001D01*
X103569562Y-51910001D01*
X103042139Y-52128467D01*
X102638467Y-52532139D01*
X102585001Y-52661217D01*
X102531535Y-52532139D01*
X102127863Y-52128467D01*
X101600440Y-51910001D01*
X101029562Y-51910001D01*
X100502139Y-52128467D01*
X100098467Y-52532139D01*
X100045001Y-52661217D01*
X99991535Y-52532139D01*
X99587863Y-52128467D01*
X99060440Y-51910001D01*
X98489562Y-51910001D01*
X97962139Y-52128467D01*
X97558467Y-52532139D01*
X97505001Y-52661217D01*
X97451535Y-52532139D01*
X97047863Y-52128467D01*
X96520440Y-51910001D01*
X95949562Y-51910001D01*
X95422139Y-52128467D01*
X95018467Y-52532139D01*
X94965001Y-52661217D01*
X94911535Y-52532139D01*
X94727099Y-52347703D01*
X97814802Y-49260000D01*
X104925148Y-49260000D01*
X105000000Y-49274889D01*
X105074852Y-49260000D01*
X137425153Y-49260000D01*
X137500000Y-49274888D01*
X137574847Y-49260000D01*
X137574852Y-49260000D01*
X137796537Y-49215904D01*
X138047929Y-49047929D01*
X138090331Y-48984470D01*
X139484476Y-47590327D01*
X139547929Y-47547929D01*
X139581665Y-47497440D01*
X139850000Y-47497440D01*
X140097765Y-47448157D01*
X140307809Y-47307809D01*
X140448157Y-47097765D01*
X140497440Y-46850000D01*
X140497440Y-45150000D01*
X147502560Y-45150000D01*
X147502560Y-46850000D01*
X147551843Y-47097765D01*
X147692191Y-47307809D01*
X147902235Y-47448157D01*
X148150000Y-47497440D01*
X149850000Y-47497440D01*
X150097765Y-47448157D01*
X150307809Y-47307809D01*
X150448157Y-47097765D01*
X150468739Y-46994292D01*
X150773076Y-47271645D01*
X151183110Y-47441476D01*
X151413000Y-47320155D01*
X151413000Y-46127000D01*
X151667000Y-46127000D01*
X151667000Y-47320155D01*
X151896890Y-47441476D01*
X152306924Y-47271645D01*
X152735183Y-46881358D01*
X152981486Y-46356892D01*
X152860819Y-46127000D01*
X151667000Y-46127000D01*
X151413000Y-46127000D01*
X151393000Y-46127000D01*
X151393000Y-45873000D01*
X151413000Y-45873000D01*
X151413000Y-44679845D01*
X151667000Y-44679845D01*
X151667000Y-45873000D01*
X152860819Y-45873000D01*
X152981486Y-45643108D01*
X152735183Y-45118642D01*
X152306924Y-44728355D01*
X151896890Y-44558524D01*
X151667000Y-44679845D01*
X151413000Y-44679845D01*
X151183110Y-44558524D01*
X150773076Y-44728355D01*
X150468739Y-45005708D01*
X150448157Y-44902235D01*
X150307809Y-44692191D01*
X150097765Y-44551843D01*
X149850000Y-44502560D01*
X148150000Y-44502560D01*
X147902235Y-44551843D01*
X147692191Y-44692191D01*
X147551843Y-44902235D01*
X147502560Y-45150000D01*
X140497440Y-45150000D01*
X140448157Y-44902235D01*
X140307809Y-44692191D01*
X140097765Y-44551843D01*
X139850000Y-44502560D01*
X138150000Y-44502560D01*
X137902235Y-44551843D01*
X137692191Y-44692191D01*
X137551843Y-44902235D01*
X137542816Y-44947619D01*
X137530625Y-44929375D01*
X137039418Y-44601161D01*
X136606256Y-44515000D01*
X136313744Y-44515000D01*
X135880582Y-44601161D01*
X135389375Y-44929375D01*
X135061161Y-45420582D01*
X134945908Y-46000000D01*
X135061161Y-46579418D01*
X135389375Y-47070625D01*
X135880582Y-47398839D01*
X136313744Y-47485000D01*
X136606256Y-47485000D01*
X137039418Y-47398839D01*
X137530625Y-47070625D01*
X137542816Y-47052381D01*
X137551843Y-47097765D01*
X137662229Y-47262969D01*
X137185199Y-47740000D01*
X105760000Y-47740000D01*
X105760000Y-47497440D01*
X105850000Y-47497440D01*
X106097765Y-47448157D01*
X106307809Y-47307809D01*
X106448157Y-47097765D01*
X106457184Y-47052381D01*
X106469375Y-47070625D01*
X106960582Y-47398839D01*
X107393744Y-47485000D01*
X107686256Y-47485000D01*
X108119418Y-47398839D01*
X108610625Y-47070625D01*
X108810000Y-46772239D01*
X109009375Y-47070625D01*
X109500582Y-47398839D01*
X109933744Y-47485000D01*
X110226256Y-47485000D01*
X110659418Y-47398839D01*
X111150625Y-47070625D01*
X111363843Y-46751522D01*
X111424817Y-46881358D01*
X111853076Y-47271645D01*
X112263110Y-47441476D01*
X112493000Y-47320155D01*
X112493000Y-46127000D01*
X112747000Y-46127000D01*
X112747000Y-47320155D01*
X112976890Y-47441476D01*
X113386924Y-47271645D01*
X113815183Y-46881358D01*
X114061486Y-46356892D01*
X121018514Y-46356892D01*
X121264817Y-46881358D01*
X121693076Y-47271645D01*
X122103110Y-47441476D01*
X122333000Y-47320155D01*
X122333000Y-46127000D01*
X121139181Y-46127000D01*
X121018514Y-46356892D01*
X114061486Y-46356892D01*
X113940819Y-46127000D01*
X112747000Y-46127000D01*
X112493000Y-46127000D01*
X112473000Y-46127000D01*
X112473000Y-45873000D01*
X112493000Y-45873000D01*
X112493000Y-44679845D01*
X112747000Y-44679845D01*
X112747000Y-45873000D01*
X113940819Y-45873000D01*
X114061486Y-45643108D01*
X121018514Y-45643108D01*
X121139181Y-45873000D01*
X122333000Y-45873000D01*
X122333000Y-44679845D01*
X122587000Y-44679845D01*
X122587000Y-45873000D01*
X122607000Y-45873000D01*
X122607000Y-46127000D01*
X122587000Y-46127000D01*
X122587000Y-47320155D01*
X122816890Y-47441476D01*
X123226924Y-47271645D01*
X123531261Y-46994292D01*
X123551843Y-47097765D01*
X123692191Y-47307809D01*
X123902235Y-47448157D01*
X124150000Y-47497440D01*
X125850000Y-47497440D01*
X126097765Y-47448157D01*
X126307809Y-47307809D01*
X126448157Y-47097765D01*
X126497440Y-46850000D01*
X126497440Y-45150000D01*
X126448157Y-44902235D01*
X126307809Y-44692191D01*
X126097765Y-44551843D01*
X125850000Y-44502560D01*
X124150000Y-44502560D01*
X123902235Y-44551843D01*
X123692191Y-44692191D01*
X123551843Y-44902235D01*
X123531261Y-45005708D01*
X123226924Y-44728355D01*
X122816890Y-44558524D01*
X122587000Y-44679845D01*
X122333000Y-44679845D01*
X122103110Y-44558524D01*
X121693076Y-44728355D01*
X121264817Y-45118642D01*
X121018514Y-45643108D01*
X114061486Y-45643108D01*
X113815183Y-45118642D01*
X113386924Y-44728355D01*
X112976890Y-44558524D01*
X112747000Y-44679845D01*
X112493000Y-44679845D01*
X112263110Y-44558524D01*
X111853076Y-44728355D01*
X111424817Y-45118642D01*
X111363843Y-45248478D01*
X111150625Y-44929375D01*
X110659418Y-44601161D01*
X110226256Y-44515000D01*
X109933744Y-44515000D01*
X109500582Y-44601161D01*
X109009375Y-44929375D01*
X108810000Y-45227761D01*
X108610625Y-44929375D01*
X108119418Y-44601161D01*
X107686256Y-44515000D01*
X107393744Y-44515000D01*
X106960582Y-44601161D01*
X106469375Y-44929375D01*
X106457184Y-44947619D01*
X106448157Y-44902235D01*
X106307809Y-44692191D01*
X106097765Y-44551843D01*
X105850000Y-44502560D01*
X104150000Y-44502560D01*
X103902235Y-44551843D01*
X103692191Y-44692191D01*
X103551843Y-44902235D01*
X103502560Y-45150000D01*
X103502560Y-46850000D01*
X103551843Y-47097765D01*
X103692191Y-47307809D01*
X103902235Y-47448157D01*
X104150000Y-47497440D01*
X104240001Y-47497440D01*
X104240001Y-47740000D01*
X97574846Y-47740000D01*
X97499999Y-47725112D01*
X97425152Y-47740000D01*
X97425148Y-47740000D01*
X97203463Y-47784096D01*
X96952071Y-47952071D01*
X96909671Y-48015527D01*
X93210529Y-51714670D01*
X93147073Y-51757070D01*
X93104673Y-51820526D01*
X93104672Y-51820527D01*
X92979098Y-52008462D01*
X92961790Y-52095474D01*
X92882139Y-52128467D01*
X92478467Y-52532139D01*
X92425001Y-52661217D01*
X92371535Y-52532139D01*
X91967863Y-52128467D01*
X91440440Y-51910001D01*
X90869562Y-51910001D01*
X90342139Y-52128467D01*
X89938467Y-52532139D01*
X89885001Y-52661217D01*
X89831535Y-52532139D01*
X89427863Y-52128467D01*
X88900440Y-51910001D01*
X88329562Y-51910001D01*
X87802139Y-52128467D01*
X87398467Y-52532139D01*
X87180001Y-53059562D01*
X87180001Y-53630440D01*
X87398467Y-54157863D01*
X87802139Y-54561535D01*
X87855002Y-54583432D01*
X87855001Y-62540154D01*
X87840113Y-62615001D01*
X87855001Y-62689848D01*
X87855001Y-62689852D01*
X87899097Y-62911537D01*
X88067072Y-63162930D01*
X88130531Y-63205332D01*
X88914671Y-63989473D01*
X88957072Y-64052930D01*
X89208464Y-64220905D01*
X89430149Y-64265001D01*
X89430153Y-64265001D01*
X89505000Y-64279889D01*
X89579847Y-64265001D01*
X94401928Y-64265001D01*
X94152139Y-64368467D01*
X93748467Y-64772139D01*
X93530001Y-65299562D01*
X93530001Y-65870440D01*
X93748467Y-66397863D01*
X94152139Y-66801535D01*
X94679562Y-67020001D01*
X95250440Y-67020001D01*
X95777863Y-66801535D01*
X96181535Y-66397863D01*
X96235001Y-66268785D01*
X96288467Y-66397863D01*
X96692139Y-66801535D01*
X97219562Y-67020001D01*
X97790440Y-67020001D01*
X98317863Y-66801535D01*
X98721535Y-66397863D01*
X98775001Y-66268785D01*
X98828467Y-66397863D01*
X99232139Y-66801535D01*
X99759562Y-67020001D01*
X100330440Y-67020001D01*
X100857863Y-66801535D01*
X101261535Y-66397863D01*
X101315001Y-66268785D01*
X101368467Y-66397863D01*
X101772139Y-66801535D01*
X102299562Y-67020001D01*
X102870440Y-67020001D01*
X103397863Y-66801535D01*
X103801535Y-66397863D01*
X103855001Y-66268785D01*
X103908467Y-66397863D01*
X104312139Y-66801535D01*
X104839562Y-67020001D01*
X105410440Y-67020001D01*
X105937863Y-66801535D01*
X106341535Y-66397863D01*
X106560001Y-65870440D01*
X106560001Y-65299562D01*
X106341535Y-64772139D01*
X105937863Y-64368467D01*
X105688074Y-64265001D01*
X133096571Y-64265001D01*
X133118467Y-64317863D01*
X133522139Y-64721535D01*
X133651217Y-64775001D01*
X133522139Y-64828467D01*
X133118467Y-65232139D01*
X132900001Y-65759562D01*
X132900001Y-66330440D01*
X133118467Y-66857863D01*
X133522139Y-67261535D01*
X133651217Y-67315001D01*
X133522139Y-67368467D01*
X133118467Y-67772139D01*
X133065001Y-67901217D01*
X133011535Y-67772139D01*
X132607863Y-67368467D01*
X132080440Y-67150001D01*
X131509562Y-67150001D01*
X130982139Y-67368467D01*
X130578467Y-67772139D01*
X130525001Y-67901217D01*
X130471535Y-67772139D01*
X130067863Y-67368467D01*
X129540440Y-67150001D01*
X128969562Y-67150001D01*
X128442139Y-67368467D01*
X128038467Y-67772139D01*
X127985001Y-67901217D01*
X127931535Y-67772139D01*
X127527863Y-67368467D01*
X127000440Y-67150001D01*
X126429562Y-67150001D01*
X125902139Y-67368467D01*
X125498467Y-67772139D01*
X125445001Y-67901217D01*
X125391535Y-67772139D01*
X124987863Y-67368467D01*
X124460440Y-67150001D01*
X123889562Y-67150001D01*
X123362139Y-67368467D01*
X122958467Y-67772139D01*
X122905001Y-67901217D01*
X122851535Y-67772139D01*
X122447863Y-67368467D01*
X121920440Y-67150001D01*
X121349562Y-67150001D01*
X120822139Y-67368467D01*
X120418467Y-67772139D01*
X120365001Y-67901217D01*
X120311535Y-67772139D01*
X119907863Y-67368467D01*
X119380440Y-67150001D01*
X118809562Y-67150001D01*
X118282139Y-67368467D01*
X117878467Y-67772139D01*
X117825001Y-67901217D01*
X117771535Y-67772139D01*
X117367863Y-67368467D01*
X116840440Y-67150001D01*
X116269562Y-67150001D01*
X115742139Y-67368467D01*
X115338467Y-67772139D01*
X115285001Y-67901217D01*
X115231535Y-67772139D01*
X114827863Y-67368467D01*
X114300440Y-67150001D01*
X113729562Y-67150001D01*
X113202139Y-67368467D01*
X112798467Y-67772139D01*
X112745001Y-67901217D01*
X112691535Y-67772139D01*
X112287863Y-67368467D01*
X111760440Y-67150001D01*
X111189562Y-67150001D01*
X110662139Y-67368467D01*
X110258467Y-67772139D01*
X110205001Y-67901217D01*
X110151535Y-67772139D01*
X109747863Y-67368467D01*
X109220440Y-67150001D01*
X108649562Y-67150001D01*
X108122139Y-67368467D01*
X107718467Y-67772139D01*
X107665001Y-67901217D01*
X107611535Y-67772139D01*
X107207863Y-67368467D01*
X106680440Y-67150001D01*
X106109562Y-67150001D01*
X105582139Y-67368467D01*
X105178467Y-67772139D01*
X105125001Y-67901217D01*
X105071535Y-67772139D01*
X104667863Y-67368467D01*
X104140440Y-67150001D01*
X103569562Y-67150001D01*
X103042139Y-67368467D01*
X102638467Y-67772139D01*
X102585001Y-67901217D01*
X102531535Y-67772139D01*
X102127863Y-67368467D01*
X101600440Y-67150001D01*
X101029562Y-67150001D01*
X100502139Y-67368467D01*
X100098467Y-67772139D01*
X100045001Y-67901217D01*
X99991535Y-67772139D01*
X99587863Y-67368467D01*
X99060440Y-67150001D01*
X98489562Y-67150001D01*
X97962139Y-67368467D01*
X97558467Y-67772139D01*
X97505001Y-67901217D01*
X97451535Y-67772139D01*
X97047863Y-67368467D01*
X96520440Y-67150001D01*
X95949562Y-67150001D01*
X95422139Y-67368467D01*
X95018467Y-67772139D01*
X94965001Y-67901217D01*
X94911535Y-67772139D01*
X94507863Y-67368467D01*
X93980440Y-67150001D01*
X93409562Y-67150001D01*
X92882139Y-67368467D01*
X92478467Y-67772139D01*
X92425001Y-67901217D01*
X92371535Y-67772139D01*
X91967863Y-67368467D01*
X91440440Y-67150001D01*
X90869562Y-67150001D01*
X90342139Y-67368467D01*
X90039739Y-67670867D01*
X90013158Y-67537236D01*
X89872810Y-67327192D01*
X89662766Y-67186844D01*
X89415001Y-67137561D01*
X87815001Y-67137561D01*
X87567236Y-67186844D01*
X87357192Y-67327192D01*
X87216844Y-67537236D01*
X87167561Y-67785001D01*
X85710000Y-67785001D01*
X85710000Y-45150000D01*
X87502560Y-45150000D01*
X87502560Y-46850000D01*
X87551843Y-47097765D01*
X87692191Y-47307809D01*
X87902235Y-47448157D01*
X88150000Y-47497440D01*
X89850000Y-47497440D01*
X90097765Y-47448157D01*
X90307809Y-47307809D01*
X90448157Y-47097765D01*
X90457184Y-47052381D01*
X90469375Y-47070625D01*
X90960582Y-47398839D01*
X91393744Y-47485000D01*
X91686256Y-47485000D01*
X92119418Y-47398839D01*
X92610625Y-47070625D01*
X92810000Y-46772239D01*
X93009375Y-47070625D01*
X93500582Y-47398839D01*
X93933744Y-47485000D01*
X94226256Y-47485000D01*
X94659418Y-47398839D01*
X95150625Y-47070625D01*
X95363843Y-46751522D01*
X95424817Y-46881358D01*
X95853076Y-47271645D01*
X96263110Y-47441476D01*
X96493000Y-47320155D01*
X96493000Y-46127000D01*
X96747000Y-46127000D01*
X96747000Y-47320155D01*
X96976890Y-47441476D01*
X97386924Y-47271645D01*
X97815183Y-46881358D01*
X98061486Y-46356892D01*
X97940819Y-46127000D01*
X96747000Y-46127000D01*
X96493000Y-46127000D01*
X96473000Y-46127000D01*
X96473000Y-45873000D01*
X96493000Y-45873000D01*
X96493000Y-44679845D01*
X96747000Y-44679845D01*
X96747000Y-45873000D01*
X97940819Y-45873000D01*
X98061486Y-45643108D01*
X97815183Y-45118642D01*
X97386924Y-44728355D01*
X96976890Y-44558524D01*
X96747000Y-44679845D01*
X96493000Y-44679845D01*
X96263110Y-44558524D01*
X95853076Y-44728355D01*
X95424817Y-45118642D01*
X95363843Y-45248478D01*
X95150625Y-44929375D01*
X94659418Y-44601161D01*
X94226256Y-44515000D01*
X93933744Y-44515000D01*
X93500582Y-44601161D01*
X93009375Y-44929375D01*
X92810000Y-45227761D01*
X92610625Y-44929375D01*
X92119418Y-44601161D01*
X91686256Y-44515000D01*
X91393744Y-44515000D01*
X90960582Y-44601161D01*
X90469375Y-44929375D01*
X90457184Y-44947619D01*
X90448157Y-44902235D01*
X90307809Y-44692191D01*
X90097765Y-44551843D01*
X89850000Y-44502560D01*
X88150000Y-44502560D01*
X87902235Y-44551843D01*
X87692191Y-44692191D01*
X87551843Y-44902235D01*
X87502560Y-45150000D01*
X85710000Y-45150000D01*
X85710000Y-43710000D01*
X176290001Y-43710000D01*
X176290000Y-87290000D01*
G04 #@! TD*
M02*
