G04 #@! TF.GenerationSoftware,KiCad,Pcbnew,(5.0.2)-1*
G04 #@! TF.CreationDate,2019-10-18T18:51:17-07:00*
G04 #@! TF.ProjectId,Arduino Project,41726475-696e-46f2-9050-726f6a656374,rev?*
G04 #@! TF.SameCoordinates,Original*
G04 #@! TF.FileFunction,Paste,Top*
G04 #@! TF.FilePolarity,Positive*
%FSLAX46Y46*%
G04 Gerber Fmt 4.6, Leading zero omitted, Abs format (unit mm)*
G04 Created by KiCad (PCBNEW (5.0.2)-1) date 10/18/2019 6:51:17 PM*
%MOMM*%
%LPD*%
G01*
G04 APERTURE LIST*
%ADD10R,1.450000X0.550000*%
%ADD11C,0.100000*%
%ADD12C,1.150000*%
G04 APERTURE END LIST*
D10*
G04 #@! TO.C,U2*
X153750000Y-54770000D03*
X153750000Y-52230000D03*
X159250000Y-52230000D03*
X159250000Y-54770000D03*
G04 #@! TD*
D11*
G04 #@! TO.C,R1*
G36*
X91324505Y-49301204D02*
X91348773Y-49304804D01*
X91372572Y-49310765D01*
X91395671Y-49319030D01*
X91417850Y-49329520D01*
X91438893Y-49342132D01*
X91458599Y-49356747D01*
X91476777Y-49373223D01*
X91493253Y-49391401D01*
X91507868Y-49411107D01*
X91520480Y-49432150D01*
X91530970Y-49454329D01*
X91539235Y-49477428D01*
X91545196Y-49501227D01*
X91548796Y-49525495D01*
X91550000Y-49549999D01*
X91550000Y-50450001D01*
X91548796Y-50474505D01*
X91545196Y-50498773D01*
X91539235Y-50522572D01*
X91530970Y-50545671D01*
X91520480Y-50567850D01*
X91507868Y-50588893D01*
X91493253Y-50608599D01*
X91476777Y-50626777D01*
X91458599Y-50643253D01*
X91438893Y-50657868D01*
X91417850Y-50670480D01*
X91395671Y-50680970D01*
X91372572Y-50689235D01*
X91348773Y-50695196D01*
X91324505Y-50698796D01*
X91300001Y-50700000D01*
X90649999Y-50700000D01*
X90625495Y-50698796D01*
X90601227Y-50695196D01*
X90577428Y-50689235D01*
X90554329Y-50680970D01*
X90532150Y-50670480D01*
X90511107Y-50657868D01*
X90491401Y-50643253D01*
X90473223Y-50626777D01*
X90456747Y-50608599D01*
X90442132Y-50588893D01*
X90429520Y-50567850D01*
X90419030Y-50545671D01*
X90410765Y-50522572D01*
X90404804Y-50498773D01*
X90401204Y-50474505D01*
X90400000Y-50450001D01*
X90400000Y-49549999D01*
X90401204Y-49525495D01*
X90404804Y-49501227D01*
X90410765Y-49477428D01*
X90419030Y-49454329D01*
X90429520Y-49432150D01*
X90442132Y-49411107D01*
X90456747Y-49391401D01*
X90473223Y-49373223D01*
X90491401Y-49356747D01*
X90511107Y-49342132D01*
X90532150Y-49329520D01*
X90554329Y-49319030D01*
X90577428Y-49310765D01*
X90601227Y-49304804D01*
X90625495Y-49301204D01*
X90649999Y-49300000D01*
X91300001Y-49300000D01*
X91324505Y-49301204D01*
X91324505Y-49301204D01*
G37*
D12*
X90975000Y-50000000D03*
D11*
G36*
X93374505Y-49301204D02*
X93398773Y-49304804D01*
X93422572Y-49310765D01*
X93445671Y-49319030D01*
X93467850Y-49329520D01*
X93488893Y-49342132D01*
X93508599Y-49356747D01*
X93526777Y-49373223D01*
X93543253Y-49391401D01*
X93557868Y-49411107D01*
X93570480Y-49432150D01*
X93580970Y-49454329D01*
X93589235Y-49477428D01*
X93595196Y-49501227D01*
X93598796Y-49525495D01*
X93600000Y-49549999D01*
X93600000Y-50450001D01*
X93598796Y-50474505D01*
X93595196Y-50498773D01*
X93589235Y-50522572D01*
X93580970Y-50545671D01*
X93570480Y-50567850D01*
X93557868Y-50588893D01*
X93543253Y-50608599D01*
X93526777Y-50626777D01*
X93508599Y-50643253D01*
X93488893Y-50657868D01*
X93467850Y-50670480D01*
X93445671Y-50680970D01*
X93422572Y-50689235D01*
X93398773Y-50695196D01*
X93374505Y-50698796D01*
X93350001Y-50700000D01*
X92699999Y-50700000D01*
X92675495Y-50698796D01*
X92651227Y-50695196D01*
X92627428Y-50689235D01*
X92604329Y-50680970D01*
X92582150Y-50670480D01*
X92561107Y-50657868D01*
X92541401Y-50643253D01*
X92523223Y-50626777D01*
X92506747Y-50608599D01*
X92492132Y-50588893D01*
X92479520Y-50567850D01*
X92469030Y-50545671D01*
X92460765Y-50522572D01*
X92454804Y-50498773D01*
X92451204Y-50474505D01*
X92450000Y-50450001D01*
X92450000Y-49549999D01*
X92451204Y-49525495D01*
X92454804Y-49501227D01*
X92460765Y-49477428D01*
X92469030Y-49454329D01*
X92479520Y-49432150D01*
X92492132Y-49411107D01*
X92506747Y-49391401D01*
X92523223Y-49373223D01*
X92541401Y-49356747D01*
X92561107Y-49342132D01*
X92582150Y-49329520D01*
X92604329Y-49319030D01*
X92627428Y-49310765D01*
X92651227Y-49304804D01*
X92675495Y-49301204D01*
X92699999Y-49300000D01*
X93350001Y-49300000D01*
X93374505Y-49301204D01*
X93374505Y-49301204D01*
G37*
D12*
X93025000Y-50000000D03*
G04 #@! TD*
D11*
G04 #@! TO.C,R2*
G36*
X108324505Y-49301204D02*
X108348773Y-49304804D01*
X108372572Y-49310765D01*
X108395671Y-49319030D01*
X108417850Y-49329520D01*
X108438893Y-49342132D01*
X108458599Y-49356747D01*
X108476777Y-49373223D01*
X108493253Y-49391401D01*
X108507868Y-49411107D01*
X108520480Y-49432150D01*
X108530970Y-49454329D01*
X108539235Y-49477428D01*
X108545196Y-49501227D01*
X108548796Y-49525495D01*
X108550000Y-49549999D01*
X108550000Y-50450001D01*
X108548796Y-50474505D01*
X108545196Y-50498773D01*
X108539235Y-50522572D01*
X108530970Y-50545671D01*
X108520480Y-50567850D01*
X108507868Y-50588893D01*
X108493253Y-50608599D01*
X108476777Y-50626777D01*
X108458599Y-50643253D01*
X108438893Y-50657868D01*
X108417850Y-50670480D01*
X108395671Y-50680970D01*
X108372572Y-50689235D01*
X108348773Y-50695196D01*
X108324505Y-50698796D01*
X108300001Y-50700000D01*
X107649999Y-50700000D01*
X107625495Y-50698796D01*
X107601227Y-50695196D01*
X107577428Y-50689235D01*
X107554329Y-50680970D01*
X107532150Y-50670480D01*
X107511107Y-50657868D01*
X107491401Y-50643253D01*
X107473223Y-50626777D01*
X107456747Y-50608599D01*
X107442132Y-50588893D01*
X107429520Y-50567850D01*
X107419030Y-50545671D01*
X107410765Y-50522572D01*
X107404804Y-50498773D01*
X107401204Y-50474505D01*
X107400000Y-50450001D01*
X107400000Y-49549999D01*
X107401204Y-49525495D01*
X107404804Y-49501227D01*
X107410765Y-49477428D01*
X107419030Y-49454329D01*
X107429520Y-49432150D01*
X107442132Y-49411107D01*
X107456747Y-49391401D01*
X107473223Y-49373223D01*
X107491401Y-49356747D01*
X107511107Y-49342132D01*
X107532150Y-49329520D01*
X107554329Y-49319030D01*
X107577428Y-49310765D01*
X107601227Y-49304804D01*
X107625495Y-49301204D01*
X107649999Y-49300000D01*
X108300001Y-49300000D01*
X108324505Y-49301204D01*
X108324505Y-49301204D01*
G37*
D12*
X107975000Y-50000000D03*
D11*
G36*
X110374505Y-49301204D02*
X110398773Y-49304804D01*
X110422572Y-49310765D01*
X110445671Y-49319030D01*
X110467850Y-49329520D01*
X110488893Y-49342132D01*
X110508599Y-49356747D01*
X110526777Y-49373223D01*
X110543253Y-49391401D01*
X110557868Y-49411107D01*
X110570480Y-49432150D01*
X110580970Y-49454329D01*
X110589235Y-49477428D01*
X110595196Y-49501227D01*
X110598796Y-49525495D01*
X110600000Y-49549999D01*
X110600000Y-50450001D01*
X110598796Y-50474505D01*
X110595196Y-50498773D01*
X110589235Y-50522572D01*
X110580970Y-50545671D01*
X110570480Y-50567850D01*
X110557868Y-50588893D01*
X110543253Y-50608599D01*
X110526777Y-50626777D01*
X110508599Y-50643253D01*
X110488893Y-50657868D01*
X110467850Y-50670480D01*
X110445671Y-50680970D01*
X110422572Y-50689235D01*
X110398773Y-50695196D01*
X110374505Y-50698796D01*
X110350001Y-50700000D01*
X109699999Y-50700000D01*
X109675495Y-50698796D01*
X109651227Y-50695196D01*
X109627428Y-50689235D01*
X109604329Y-50680970D01*
X109582150Y-50670480D01*
X109561107Y-50657868D01*
X109541401Y-50643253D01*
X109523223Y-50626777D01*
X109506747Y-50608599D01*
X109492132Y-50588893D01*
X109479520Y-50567850D01*
X109469030Y-50545671D01*
X109460765Y-50522572D01*
X109454804Y-50498773D01*
X109451204Y-50474505D01*
X109450000Y-50450001D01*
X109450000Y-49549999D01*
X109451204Y-49525495D01*
X109454804Y-49501227D01*
X109460765Y-49477428D01*
X109469030Y-49454329D01*
X109479520Y-49432150D01*
X109492132Y-49411107D01*
X109506747Y-49391401D01*
X109523223Y-49373223D01*
X109541401Y-49356747D01*
X109561107Y-49342132D01*
X109582150Y-49329520D01*
X109604329Y-49319030D01*
X109627428Y-49310765D01*
X109651227Y-49304804D01*
X109675495Y-49301204D01*
X109699999Y-49300000D01*
X110350001Y-49300000D01*
X110374505Y-49301204D01*
X110374505Y-49301204D01*
G37*
D12*
X110025000Y-50000000D03*
G04 #@! TD*
D11*
G04 #@! TO.C,R3*
G36*
X159874505Y-58301204D02*
X159898773Y-58304804D01*
X159922572Y-58310765D01*
X159945671Y-58319030D01*
X159967850Y-58329520D01*
X159988893Y-58342132D01*
X160008599Y-58356747D01*
X160026777Y-58373223D01*
X160043253Y-58391401D01*
X160057868Y-58411107D01*
X160070480Y-58432150D01*
X160080970Y-58454329D01*
X160089235Y-58477428D01*
X160095196Y-58501227D01*
X160098796Y-58525495D01*
X160100000Y-58549999D01*
X160100000Y-59450001D01*
X160098796Y-59474505D01*
X160095196Y-59498773D01*
X160089235Y-59522572D01*
X160080970Y-59545671D01*
X160070480Y-59567850D01*
X160057868Y-59588893D01*
X160043253Y-59608599D01*
X160026777Y-59626777D01*
X160008599Y-59643253D01*
X159988893Y-59657868D01*
X159967850Y-59670480D01*
X159945671Y-59680970D01*
X159922572Y-59689235D01*
X159898773Y-59695196D01*
X159874505Y-59698796D01*
X159850001Y-59700000D01*
X159199999Y-59700000D01*
X159175495Y-59698796D01*
X159151227Y-59695196D01*
X159127428Y-59689235D01*
X159104329Y-59680970D01*
X159082150Y-59670480D01*
X159061107Y-59657868D01*
X159041401Y-59643253D01*
X159023223Y-59626777D01*
X159006747Y-59608599D01*
X158992132Y-59588893D01*
X158979520Y-59567850D01*
X158969030Y-59545671D01*
X158960765Y-59522572D01*
X158954804Y-59498773D01*
X158951204Y-59474505D01*
X158950000Y-59450001D01*
X158950000Y-58549999D01*
X158951204Y-58525495D01*
X158954804Y-58501227D01*
X158960765Y-58477428D01*
X158969030Y-58454329D01*
X158979520Y-58432150D01*
X158992132Y-58411107D01*
X159006747Y-58391401D01*
X159023223Y-58373223D01*
X159041401Y-58356747D01*
X159061107Y-58342132D01*
X159082150Y-58329520D01*
X159104329Y-58319030D01*
X159127428Y-58310765D01*
X159151227Y-58304804D01*
X159175495Y-58301204D01*
X159199999Y-58300000D01*
X159850001Y-58300000D01*
X159874505Y-58301204D01*
X159874505Y-58301204D01*
G37*
D12*
X159525000Y-59000000D03*
D11*
G36*
X157824505Y-58301204D02*
X157848773Y-58304804D01*
X157872572Y-58310765D01*
X157895671Y-58319030D01*
X157917850Y-58329520D01*
X157938893Y-58342132D01*
X157958599Y-58356747D01*
X157976777Y-58373223D01*
X157993253Y-58391401D01*
X158007868Y-58411107D01*
X158020480Y-58432150D01*
X158030970Y-58454329D01*
X158039235Y-58477428D01*
X158045196Y-58501227D01*
X158048796Y-58525495D01*
X158050000Y-58549999D01*
X158050000Y-59450001D01*
X158048796Y-59474505D01*
X158045196Y-59498773D01*
X158039235Y-59522572D01*
X158030970Y-59545671D01*
X158020480Y-59567850D01*
X158007868Y-59588893D01*
X157993253Y-59608599D01*
X157976777Y-59626777D01*
X157958599Y-59643253D01*
X157938893Y-59657868D01*
X157917850Y-59670480D01*
X157895671Y-59680970D01*
X157872572Y-59689235D01*
X157848773Y-59695196D01*
X157824505Y-59698796D01*
X157800001Y-59700000D01*
X157149999Y-59700000D01*
X157125495Y-59698796D01*
X157101227Y-59695196D01*
X157077428Y-59689235D01*
X157054329Y-59680970D01*
X157032150Y-59670480D01*
X157011107Y-59657868D01*
X156991401Y-59643253D01*
X156973223Y-59626777D01*
X156956747Y-59608599D01*
X156942132Y-59588893D01*
X156929520Y-59567850D01*
X156919030Y-59545671D01*
X156910765Y-59522572D01*
X156904804Y-59498773D01*
X156901204Y-59474505D01*
X156900000Y-59450001D01*
X156900000Y-58549999D01*
X156901204Y-58525495D01*
X156904804Y-58501227D01*
X156910765Y-58477428D01*
X156919030Y-58454329D01*
X156929520Y-58432150D01*
X156942132Y-58411107D01*
X156956747Y-58391401D01*
X156973223Y-58373223D01*
X156991401Y-58356747D01*
X157011107Y-58342132D01*
X157032150Y-58329520D01*
X157054329Y-58319030D01*
X157077428Y-58310765D01*
X157101227Y-58304804D01*
X157125495Y-58301204D01*
X157149999Y-58300000D01*
X157800001Y-58300000D01*
X157824505Y-58301204D01*
X157824505Y-58301204D01*
G37*
D12*
X157475000Y-59000000D03*
G04 #@! TD*
M02*
