M48
;DRILL file {KiCad (5.0.2)-1} date 10/18/2019 6:52:02 PM
;FORMAT={-:-/ absolute / metric / decimal}
FMAT,2
METRIC,TZ
T1C1.000
T2C1.100
T3C4.500
%
G90
G05
T1
X122.46Y-46.
X125.Y-46.
X107.Y-78.92
X107.Y-81.46
X107.Y-84.
X125.Y-78.92
X125.Y-81.46
X125.Y-84.
X149.Y-46.
X151.54Y-46.
X101.Y-78.92
X101.Y-81.46
X101.Y-84.
X173.Y-78.92
X173.Y-81.46
X173.Y-84.
X167.Y-78.92
X167.Y-81.46
X167.Y-84.
X155.Y-78.92
X155.Y-81.46
X155.Y-84.
X95.Y-78.92
X95.Y-81.46
X95.Y-84.
X136.46Y-46.
X139.Y-46.
X149.Y-78.92
X149.Y-81.46
X149.Y-84.
X119.Y-78.92
X119.Y-81.46
X119.Y-84.
X131.Y-78.92
X131.Y-81.46
X131.Y-84.
X161.Y-78.92
X161.Y-81.46
X161.Y-84.
X143.Y-78.92
X143.Y-81.46
X143.Y-84.
X113.Y-78.92
X113.Y-81.46
X113.Y-84.
X105.Y-46.
X107.54Y-46.
X110.08Y-46.
X112.62Y-46.
X89.Y-78.92
X89.Y-81.46
X89.Y-84.
X89.Y-46.
X91.54Y-46.
X94.08Y-46.
X96.62Y-46.
X137.Y-78.92
X137.Y-81.46
X137.Y-84.
T2
X88.615Y-53.345
X88.615Y-68.585
X91.155Y-53.345
X91.155Y-55.885
X91.155Y-68.585
X93.695Y-53.345
X93.695Y-68.585
X94.965Y-65.585
X96.235Y-53.345
X96.235Y-55.885
X96.235Y-68.585
X97.505Y-65.585
X98.775Y-53.345
X98.775Y-55.885
X98.775Y-68.585
X100.045Y-65.585
X101.315Y-53.345
X101.315Y-55.885
X101.315Y-68.585
X102.585Y-65.585
X103.855Y-53.345
X103.855Y-68.585
X105.125Y-65.585
X106.395Y-53.345
X106.395Y-68.585
X108.935Y-53.345
X108.935Y-68.585
X111.475Y-53.345
X111.475Y-68.585
X114.015Y-53.345
X114.015Y-68.585
X116.555Y-53.345
X116.555Y-68.585
X119.095Y-53.345
X119.095Y-68.585
X121.635Y-53.345
X121.635Y-68.585
X124.175Y-53.345
X124.175Y-68.585
X126.715Y-53.345
X126.715Y-68.585
X129.255Y-53.345
X129.255Y-68.585
X131.795Y-53.345
X131.795Y-68.585
X134.335Y-53.345
X134.335Y-55.885
X134.335Y-58.425
X134.335Y-60.965
X134.335Y-63.505
X134.335Y-66.045
X134.335Y-68.585
X136.875Y-53.345
X136.875Y-68.585
X139.415Y-53.345
X139.415Y-68.585
X141.955Y-53.345
X141.955Y-68.585
X144.495Y-53.345
X144.495Y-68.585
X147.035Y-53.345
X147.035Y-68.585
T3
X169.Y-56.5
X169.Y-64.
T0
M30
